<?xml version="1.0" standalone="no"?>
 <!DOCTYPE svg PUBLIC "-//W3C//DTD SVG 1.1//EN" 
 "http://www.w3.org/Graphics/SVG/1.1/DTD/svg11.dtd"> 
<svg
  xmlns:svg="http://www.w3.org/2000/svg"
  xmlns="http://www.w3.org/2000/svg"
  xmlns:xlink="http://www.w3.org/1999/xlink"
  version="1.1"
  width="297.002200mm" height="210.007200mm" viewBox="0.000000 0.000000 297.002200 210.007200">
<title>SVG Image created as LM3671_Buck_Converter_Module-F_Cu.svg date 2025/08/01 22:37:14 </title>
  <desc>Image generated by PCBNEW </desc>
<g style="fill:#000000; fill-opacity:1.000000;stroke:#000000; stroke-opacity:1.000000;
stroke-linecap:round; stroke-linejoin:round;"
 transform="translate(0 0) scale(1 1)">
<path style="fill:#000000; fill-opacity:1.000000; stroke:none;fill-rule:evenodd;"
d="M 200.427200,77.850000
200.408170,77.754329
200.353977,77.673223
200.272871,77.619030
200.177200,77.600000
199.352200,77.600000
199.256529,77.619030
199.175423,77.673223
199.121230,77.754329
199.102200,77.850000
199.102200,79.150000
199.121230,79.245671
199.175423,79.326777
199.256529,79.380970
199.352200,79.400000
200.177200,79.400000
200.272871,79.380970
200.353977,79.326777
200.408170,79.245671
200.427200,79.150000
Z" /> 
<path style="fill:#000000; fill-opacity:1.000000; stroke:none;fill-rule:evenodd;"
d="M 197.302200,77.850000
197.283170,77.754329
197.228977,77.673223
197.147871,77.619030
197.052200,77.600000
196.227200,77.600000
196.131529,77.619030
196.050423,77.673223
195.996230,77.754329
195.977200,77.850000
195.977200,79.150000
195.996230,79.245671
196.050423,79.326777
196.131529,79.380970
196.227200,79.400000
197.052200,79.400000
197.147871,79.380970
197.228977,79.326777
197.283170,79.245671
197.302200,79.150000
Z" /> 
<path style="fill:#000000; fill-opacity:1.000000; stroke:none;fill-rule:evenodd;"
d="M 197.191700,74.598300
197.191700,76.401700
198.258500,76.401700
198.258500,74.598300
Z" /> 
<path style="fill:#000000; fill-opacity:1.000000; stroke:none;fill-rule:evenodd;"
d="M 199.045900,74.598300
199.045900,76.401700
200.112700,76.401700
200.112700,74.598300
Z" /> 
<path style="fill:#000000; fill-opacity:1.000000; stroke:none;fill-rule:evenodd;"
d="M 191.217200,76.224400
191.228428,76.280846
191.260402,76.328698
191.308254,76.360672
191.364700,76.371900
192.279700,76.371900
192.336146,76.360672
192.383998,76.328698
192.415972,76.280846
192.427200,76.224400
192.427200,75.929400
192.415972,75.872954
192.383998,75.825102
192.336146,75.793128
192.279700,75.781900
191.364700,75.781900
191.308254,75.793128
191.260402,75.825102
191.228428,75.872954
191.217200,75.929400
Z" /> 
<path style="fill:#000000; fill-opacity:1.000000; stroke:none;fill-rule:evenodd;"
d="M 191.217200,75.274400
191.228428,75.330846
191.260402,75.378698
191.308254,75.410672
191.364700,75.421900
192.279700,75.421900
192.336146,75.410672
192.383998,75.378698
192.415972,75.330846
192.427200,75.274400
192.427200,74.979400
192.415972,74.922954
192.383998,74.875102
192.336146,74.843128
192.279700,74.831900
191.364700,74.831900
191.308254,74.843128
191.260402,74.875102
191.228428,74.922954
191.217200,74.979400
Z" /> 
<path style="fill:#000000; fill-opacity:1.000000; stroke:none;fill-rule:evenodd;"
d="M 191.217200,74.324400
191.228428,74.380846
191.260402,74.428698
191.308254,74.460672
191.364700,74.471900
192.279700,74.471900
192.336146,74.460672
192.383998,74.428698
192.415972,74.380846
192.427200,74.324400
192.427200,74.029400
192.415972,73.972954
192.383998,73.925102
192.336146,73.893128
192.279700,73.881900
191.364700,73.881900
191.308254,73.893128
191.260402,73.925102
191.228428,73.972954
191.217200,74.029400
Z" /> 
<path style="fill:#000000; fill-opacity:1.000000; stroke:none;fill-rule:evenodd;"
d="M 193.727200,74.324400
193.738428,74.380846
193.770402,74.428698
193.818254,74.460672
193.874700,74.471900
194.789700,74.471900
194.846146,74.460672
194.893998,74.428698
194.925972,74.380846
194.937200,74.324400
194.937200,74.029400
194.925972,73.972954
194.893998,73.925102
194.846146,73.893128
194.789700,73.881900
193.874700,73.881900
193.818254,73.893128
193.770402,73.925102
193.738428,73.972954
193.727200,74.029400
Z" /> 
<path style="fill:#000000; fill-opacity:1.000000; stroke:none;fill-rule:evenodd;"
d="M 193.727200,76.224400
193.738428,76.280846
193.770402,76.328698
193.818254,76.360672
193.874700,76.371900
194.789700,76.371900
194.846146,76.360672
194.893998,76.328698
194.925972,76.280846
194.937200,76.224400
194.937200,75.929400
194.925972,75.872954
194.893998,75.825102
194.846146,75.793128
194.789700,75.781900
193.874700,75.781900
193.818254,75.793128
193.770402,75.825102
193.738428,75.872954
193.727200,75.929400
Z" /> 
<path style="fill:#000000; fill-opacity:1.000000; stroke:none;fill-rule:evenodd;"
d="M 190.607200,79.150000
190.626230,79.245671
190.680423,79.326777
190.761529,79.380970
190.857200,79.400000
191.682200,79.400000
191.777871,79.380970
191.858977,79.326777
191.913170,79.245671
191.932200,79.150000
191.932200,77.850000
191.913170,77.754329
191.858977,77.673223
191.777871,77.619030
191.682200,77.600000
190.857200,77.600000
190.761529,77.619030
190.680423,77.673223
190.626230,77.754329
190.607200,77.850000
Z" /> 
<path style="fill:#000000; fill-opacity:1.000000; stroke:none;fill-rule:evenodd;"
d="M 193.732200,79.150000
193.751230,79.245671
193.805423,79.326777
193.886529,79.380970
193.982200,79.400000
194.807200,79.400000
194.902871,79.380970
194.983977,79.326777
195.038170,79.245671
195.057200,79.150000
195.057200,77.850000
195.038170,77.754329
194.983977,77.673223
194.902871,77.619030
194.807200,77.600000
193.982200,77.600000
193.886529,77.619030
193.805423,77.673223
193.751230,77.754329
193.732200,77.850000
Z" /> 
<path style="fill:#000000; fill-opacity:1.000000; stroke:none;fill-rule:evenodd;"
d="M 202.102200,77.550000
202.102200,79.250000
203.802200,79.250000
203.802200,77.550000
Z" /> 
<path style="fill:#000000; fill-opacity:1.000000; stroke:none;fill-rule:evenodd;"
d="M 187.152200,77.550000
187.152200,79.250000
188.852200,79.250000
188.852200,77.550000
Z" /> 
<path style="fill:#000000; fill-opacity:1.000000; stroke:none;fill-rule:evenodd;"
d="M 194.932200,80.760000
194.932200,82.460000
196.632200,82.460000
196.632200,80.760000
Z" /> 
</g>
<g style="fill:#000000; fill-opacity:1.000000; stroke:none;">
<circle cx="188.002200" cy="82.000000" r="0.500000" /> 
</g>
<g style="fill:#000000; fill-opacity:1.000000; stroke:none;">
<circle cx="188.002200" cy="76.000000" r="0.500000" /> 
</g>
<g style="fill:#000000; fill-opacity:1.000000; stroke:none;">
<circle cx="199.002200" cy="82.000000" r="0.500000" /> 
</g>
<g style="fill:#000000; fill-opacity:1.000000; stroke:none;">
<circle cx="203.002200" cy="82.000000" r="0.500000" /> 
</g>
<g style="fill:#000000; fill-opacity:1.000000; stroke:none;">
<circle cx="188.002200" cy="73.000000" r="0.500000" /> 
</g>
<g style="fill:#000000; fill-opacity:1.000000; stroke:none;">
<circle cx="202.802200" cy="74.400000" r="0.500000" /> 
</g>
<g style="fill:#000000; fill-opacity:1.000000; stroke:none;">
<circle cx="192.002200" cy="82.000000" r="0.500000" /> 
</g>
<g style="fill:#000000; fill-opacity:1.000000; stroke:none;">
<circle cx="197.802200" cy="72.600000" r="0.500000" /> 
</g>
<g style="fill:#000000; fill-opacity:1.000000; stroke:none;">
<circle cx="190.102200" cy="74.000000" r="0.500000" /> 
</g>
<g style="fill:#000000; fill-opacity:1.000000; stroke:none;">
<circle cx="191.202200" cy="80.100000" r="0.500000" /> 
</g>
<g style="fill:#000000; fill-opacity:1.000000; stroke:none;">
<circle cx="193.602200" cy="73.100000" r="0.500000" /> 
</g>
<g style="fill:#000000; fill-opacity:1.000000; stroke:none;">
<circle cx="199.802200" cy="80.200000" r="0.500000" /> 
</g>
<g style="fill:none; 
stroke:#000000; stroke-width:0.200000; stroke-opacity:1; 
stroke-linecap:round; stroke-linejoin:round;">
<path d="M194.404700 78.490000
L194.394700 78.480000
" />
</g>
<g style="fill:none; 
stroke:#000000; stroke-width:0.300000; stroke-opacity:1; 
stroke-linecap:round; stroke-linejoin:round;">
<path d="M190.279100 74.176900
L190.102200 74.000000
" />
<path d="M191.822200 74.176900
L190.279100 74.176900
" />
</g>
<g style="fill:none; 
stroke:#000000; stroke-width:0.200000; stroke-opacity:1; 
stroke-linecap:round; stroke-linejoin:round;">
<path d="M194.202200 74.046900
L194.332200 74.176900
" />
</g>
<g style="fill:none; 
stroke:#000000; stroke-width:0.300000; stroke-opacity:1; 
stroke-linecap:round; stroke-linejoin:round;">
<path d="M200.204700 78.480000
L200.204700 78.997500
" />
</g>
<g style="fill:none; 
stroke:#000000; stroke-width:0.200000; stroke-opacity:1; 
stroke-linecap:round; stroke-linejoin:round;">
<path d="M200.234700 78.460000
L200.204700 78.490000
" />
</g>
<g style="fill:none; 
stroke:#000000; stroke-width:0.300000; stroke-opacity:1; 
stroke-linecap:round; stroke-linejoin:round;">
<path d="M194.332200 74.176900
L194.332200 73.830000
" />
<path d="M194.332200 73.830000
L193.602200 73.100000
" />
<path style="fill:#000000; fill-opacity:1.000000; stroke:none;fill-rule:evenodd;"
d="M 191.259161,75.819685
191.213406,75.872489
191.202200,75.924000
191.202200,77.200000
186.601700,77.200000
186.534661,77.219685
186.488906,77.272489
186.477700,77.324000
186.477700,80.776000
186.497385,80.843039
186.550189,80.888794
186.601700,80.900000
192.278200,80.900000
192.345239,80.880315
192.390994,80.827511
192.402200,80.776000
192.402200,75.924000
192.382515,75.856961
192.329711,75.811206
192.278200,75.800000
191.326200,75.800000
Z" /> 
<path style="fill:#000000; fill-opacity:1.000000; stroke:none;fill-rule:evenodd;"
d="M 197.489675,74.387752
195.230509,75.500000
193.626200,75.500000
193.559161,75.519685
193.513406,75.572489
193.502200,75.624000
193.502200,76.626000
193.521885,76.693039
193.574689,76.738794
193.626200,76.750000
197.940453,76.750000
198.007492,76.730315
198.053247,76.677511
198.063191,76.608353
198.059668,76.591887
198.056015,76.579120
198.056014,76.579118
198.045400,76.459737
198.045401,74.540264
198.048094,74.509978
198.034424,74.441462
197.985879,74.391211
197.924581,74.375000
197.544446,74.375000
Z" /> 
<path style="fill:#000000; fill-opacity:1.000000; stroke:none;fill-rule:evenodd;"
d="M 199.064125,74.419685
199.018370,74.472489
199.007806,74.536603
199.009000,74.548283
199.009000,76.451701
199.008999,76.451716
199.002842,76.511980
199.002200,76.524582
199.002200,80.776000
199.021885,80.843039
199.074689,80.888794
199.126200,80.900000
204.277700,80.900000
204.344739,80.880315
204.390494,80.827511
204.401700,80.776000
204.401700,77.224000
204.382015,77.156961
204.329211,77.111206
204.277700,77.100000
200.502200,77.100000
200.502200,74.524000
200.482515,74.456961
200.429711,74.411206
200.378200,74.400000
199.131164,74.400000
Z" /> 
<path style="fill:#000000; fill-opacity:1.000000; stroke:none;fill-rule:evenodd;"
d="M 186.534661,71.870185
186.488906,71.922989
186.477700,71.974500
186.477700,76.820500
186.497385,76.887539
186.550189,76.933294
186.601700,76.944500
190.822700,76.944500
190.889739,76.924815
190.935494,76.872011
190.946700,76.820500
190.946700,75.924000
190.952539,75.869687
190.963745,75.818176
190.970981,75.791802
190.970984,75.791796
191.020306,75.705181
191.020310,75.705176
191.020312,75.705172
191.066067,75.652368
191.098841,75.620743
191.098844,75.620741
191.098845,75.620740
191.109114,75.615368
191.124516,75.605817
191.127845,75.603398
191.240182,75.546159
191.240181,75.546159
191.333372,75.531400
192.311022,75.531400
192.404209,75.546159
192.404222,75.546161
192.516555,75.603398
192.516556,75.603399
192.516561,75.603402
192.605698,75.692539
192.605701,75.692544
192.662941,75.804880
192.677700,75.898071
192.677700,76.255722
192.661412,76.358562
192.661828,76.358627
192.657700,76.384685
192.657700,80.776002
192.651862,80.830312
192.640657,80.881818
192.640654,80.881827
192.633421,80.908192
192.633417,80.908203
192.584095,80.994818
192.584090,80.994825
192.584088,80.994828
192.557620,81.025374
192.538337,81.047628
192.538334,81.047631
192.538333,81.047632
192.505559,81.079257
192.417224,81.125465
192.417223,81.125465
192.417223,81.125466
192.372982,81.138456
192.350185,81.145150
192.350181,81.145150
192.350179,81.145151
192.338548,81.146823
192.278200,81.155500
192.278199,81.155500
186.601700,81.155500
186.534661,81.175185
186.488906,81.227989
186.477700,81.279500
186.477700,83.675500
186.497385,83.742539
186.550189,83.788294
186.601700,83.799500
204.277700,83.799500
204.344739,83.779815
204.390494,83.727011
204.401700,83.675500
204.401700,81.279500
204.382015,81.212461
204.329211,81.166706
204.277700,81.155500
199.126200,81.155500
199.071887,81.149661
199.020376,81.138455
198.994002,81.131219
198.965126,81.114775
198.907382,81.081894
198.907381,81.081892
198.907372,81.081888
198.854568,81.036133
198.822943,81.003359
198.776735,80.915024
198.774730,80.908198
198.766985,80.881818
198.757050,80.847985
198.746700,80.776000
198.746700,77.449102
198.727015,77.382063
198.677908,77.339510
198.678425,77.338520
198.674243,77.336335
198.674211,77.336308
198.674097,77.336259
198.672855,77.335610
198.672851,77.335609
198.492493,77.241398
198.414629,77.177907
198.386646,77.166126
198.359643,77.152232
198.352942,77.151937
198.350234,77.150798
198.324387,77.150579
198.324197,77.150597
198.308509,77.152200
198.307547,77.152199
198.303692,77.152571
198.297620,77.155007
198.264061,77.163206
198.149912,77.215338
198.082873,77.235023
198.082869,77.235024
197.940453,77.255500
197.940450,77.255500
193.626210,77.255500
193.626200,77.255500
193.518744,77.243947
193.467233,77.232741
193.433003,77.221347
193.364703,77.198616
193.364699,77.198613
193.364696,77.198613
193.243657,77.120825
193.190853,77.075070
193.096633,76.966336
193.036862,76.835459
193.017177,76.768420
193.017176,76.768416
192.996700,76.626000
192.996700,75.624000
193.008253,75.516544
193.019459,75.465033
193.019563,75.464722
193.053584,75.362502
193.053587,75.362496
193.131372,75.241462
193.131375,75.241457
193.131380,75.241451
193.177124,75.188659
193.177128,75.188656
193.177130,75.188653
193.285864,75.094433
193.285867,75.094431
193.285869,75.094430
193.416735,75.034664
193.416740,75.034662
193.416741,75.034662
193.483780,75.014977
193.483778,75.014977
193.483783,75.014976
193.531256,75.008150
193.626200,74.994500
193.626202,74.994500
195.083949,74.994500
195.138720,74.981748
196.450052,74.336144
196.501502,74.288873
196.506079,74.280276
196.506885,74.278969
196.506886,74.278966
196.598988,74.129644
196.723044,74.005588
196.735231,73.998071
195.187700,73.998071
195.187700,74.355721
195.177380,74.420882
195.172939,74.448922
195.115702,74.561255
195.115700,74.561257
195.115698,74.561260
195.026561,74.650397
195.026559,74.650398
195.026555,74.650402
194.914222,74.707639
194.914221,74.707639
194.914219,74.707640
194.914220,74.707640
194.827350,74.721397
194.825702,74.721659
194.821029,74.722399
194.821023,74.722400
193.843378,74.722399
193.750178,74.707639
193.637845,74.650402
193.548698,74.561255
193.491461,74.448922
193.491461,74.448920
193.491460,74.448919
193.476701,74.355728
193.476700,74.355723
193.476701,73.998078
193.476702,73.998071
192.677700,73.998071
192.677700,74.355721
192.667380,74.420882
192.662939,74.448922
192.605702,74.561255
192.605700,74.561257
192.605698,74.561260
192.516561,74.650397
192.516559,74.650398
192.516555,74.650402
192.404222,74.707639
192.404221,74.707639
192.404219,74.707640
192.404220,74.707640
192.317350,74.721397
192.315702,74.721659
192.311029,74.722399
192.311023,74.722400
191.333378,74.722399
191.240178,74.707639
191.127845,74.650402
191.091163,74.613720
191.029840,74.580234
191.003481,74.577400
190.626539,74.577400
190.559500,74.597085
190.557648,74.598298
190.457702,74.665080
190.457689,74.665087
190.354958,74.707639
190.321113,74.721658
190.321109,74.721658
190.321108,74.721659
190.176121,74.750500
190.176118,74.750500
190.028280,74.750500
189.930738,74.731096
189.883287,74.721658
189.746705,74.665084
189.623784,74.582951
189.519249,74.478416
189.437116,74.355495
189.380542,74.218913
189.351700,74.073918
189.351700,73.926082
189.351700,73.926079
189.380541,73.781092
189.380542,73.781091
189.380542,73.781087
189.389855,73.758604
189.437113,73.644511
189.437120,73.644498
189.519249,73.521584
189.519252,73.521580
189.623781,73.417051
189.623785,73.417048
189.746699,73.334919
189.746712,73.334912
189.883283,73.278343
189.883293,73.278340
190.028280,73.249500
190.028282,73.249500
190.176118,73.249500
190.176120,73.249500
190.321108,73.278340
190.321118,73.278343
190.457689,73.334912
190.457702,73.334919
190.580616,73.417048
190.580620,73.417051
190.685149,73.521580
190.685152,73.521584
190.767281,73.644498
190.767286,73.644507
190.790210,73.699853
190.802754,73.715418
190.811058,73.733603
190.824229,73.742067
190.834051,73.754256
190.853019,73.760568
190.869836,73.771377
190.897397,73.775339
190.900345,73.776321
190.904771,73.776400
191.003481,73.776400
191.070520,73.756715
191.091163,73.740080
191.127841,73.703401
191.127843,73.703400
191.127845,73.703398
191.240178,73.646161
191.240179,73.646160
191.240182,73.646159
191.240181,73.646159
191.333372,73.631400
192.311022,73.631400
192.404209,73.646159
192.404222,73.646161
192.516555,73.703398
192.516556,73.703399
192.516561,73.703402
192.605698,73.792539
192.605701,73.792544
192.605702,73.792545
192.621437,73.823427
192.662941,73.904880
192.677700,73.998071
193.476702,73.998071
193.482286,73.962813
193.473330,73.893520
193.428333,73.840069
193.388989,73.823856
193.389119,73.823427
193.384669,73.822076
193.383993,73.821798
193.383287,73.821658
193.246705,73.765084
193.123784,73.682951
193.019249,73.578416
192.937116,73.455495
192.880542,73.318913
192.869982,73.265825
192.851700,73.173920
192.851700,73.026079
192.880541,72.881092
192.880542,72.881091
192.880542,72.881087
192.880544,72.881082
192.937113,72.744511
192.937120,72.744498
193.019249,72.621584
193.019252,72.621580
193.123781,72.517051
193.123785,72.517048
193.246699,72.434919
193.246712,72.434912
193.383283,72.378343
193.383293,72.378340
193.528280,72.349500
193.528282,72.349500
193.676118,72.349500
193.676120,72.349500
193.821108,72.378340
193.821118,72.378343
193.957689,72.434912
193.957702,72.434919
194.080616,72.517048
194.080620,72.517051
194.185149,72.621580
194.185152,72.621584
194.267281,72.744498
194.267288,72.744511
194.323857,72.881082
194.323860,72.881092
194.352700,73.026079
194.352700,73.026082
194.352700,73.173918
194.347506,73.200030
194.347349,73.200820
194.353578,73.270412
194.381286,73.312691
194.652680,73.584087
194.652682,73.584089
194.658426,73.589834
194.659627,73.588633
194.708199,73.624093
194.750133,73.631400
194.821021,73.631400
194.914209,73.646159
194.914222,73.646161
195.026555,73.703398
195.026556,73.703399
195.026561,73.703402
195.115698,73.792539
195.115701,73.792544
195.115702,73.792545
195.131437,73.823427
195.172941,73.904880
195.187700,73.998071
196.735231,73.998071
196.815812,73.948369
196.872364,73.913487
196.872369,73.913485
196.898343,73.904878
197.038903,73.858301
197.038905,73.858300
197.141690,73.847800
198.308502,73.847800
198.308522,73.847802
198.323667,73.849349
198.392360,73.836579
198.414625,73.822095
198.492493,73.758602
198.672851,73.664391
198.672852,73.664390
198.672855,73.664389
198.790071,73.630850
198.868482,73.608414
198.868485,73.608413
198.868487,73.608413
198.934798,73.602517
198.987863,73.597800
198.987868,73.597800
200.170729,73.597800
200.170735,73.597800
200.170736,73.597801
200.182384,73.598836
200.290116,73.608413
200.485746,73.664389
200.553638,73.699853
200.666107,73.758602
200.666109,73.758603
200.666110,73.758604
200.823810,73.887190
200.952396,74.044890
201.046611,74.225254
201.102586,74.420883
201.102587,74.420886
201.113200,74.540266
201.113200,76.459728
201.113199,76.459734
201.102587,76.579115
201.071892,76.686389
201.072375,76.756257
201.110555,76.814772
201.174310,76.843357
201.191108,76.844500
204.277700,76.844500
204.344739,76.824815
204.390494,76.772011
204.401700,76.720500
204.401700,71.974500
204.382015,71.907461
204.329211,71.861706
204.277700,71.850500
186.601700,71.850500
Z" /> 
</g>
<g style="fill:#FFFFFF; fill-opacity:1.000000; stroke:none;">
<circle cx="188.002200" cy="82.000000" r="0.250000" /> 
</g>
<g style="fill:#FFFFFF; fill-opacity:1.000000; stroke:none;">
<circle cx="188.002200" cy="76.000000" r="0.250000" /> 
</g>
<g style="fill:#FFFFFF; fill-opacity:1.000000; stroke:none;">
<circle cx="199.002200" cy="82.000000" r="0.250000" /> 
</g>
<g style="fill:#FFFFFF; fill-opacity:1.000000; stroke:none;">
<circle cx="203.002200" cy="82.000000" r="0.250000" /> 
</g>
<g style="fill:#FFFFFF; fill-opacity:1.000000; stroke:none;">
<circle cx="188.002200" cy="73.000000" r="0.250000" /> 
</g>
<g style="fill:#FFFFFF; fill-opacity:1.000000; stroke:none;">
<circle cx="202.802200" cy="74.400000" r="0.250000" /> 
</g>
<g style="fill:#FFFFFF; fill-opacity:1.000000; stroke:none;">
<circle cx="192.002200" cy="82.000000" r="0.250000" /> 
</g>
<g style="fill:#FFFFFF; fill-opacity:1.000000; stroke:none;">
<circle cx="197.802200" cy="72.600000" r="0.250000" /> 
</g>
<g style="fill:#FFFFFF; fill-opacity:1.000000; stroke:none;">
<circle cx="190.102200" cy="74.000000" r="0.250000" /> 
</g>
<g style="fill:#FFFFFF; fill-opacity:1.000000; stroke:none;">
<circle cx="191.202200" cy="80.100000" r="0.250000" /> 
</g>
<g style="fill:#FFFFFF; fill-opacity:1.000000; stroke:none;">
<circle cx="193.602200" cy="73.100000" r="0.250000" /> 
</g>
<g style="fill:#FFFFFF; fill-opacity:1.000000; stroke:none;">
<circle cx="199.802200" cy="80.200000" r="0.250000" /> 
</g>
<g style="fill:#FFFFFF; fill-opacity:1.000000; stroke:none;">
<circle cx="202.952200" cy="78.400000" r="0.500000" /> 
</g>
<g style="fill:#FFFFFF; fill-opacity:1.000000; stroke:none;">
<circle cx="188.002200" cy="78.400000" r="0.500000" /> 
</g>
<g style="fill:#FFFFFF; fill-opacity:1.000000; stroke:none;">
<circle cx="195.782200" cy="81.610000" r="0.500000" /> 
</g> 
</svg>
