<?xml version="1.0" standalone="no"?>
 <!DOCTYPE svg PUBLIC "-//W3C//DTD SVG 1.1//EN" 
 "http://www.w3.org/Graphics/SVG/1.1/DTD/svg11.dtd"> 
<svg
  xmlns:svg="http://www.w3.org/2000/svg"
  xmlns="http://www.w3.org/2000/svg"
  xmlns:xlink="http://www.w3.org/1999/xlink"
  version="1.1"
  width="297.002200mm" height="210.007200mm" viewBox="0.000000 0.000000 297.002200 210.007200">
<title>SVG Image created as LM3671_Buck_Converter_Module-B_Cu.svg date 2025/08/21 22:57:13 </title>
  <desc>Image generated by PCBNEW </desc>
<g style="fill:#000000; fill-opacity:1.000000;stroke:#000000; stroke-opacity:1.000000;
stroke-linecap:round; stroke-linejoin:round;"
 transform="translate(0 0) scale(1 1)">
<path style="fill:#000000; fill-opacity:1.000000; stroke:none;fill-rule:evenodd;"
d="M 105.447500,73.810000
105.538387,73.828079
105.615438,73.879562
105.666921,73.956613
105.685000,74.047500
105.685000,74.547500
105.666921,74.638387
105.615438,74.715438
105.538387,74.766921
105.447500,74.785000
104.972500,74.785000
104.881613,74.766921
104.804562,74.715438
104.753079,74.638387
104.735000,74.547500
104.735000,74.047500
104.753079,73.956613
104.804562,73.879562
104.881613,73.828079
104.972500,73.810000
Z" /> 
<path style="fill:#000000; fill-opacity:1.000000; stroke:none;fill-rule:evenodd;"
d="M 105.447500,75.635000
105.538387,75.653079
105.615438,75.704562
105.666921,75.781613
105.685000,75.872500
105.685000,76.372500
105.666921,76.463387
105.615438,76.540438
105.538387,76.591921
105.447500,76.610000
104.972500,76.610000
104.881613,76.591921
104.804562,76.540438
104.753079,76.463387
104.735000,76.372500
104.735000,75.872500
104.753079,75.781613
104.804562,75.704562
104.881613,75.653079
104.972500,75.635000
Z" /> 
<path style="fill:#000000; fill-opacity:1.000000; stroke:none;fill-rule:evenodd;"
d="M 94.900000,77.550000
94.900000,79.250000
93.200000,79.250000
93.200000,77.550000
Z" /> 
<path style="fill:#000000; fill-opacity:1.000000; stroke:none;fill-rule:evenodd;"
d="M 109.850000,77.550000
109.850000,79.250000
108.150000,79.250000
108.150000,77.550000
Z" /> 
<path style="fill:#000000; fill-opacity:1.000000; stroke:none;fill-rule:evenodd;"
d="M 102.070000,80.760000
102.070000,82.460000
100.370000,82.460000
100.370000,80.760000
Z" /> 
</g>
<g style="fill:#000000; fill-opacity:1.000000; stroke:none;">
<circle cx="109.000000" cy="82.000000" r="0.500000" /> 
</g>
<g style="fill:#000000; fill-opacity:1.000000; stroke:none;">
<circle cx="109.000000" cy="76.000000" r="0.500000" /> 
</g>
<g style="fill:#000000; fill-opacity:1.000000; stroke:none;">
<circle cx="98.000000" cy="82.000000" r="0.500000" /> 
</g>
<g style="fill:#000000; fill-opacity:1.000000; stroke:none;">
<circle cx="94.000000" cy="82.000000" r="0.500000" /> 
</g>
<g style="fill:#000000; fill-opacity:1.000000; stroke:none;">
<circle cx="109.000000" cy="73.000000" r="0.500000" /> 
</g>
<g style="fill:#000000; fill-opacity:1.000000; stroke:none;">
<circle cx="94.200000" cy="74.400000" r="0.500000" /> 
</g>
<g style="fill:#000000; fill-opacity:1.000000; stroke:none;">
<circle cx="105.000000" cy="82.000000" r="0.500000" /> 
</g>
<g style="fill:#000000; fill-opacity:1.000000; stroke:none;">
<circle cx="99.200000" cy="72.600000" r="0.500000" /> 
</g>
<g style="fill:#000000; fill-opacity:1.000000; stroke:none;">
<circle cx="106.900000" cy="74.000000" r="0.500000" /> 
</g>
<g style="fill:#000000; fill-opacity:1.000000; stroke:none;">
<circle cx="105.800000" cy="80.100000" r="0.500000" /> 
</g>
<g style="fill:#000000; fill-opacity:1.000000; stroke:none;">
<circle cx="103.400000" cy="73.100000" r="0.500000" /> 
</g>
<g style="fill:#000000; fill-opacity:1.000000; stroke:none;">
<circle cx="97.200000" cy="80.200000" r="0.500000" /> 
</g>
<g style="fill:none; 
stroke:#000000; stroke-width:0.200000; stroke-opacity:1; 
stroke-linecap:round; stroke-linejoin:round;">
<path d="M105.382500 74.470000
L105.210000 74.297500
" />
</g>
<g style="fill:none; 
stroke:#000000; stroke-width:0.300000; stroke-opacity:1; 
stroke-linecap:round; stroke-linejoin:round;">
<path d="M106.602500 74.297500
L106.900000 74.000000
" />
<path d="M105.210000 74.297500
L106.602500 74.297500
" />
<path d="M105.800000 80.100000
L105.951000 79.949000
" />
<path d="M105.951000 79.949000
L106.203784 79.949000
" />
<path d="M105.210000 76.910000
L105.210000 76.122500
" />
<path d="M106.700000 78.400000
L105.210000 76.910000
" />
<path d="M106.203784 79.949000
L106.700000 79.452784
" />
<path d="M106.700000 79.452784
L106.700000 78.400000
" />
<path d="M104.100000 79.100000
L104.100000 73.800000
" />
<path d="M103.000000 80.200000
L104.100000 79.100000
" />
<path d="M97.200000 80.200000
L103.000000 80.200000
" />
<path d="M104.100000 73.800000
L103.400000 73.100000
" />
<path style="fill:#000000; fill-opacity:1.000000; stroke:none;fill-rule:evenodd;"
d="M 110.467539,71.870185
110.513294,71.922989
110.524500,71.974500
110.524500,83.675500
110.504815,83.742539
110.452011,83.788294
110.400500,83.799500
92.724500,83.799500
92.657461,83.779815
92.611706,83.727011
92.600500,83.675500
92.600500,77.525321
92.949500,77.525321
92.949500,79.274678
92.964032,79.347735
92.964033,79.347739
92.964034,79.347740
93.019399,79.430601
93.090847,79.478340
93.102260,79.485966
93.102264,79.485967
93.175321,79.500499
93.175324,79.500500
93.175326,79.500500
94.924676,79.500500
94.924677,79.500499
94.997740,79.485966
95.080601,79.430601
95.135966,79.347740
95.150500,79.274674
95.150500,77.525326
95.150500,77.525323
95.150499,77.525321
95.135967,77.452264
95.135966,77.452260
95.080601,77.369399
94.997740,77.314034
94.997739,77.314033
94.997735,77.314032
94.924677,77.299500
94.924674,77.299500
93.175326,77.299500
93.175323,77.299500
93.102264,77.314032
93.102260,77.314033
93.019399,77.369399
92.964033,77.452260
92.964032,77.452264
92.949500,77.525321
92.600500,77.525321
92.600500,73.900000
95.950000,73.900000
95.950000,76.944500
103.574788,76.900718
103.641939,76.920017
103.687997,76.972558
103.699500,77.024716
103.699500,78.882745
103.679815,78.949784
103.663181,78.970426
102.870426,79.763181
102.809103,79.796666
102.782745,79.799500
97.901292,79.799500
97.834253,79.779815
97.798189,79.744389
97.782952,79.721585
97.782948,79.721580
97.678419,79.617051
97.678415,79.617048
97.555501,79.534919
97.555488,79.534912
97.418917,79.478343
97.418907,79.478340
97.273920,79.449500
97.273918,79.449500
97.126082,79.449500
97.126080,79.449500
96.981092,79.478340
96.981082,79.478343
96.844511,79.534912
96.844498,79.534919
96.721584,79.617048
96.721580,79.617051
96.617051,79.721580
96.617048,79.721584
96.534919,79.844498
96.534912,79.844511
96.478343,79.981082
96.478340,79.981092
96.449500,80.126079
96.449500,80.126082
96.449500,80.273918
96.449500,80.273920
96.449499,80.273920
96.478340,80.418907
96.478343,80.418917
96.534912,80.555488
96.534919,80.555501
96.617048,80.678415
96.617051,80.678419
96.721580,80.782948
96.721584,80.782951
96.844498,80.865080
96.844511,80.865087
96.981082,80.921656
96.981087,80.921658
96.981091,80.921658
96.981092,80.921659
97.126079,80.950500
97.126082,80.950500
97.273920,80.950500
97.371462,80.931096
97.418913,80.921658
97.555495,80.865084
97.678416,80.782951
97.782951,80.678416
97.798189,80.655611
97.851801,80.610805
97.901292,80.600500
103.052725,80.600500
103.052727,80.600500
103.154588,80.573207
103.245913,80.520480
104.420480,79.345913
104.473207,79.254588
104.500500,79.152727
104.500500,79.047273
104.500500,77.110967
104.520185,77.043928
104.572989,76.998173
104.642147,76.988229
104.664601,76.993630
104.677227,76.997945
104.688062,77.004495
104.782494,77.033921
104.784059,77.034456
104.811269,77.053673
104.838996,77.072145
104.840532,77.074341
104.841130,77.074763
104.841544,77.075786
104.851343,77.089789
104.889520,77.155913
104.889522,77.155915
106.263181,78.529574
106.296666,78.590897
106.299500,78.617255
106.299500,79.235527
106.290855,79.264967
106.284332,79.294954
106.280577,79.299969
106.279815,79.302566
106.263181,79.323208
106.211238,79.375151
106.149915,79.408636
106.080223,79.403652
106.076105,79.402031
106.018917,79.378343
106.018907,79.378340
105.873920,79.349500
105.873918,79.349500
105.726082,79.349500
105.726080,79.349500
105.581092,79.378340
105.581082,79.378343
105.444511,79.434912
105.444498,79.434919
105.321584,79.517048
105.321580,79.517051
105.217051,79.621580
105.217048,79.621584
105.134919,79.744498
105.134912,79.744511
105.078343,79.881082
105.078340,79.881092
105.049500,80.026079
105.049500,80.026082
105.049500,80.173918
105.049500,80.173920
105.049499,80.173920
105.078340,80.318907
105.078343,80.318917
105.134912,80.455488
105.134919,80.455501
105.217048,80.578415
105.217051,80.578419
105.321580,80.682948
105.321584,80.682951
105.444498,80.765080
105.444511,80.765087
105.581082,80.821656
105.581087,80.821658
105.581091,80.821658
105.581092,80.821659
105.726079,80.850500
105.726082,80.850500
105.873920,80.850500
105.971462,80.831096
106.018913,80.821658
106.155495,80.765084
106.278416,80.682951
106.382951,80.578416
106.465084,80.455495
106.521658,80.318913
106.544463,80.204266
106.576848,80.142356
106.578343,80.140833
107.020480,79.698697
107.058059,79.633608
107.073207,79.607371
107.100500,79.505511
107.100500,78.347273
107.073207,78.245413
107.073207,78.245412
107.020480,78.154087
106.391714,77.525321
107.899500,77.525321
107.899500,79.274678
107.914032,79.347735
107.914033,79.347739
107.914034,79.347740
107.969399,79.430601
108.040847,79.478340
108.052260,79.485966
108.052264,79.485967
108.125321,79.500499
108.125324,79.500500
108.125326,79.500500
109.874676,79.500500
109.874677,79.500499
109.947740,79.485966
110.030601,79.430601
110.085966,79.347740
110.100500,79.274674
110.100500,77.525326
110.100500,77.525323
110.100499,77.525321
110.085967,77.452264
110.085966,77.452260
110.030601,77.369399
109.947740,77.314034
109.947739,77.314033
109.947735,77.314032
109.874677,77.299500
109.874674,77.299500
108.125326,77.299500
108.125323,77.299500
108.052264,77.314032
108.052260,77.314033
107.969399,77.369399
107.914033,77.452260
107.914032,77.452264
107.899500,77.525321
106.391714,77.525321
105.917367,77.050974
105.883882,76.989651
105.888866,76.919959
105.917367,76.875612
105.919500,76.873479
105.993060,76.799919
106.079495,76.656938
106.129201,76.497426
106.135500,76.428107
106.135499,75.816894
106.135499,75.816885
106.129201,75.747576
106.129200,75.747571
106.079495,75.588062
106.079494,75.588060
105.993064,75.445086
105.993060,75.445081
105.874918,75.326939
105.874913,75.326935
105.857017,75.316117
105.809829,75.264590
105.797990,75.195730
105.825258,75.131402
105.857017,75.103883
105.874913,75.093064
105.874914,75.093062
105.874919,75.093060
105.993060,74.974919
106.079495,74.831938
106.082418,74.822556
106.094088,74.785110
106.132825,74.726962
106.196851,74.698988
106.212473,74.698000
106.549773,74.698000
106.599307,74.698000
106.646758,74.707438
106.681087,74.721658
106.681091,74.721658
106.681092,74.721659
106.826079,74.750500
106.826082,74.750500
106.973920,74.750500
107.071462,74.731096
107.118913,74.721658
107.255495,74.665084
107.378416,74.582951
107.482951,74.478416
107.565084,74.355495
107.621658,74.218913
107.650500,74.073918
107.650500,73.926082
107.650500,73.926079
107.621659,73.781092
107.621658,73.781091
107.621658,73.781087
107.614192,73.763062
107.565087,73.644511
107.565080,73.644498
107.482951,73.521584
107.482948,73.521580
107.378419,73.417051
107.378415,73.417048
107.255501,73.334919
107.255488,73.334912
107.118917,73.278343
107.118907,73.278340
106.973920,73.249500
106.973918,73.249500
106.826082,73.249500
106.826080,73.249500
106.681092,73.278340
106.681082,73.278343
106.544511,73.334912
106.544498,73.334919
106.421584,73.417048
106.421580,73.417051
106.317051,73.521580
106.317048,73.521584
106.234919,73.644498
106.232046,73.649875
106.230044,73.648805
106.192538,73.695317
106.126236,73.717360
106.058543,73.700059
106.015734,73.657588
105.993061,73.620082
105.874918,73.501939
105.874913,73.501935
105.731939,73.415505
105.731935,73.415503
105.572426,73.365799
105.572427,73.365799
105.555096,73.364224
105.503107,73.359500
105.503104,73.359500
104.916885,73.359500
104.847576,73.365798
104.847571,73.365799
104.688062,73.415504
104.688060,73.415505
104.545086,73.501935
104.545081,73.501939
104.544381,73.502640
104.543742,73.502988
104.539182,73.506562
104.538587,73.505802
104.536441,73.506974
104.531020,73.514217
104.506251,73.523455
104.483055,73.536119
104.474033,73.535473
104.465556,73.538635
104.439726,73.533016
104.413364,73.531129
104.404316,73.525314
104.397282,73.523784
104.369028,73.502634
104.345915,73.479522
104.179085,73.312692
104.145600,73.251369
104.145149,73.200818
104.150500,73.173918
104.150500,73.026079
104.121659,72.881092
104.121658,72.881091
104.121658,72.881087
104.121656,72.881082
104.065087,72.744511
104.065080,72.744498
103.982951,72.621584
103.982948,72.621580
103.878419,72.517051
103.878415,72.517048
103.755501,72.434919
103.755488,72.434912
103.618917,72.378343
103.618907,72.378340
103.473920,72.349500
103.473918,72.349500
103.326082,72.349500
103.326080,72.349500
103.181092,72.378340
103.181082,72.378343
103.044511,72.434912
103.044498,72.434919
102.921584,72.517048
102.921580,72.517051
102.817051,72.621580
102.817048,72.621584
102.734919,72.744498
102.734912,72.744511
102.678343,72.881082
102.678340,72.881092
102.649500,73.026079
102.649500,73.026082
102.649500,73.173918
102.649500,73.173920
102.649499,73.173920
102.678340,73.318907
102.678343,73.318917
102.734912,73.455488
102.734919,73.455501
102.817048,73.578415
102.817051,73.578419
102.921580,73.682948
102.921584,73.682951
103.044498,73.765080
103.044511,73.765087
103.181082,73.821656
103.181087,73.821658
103.181091,73.821658
103.181092,73.821659
103.326079,73.850500
103.326082,73.850500
103.473919,73.850500
103.500818,73.845149
103.508726,73.845856
103.516165,73.843082
103.543024,73.848924
103.570410,73.851375
103.578420,73.856625
103.584438,73.857934
103.612692,73.879085
103.663181,73.929574
103.696666,73.990897
103.699500,74.017255
103.699500,74.967424
103.679815,75.034463
103.627011,75.080218
103.567252,75.091149
102.541047,75.022736
102.517878,75.018965
98.245469,73.900000
98.245465,73.900000
95.950000,73.900000
92.600500,73.900000
92.600500,71.974500
92.620185,71.907461
92.672989,71.861706
92.724500,71.850500
110.400500,71.850500
Z" /> 
</g>
<g style="fill:#FFFFFF; fill-opacity:1.000000; stroke:none;">
<circle cx="109.000000" cy="82.000000" r="0.250000" /> 
</g>
<g style="fill:#FFFFFF; fill-opacity:1.000000; stroke:none;">
<circle cx="109.000000" cy="76.000000" r="0.250000" /> 
</g>
<g style="fill:#FFFFFF; fill-opacity:1.000000; stroke:none;">
<circle cx="98.000000" cy="82.000000" r="0.250000" /> 
</g>
<g style="fill:#FFFFFF; fill-opacity:1.000000; stroke:none;">
<circle cx="94.000000" cy="82.000000" r="0.250000" /> 
</g>
<g style="fill:#FFFFFF; fill-opacity:1.000000; stroke:none;">
<circle cx="109.000000" cy="73.000000" r="0.250000" /> 
</g>
<g style="fill:#FFFFFF; fill-opacity:1.000000; stroke:none;">
<circle cx="94.200000" cy="74.400000" r="0.250000" /> 
</g>
<g style="fill:#FFFFFF; fill-opacity:1.000000; stroke:none;">
<circle cx="105.000000" cy="82.000000" r="0.250000" /> 
</g>
<g style="fill:#FFFFFF; fill-opacity:1.000000; stroke:none;">
<circle cx="99.200000" cy="72.600000" r="0.250000" /> 
</g>
<g style="fill:#FFFFFF; fill-opacity:1.000000; stroke:none;">
<circle cx="106.900000" cy="74.000000" r="0.250000" /> 
</g>
<g style="fill:#FFFFFF; fill-opacity:1.000000; stroke:none;">
<circle cx="105.800000" cy="80.100000" r="0.250000" /> 
</g>
<g style="fill:#FFFFFF; fill-opacity:1.000000; stroke:none;">
<circle cx="103.400000" cy="73.100000" r="0.250000" /> 
</g>
<g style="fill:#FFFFFF; fill-opacity:1.000000; stroke:none;">
<circle cx="97.200000" cy="80.200000" r="0.250000" /> 
</g>
<g style="fill:#FFFFFF; fill-opacity:1.000000; stroke:none;">
<circle cx="94.050000" cy="78.400000" r="0.500000" /> 
</g>
<g style="fill:#FFFFFF; fill-opacity:1.000000; stroke:none;">
<circle cx="109.000000" cy="78.400000" r="0.500000" /> 
</g>
<g style="fill:#FFFFFF; fill-opacity:1.000000; stroke:none;">
<circle cx="101.220000" cy="81.610000" r="0.500000" /> 
</g> 
</svg>
