G04 #@! TF.GenerationSoftware,KiCad,Pcbnew,9.0.2*
G04 #@! TF.CreationDate,2025-08-01T14:32:08+08:00*
G04 #@! TF.ProjectId,STM32WB5MMG_Breakout_Board,53544d33-3257-4423-954d-4d475f427265,rev?*
G04 #@! TF.SameCoordinates,Original*
G04 #@! TF.FileFunction,Paste,Top*
G04 #@! TF.FilePolarity,Positive*
%FSLAX46Y46*%
G04 Gerber Fmt 4.6, Leading zero omitted, Abs format (unit mm)*
G04 Created by KiCad (PCBNEW 9.0.2) date 2025-08-01 14:32:08*
%MOMM*%
%LPD*%
G01*
G04 APERTURE LIST*
G04 Aperture macros list*
%AMRoundRect*
0 Rectangle with rounded corners*
0 $1 Rounding radius*
0 $2 $3 $4 $5 $6 $7 $8 $9 X,Y pos of 4 corners*
0 Add a 4 corners polygon primitive as box body*
4,1,4,$2,$3,$4,$5,$6,$7,$8,$9,$2,$3,0*
0 Add four circle primitives for the rounded corners*
1,1,$1+$1,$2,$3*
1,1,$1+$1,$4,$5*
1,1,$1+$1,$6,$7*
1,1,$1+$1,$8,$9*
0 Add four rect primitives between the rounded corners*
20,1,$1+$1,$2,$3,$4,$5,0*
20,1,$1+$1,$4,$5,$6,$7,0*
20,1,$1+$1,$6,$7,$8,$9,0*
20,1,$1+$1,$8,$9,$2,$3,0*%
G04 Aperture macros list end*
%ADD10R,0.350000X0.350000*%
%ADD11R,0.350000X0.300000*%
%ADD12R,0.300000X0.350000*%
%ADD13R,0.600000X0.600000*%
%ADD14R,0.430000X0.430000*%
%ADD15RoundRect,0.079500X-0.079500X-0.100500X0.079500X-0.100500X0.079500X0.100500X-0.079500X0.100500X0*%
%ADD16RoundRect,0.225000X-0.225000X-0.250000X0.225000X-0.250000X0.225000X0.250000X-0.225000X0.250000X0*%
G04 APERTURE END LIST*
D10*
X139475000Y-78125000D03*
D11*
X139475000Y-78600000D03*
X139475000Y-79050000D03*
X139475000Y-79500000D03*
X139475000Y-79950000D03*
X139475000Y-80400000D03*
X139475000Y-80850000D03*
X139475000Y-81300000D03*
X139475000Y-81750000D03*
X139475000Y-82200000D03*
X139475000Y-82650000D03*
X139475000Y-83100000D03*
X139475000Y-83550000D03*
X139475000Y-84000000D03*
X139475000Y-84450000D03*
X139475000Y-84900000D03*
D10*
X139475000Y-85375000D03*
D12*
X139950000Y-85375000D03*
X140400000Y-85375000D03*
X140850000Y-85375000D03*
X141300000Y-85375000D03*
X141750000Y-85375000D03*
X142200000Y-85375000D03*
X142650000Y-85375000D03*
X143100000Y-85375000D03*
X143550000Y-85375000D03*
X144000000Y-85375000D03*
X144450000Y-85375000D03*
X144900000Y-85375000D03*
X145350000Y-85375000D03*
D10*
X145825000Y-85375000D03*
D11*
X145825000Y-84900000D03*
X145825000Y-84450000D03*
X145825000Y-84000000D03*
X145825000Y-83550000D03*
X145825000Y-83100000D03*
X145825000Y-82650000D03*
X145825000Y-82200000D03*
X145825000Y-81750000D03*
X145825000Y-81300000D03*
X145825000Y-80850000D03*
X145825000Y-80400000D03*
X145825000Y-79950000D03*
X145825000Y-79500000D03*
X145825000Y-79050000D03*
X145825000Y-78600000D03*
D10*
X145825000Y-78125000D03*
D12*
X145350000Y-78125000D03*
X144900000Y-78125000D03*
X144450000Y-78125000D03*
X144000000Y-78125000D03*
X143550000Y-78125000D03*
X143100000Y-78125000D03*
X142650000Y-78125000D03*
X142200000Y-78125000D03*
X141750000Y-78125000D03*
X141300000Y-78125000D03*
X140850000Y-78125000D03*
X140400000Y-78125000D03*
X139950000Y-78125000D03*
D13*
X141300000Y-79500000D03*
X141300000Y-80400000D03*
X141300000Y-81300000D03*
X141300000Y-82200000D03*
X141300000Y-83100000D03*
X141300000Y-84000000D03*
X142200000Y-84000000D03*
X143100000Y-84000000D03*
X144000000Y-84000000D03*
X144000000Y-83100000D03*
X144000000Y-82200000D03*
X144000000Y-81300000D03*
X144000000Y-80400000D03*
X144000000Y-79500000D03*
X143100000Y-79500000D03*
X142200000Y-79500000D03*
X142200000Y-80400000D03*
X142200000Y-81300000D03*
X142200000Y-82200000D03*
X142200000Y-83100000D03*
X143100000Y-83100000D03*
X143100000Y-82200000D03*
X143100000Y-81300000D03*
X143100000Y-80400000D03*
D14*
X139600000Y-75165000D03*
X145700000Y-75165000D03*
D15*
X138655000Y-86700000D03*
X139345000Y-86700000D03*
D16*
X138405000Y-88020000D03*
X139955000Y-88020000D03*
M02*
