%TF.GenerationSoftware,KiCad,Pcbnew,9.0.2*%
%TF.CreationDate,2025-08-01T14:32:07+08:00*%
%TF.ProjectId,STM32WB5MMG_Breakout_Board,53544d33-3257-4423-954d-4d475f427265,rev?*%
%TF.SameCoordinates,Original*%
%TF.FileFunction,Drillmap*%
%TF.FilePolarity,Positive*%
%FSLAX45Y45*%
G04 Gerber Fmt 4.5, Leading zero omitted, Abs format (unit mm)*
G04 Created by KiCad (PCBNEW 9.0.2) date 2025-08-01 14:32:07*
%MOMM*%
%LPD*%
G01*
G04 APERTURE LIST*
%ADD10C,0.038100*%
%ADD11C,0.200000*%
G04 APERTURE END LIST*
D10*
X13900000Y-7310000D02*
X13720000Y-7310000D01*
X13770000Y-12850000D02*
X16770000Y-12850000D01*
X13720000Y-7310000D02*
X13720000Y-7780000D01*
X13770000Y-12850000D02*
X13720000Y-12850000D01*
X13900000Y-7310000D02*
X16770000Y-7310000D01*
X16770000Y-12850000D02*
X16770000Y-7370000D01*
X13720000Y-7780000D02*
X13720000Y-12850000D01*
X16770000Y-7310000D02*
X16770000Y-7370000D01*
D11*
X13978872Y-13163389D02*
X13978872Y-12963389D01*
X13978872Y-12963389D02*
X14026491Y-12963389D01*
X14026491Y-12963389D02*
X14055062Y-12972913D01*
X14055062Y-12972913D02*
X14074110Y-12991960D01*
X14074110Y-12991960D02*
X14083634Y-13011008D01*
X14083634Y-13011008D02*
X14093157Y-13049103D01*
X14093157Y-13049103D02*
X14093157Y-13077674D01*
X14093157Y-13077674D02*
X14083634Y-13115770D01*
X14083634Y-13115770D02*
X14074110Y-13134817D01*
X14074110Y-13134817D02*
X14055062Y-13153865D01*
X14055062Y-13153865D02*
X14026491Y-13163389D01*
X14026491Y-13163389D02*
X13978872Y-13163389D01*
X14178872Y-13163389D02*
X14178872Y-13030055D01*
X14178872Y-13068151D02*
X14188396Y-13049103D01*
X14188396Y-13049103D02*
X14197919Y-13039579D01*
X14197919Y-13039579D02*
X14216967Y-13030055D01*
X14216967Y-13030055D02*
X14236015Y-13030055D01*
X14302681Y-13163389D02*
X14302681Y-13030055D01*
X14302681Y-12963389D02*
X14293157Y-12972913D01*
X14293157Y-12972913D02*
X14302681Y-12982436D01*
X14302681Y-12982436D02*
X14312205Y-12972913D01*
X14312205Y-12972913D02*
X14302681Y-12963389D01*
X14302681Y-12963389D02*
X14302681Y-12982436D01*
X14426491Y-13163389D02*
X14407443Y-13153865D01*
X14407443Y-13153865D02*
X14397919Y-13134817D01*
X14397919Y-13134817D02*
X14397919Y-12963389D01*
X14531253Y-13163389D02*
X14512205Y-13153865D01*
X14512205Y-13153865D02*
X14502681Y-13134817D01*
X14502681Y-13134817D02*
X14502681Y-12963389D01*
X14759824Y-13163389D02*
X14759824Y-12963389D01*
X14759824Y-12963389D02*
X14826491Y-13106246D01*
X14826491Y-13106246D02*
X14893157Y-12963389D01*
X14893157Y-12963389D02*
X14893157Y-13163389D01*
X15074110Y-13163389D02*
X15074110Y-13058627D01*
X15074110Y-13058627D02*
X15064586Y-13039579D01*
X15064586Y-13039579D02*
X15045538Y-13030055D01*
X15045538Y-13030055D02*
X15007443Y-13030055D01*
X15007443Y-13030055D02*
X14988396Y-13039579D01*
X15074110Y-13153865D02*
X15055062Y-13163389D01*
X15055062Y-13163389D02*
X15007443Y-13163389D01*
X15007443Y-13163389D02*
X14988396Y-13153865D01*
X14988396Y-13153865D02*
X14978872Y-13134817D01*
X14978872Y-13134817D02*
X14978872Y-13115770D01*
X14978872Y-13115770D02*
X14988396Y-13096722D01*
X14988396Y-13096722D02*
X15007443Y-13087198D01*
X15007443Y-13087198D02*
X15055062Y-13087198D01*
X15055062Y-13087198D02*
X15074110Y-13077674D01*
X15169348Y-13030055D02*
X15169348Y-13230055D01*
X15169348Y-13039579D02*
X15188396Y-13030055D01*
X15188396Y-13030055D02*
X15226491Y-13030055D01*
X15226491Y-13030055D02*
X15245538Y-13039579D01*
X15245538Y-13039579D02*
X15255062Y-13049103D01*
X15255062Y-13049103D02*
X15264586Y-13068151D01*
X15264586Y-13068151D02*
X15264586Y-13125293D01*
X15264586Y-13125293D02*
X15255062Y-13144341D01*
X15255062Y-13144341D02*
X15245538Y-13153865D01*
X15245538Y-13153865D02*
X15226491Y-13163389D01*
X15226491Y-13163389D02*
X15188396Y-13163389D01*
X15188396Y-13163389D02*
X15169348Y-13153865D01*
X15350300Y-13144341D02*
X15359824Y-13153865D01*
X15359824Y-13153865D02*
X15350300Y-13163389D01*
X15350300Y-13163389D02*
X15340777Y-13153865D01*
X15340777Y-13153865D02*
X15350300Y-13144341D01*
X15350300Y-13144341D02*
X15350300Y-13163389D01*
X15350300Y-13039579D02*
X15359824Y-13049103D01*
X15359824Y-13049103D02*
X15350300Y-13058627D01*
X15350300Y-13058627D02*
X15340777Y-13049103D01*
X15340777Y-13049103D02*
X15350300Y-13039579D01*
X15350300Y-13039579D02*
X15350300Y-13058627D01*
M02*
