G04 #@! TF.GenerationSoftware,KiCad,Pcbnew,9.0.2*
G04 #@! TF.CreationDate,2025-08-01T14:32:08+08:00*
G04 #@! TF.ProjectId,STM32WB5MMG_Breakout_Board,53544d33-3257-4423-954d-4d475f427265,rev?*
G04 #@! TF.SameCoordinates,Original*
G04 #@! TF.FileFunction,Copper,L2,Bot*
G04 #@! TF.FilePolarity,Positive*
%FSLAX46Y46*%
G04 Gerber Fmt 4.6, Leading zero omitted, Abs format (unit mm)*
G04 Created by KiCad (PCBNEW 9.0.2) date 2025-08-01 14:32:08*
%MOMM*%
%LPD*%
G01*
G04 APERTURE LIST*
G04 Aperture macros list*
%AMRoundRect*
0 Rectangle with rounded corners*
0 $1 Rounding radius*
0 $2 $3 $4 $5 $6 $7 $8 $9 X,Y pos of 4 corners*
0 Add a 4 corners polygon primitive as box body*
4,1,4,$2,$3,$4,$5,$6,$7,$8,$9,$2,$3,0*
0 Add four circle primitives for the rounded corners*
1,1,$1+$1,$2,$3*
1,1,$1+$1,$4,$5*
1,1,$1+$1,$6,$7*
1,1,$1+$1,$8,$9*
0 Add four rect primitives between the rounded corners*
20,1,$1+$1,$2,$3,$4,$5,0*
20,1,$1+$1,$4,$5,$6,$7,0*
20,1,$1+$1,$6,$7,$8,$9,0*
20,1,$1+$1,$8,$9,$2,$3,0*%
G04 Aperture macros list end*
G04 #@! TA.AperFunction,ComponentPad*
%ADD10R,1.700000X1.700000*%
G04 #@! TD*
G04 #@! TA.AperFunction,ComponentPad*
%ADD11C,1.700000*%
G04 #@! TD*
G04 #@! TA.AperFunction,SMDPad,CuDef*
%ADD12RoundRect,0.100000X0.130000X0.100000X-0.130000X0.100000X-0.130000X-0.100000X0.130000X-0.100000X0*%
G04 #@! TD*
G04 #@! TA.AperFunction,SMDPad,CuDef*
%ADD13RoundRect,0.100000X-0.130000X-0.100000X0.130000X-0.100000X0.130000X0.100000X-0.130000X0.100000X0*%
G04 #@! TD*
G04 #@! TA.AperFunction,SMDPad,CuDef*
%ADD14RoundRect,0.225000X-0.250000X0.225000X-0.250000X-0.225000X0.250000X-0.225000X0.250000X0.225000X0*%
G04 #@! TD*
G04 #@! TA.AperFunction,ViaPad*
%ADD15C,0.600000*%
G04 #@! TD*
G04 #@! TA.AperFunction,ViaPad*
%ADD16C,0.450000*%
G04 #@! TD*
G04 #@! TA.AperFunction,Conductor*
%ADD17C,0.160000*%
G04 #@! TD*
G04 #@! TA.AperFunction,Conductor*
%ADD18C,0.150000*%
G04 #@! TD*
G04 #@! TA.AperFunction,Conductor*
%ADD19C,0.200000*%
G04 #@! TD*
G04 #@! TA.AperFunction,Conductor*
%ADD20C,0.120000*%
G04 #@! TD*
G04 #@! TA.AperFunction,Conductor*
%ADD21C,0.127000*%
G04 #@! TD*
G04 APERTURE END LIST*
D10*
X161400000Y-108160000D03*
D11*
X161400000Y-110700000D03*
D10*
X153200000Y-110200000D03*
X144700000Y-116140000D03*
D11*
X144700000Y-118680000D03*
X144700000Y-121220000D03*
X144700000Y-123760000D03*
X144700000Y-126300000D03*
D10*
X140500000Y-125900000D03*
D11*
X140500000Y-123360000D03*
X140500000Y-120820000D03*
X140500000Y-118280000D03*
X140500000Y-115740000D03*
X140500000Y-113200000D03*
X140500000Y-110660000D03*
X140500000Y-108120000D03*
X140500000Y-105580000D03*
X140500000Y-103040000D03*
X140500000Y-100500000D03*
X140500000Y-97960000D03*
X140500000Y-95420000D03*
X140500000Y-92880000D03*
X140500000Y-90340000D03*
D10*
X165430000Y-125900000D03*
D11*
X165430000Y-123360000D03*
X165430000Y-120820000D03*
X165430000Y-118280000D03*
X165430000Y-115740000D03*
X165430000Y-113200000D03*
X165430000Y-110660000D03*
X165430000Y-108120000D03*
X165430000Y-105580000D03*
X165430000Y-103040000D03*
X165430000Y-100500000D03*
X165430000Y-97960000D03*
X165430000Y-95420000D03*
X165430000Y-92880000D03*
X165430000Y-90340000D03*
D12*
X148090000Y-78170000D03*
X147450000Y-78170000D03*
D10*
X157300000Y-125910000D03*
D11*
X157300000Y-123370000D03*
X157300000Y-120830000D03*
X157300000Y-118290000D03*
X157300000Y-115750000D03*
X157300000Y-113210000D03*
X157300000Y-110670000D03*
X157300000Y-108130000D03*
X157300000Y-105590000D03*
X157300000Y-103050000D03*
D13*
X147870000Y-79230000D03*
X148510000Y-79230000D03*
D14*
X151500000Y-123445000D03*
X151500000Y-124995000D03*
D10*
X149000000Y-125910000D03*
D11*
X149000000Y-123370000D03*
X149000000Y-120830000D03*
X149000000Y-118290000D03*
X149000000Y-115750000D03*
X149000000Y-113210000D03*
X149000000Y-110670000D03*
X149000000Y-108130000D03*
X149000000Y-105590000D03*
X149000000Y-103050000D03*
X149000000Y-100510000D03*
D15*
X146000000Y-108000000D03*
X148000000Y-101800000D03*
X158000000Y-92500000D03*
X151000000Y-76500000D03*
X163000000Y-74500000D03*
X161000000Y-84500000D03*
X147000000Y-109000000D03*
X142600000Y-122400000D03*
X155000000Y-80500000D03*
X145000000Y-82300000D03*
X153000000Y-78500000D03*
X159000000Y-74500000D03*
X146000000Y-105600000D03*
X142600000Y-118800000D03*
X160000000Y-98500000D03*
X150050000Y-80450000D03*
X154000000Y-86500000D03*
X162000000Y-127500000D03*
X150000000Y-92500000D03*
X156000000Y-94500000D03*
X148000000Y-86500000D03*
X152000000Y-88500000D03*
X147000000Y-104800000D03*
X165000000Y-86500000D03*
X144800000Y-111600000D03*
X164000000Y-125500000D03*
X155000000Y-124500000D03*
X160000000Y-127500000D03*
X156000000Y-90500000D03*
X155000000Y-76500000D03*
X154000000Y-119500000D03*
X159000000Y-80500000D03*
X160800000Y-117200000D03*
X161000000Y-76500000D03*
X160000000Y-102500000D03*
X164000000Y-123500000D03*
X160000000Y-104500000D03*
X156000000Y-96500000D03*
X146000000Y-110000000D03*
X161000000Y-82500000D03*
X165000000Y-82500000D03*
X146000000Y-104000000D03*
X154000000Y-100500000D03*
X160000000Y-123500000D03*
X152000000Y-86500000D03*
X160000000Y-96500000D03*
X147000000Y-101000000D03*
X145800000Y-101000000D03*
X153000000Y-80500000D03*
X152000000Y-117500000D03*
X163000000Y-82500000D03*
X162000000Y-121500000D03*
X153000000Y-76500000D03*
X152000000Y-92500000D03*
X160000000Y-100500000D03*
X145000000Y-83800000D03*
X165000000Y-78500000D03*
X161000000Y-100500000D03*
X150000000Y-94500000D03*
X157500000Y-89000000D03*
X161000000Y-104500000D03*
X165000000Y-76500000D03*
X152000000Y-120500000D03*
X158000000Y-90500000D03*
X157000000Y-76500000D03*
X157000000Y-74500000D03*
X162400000Y-115000000D03*
X142600000Y-126800000D03*
X165000000Y-74500000D03*
X155000000Y-74500000D03*
X161000000Y-115600000D03*
X152000000Y-94500000D03*
X150000000Y-88500000D03*
X152000000Y-96500000D03*
X150000000Y-86500000D03*
X165000000Y-84500000D03*
X153000000Y-74500000D03*
X146000000Y-112000000D03*
X154000000Y-96500000D03*
X149000000Y-74500000D03*
X162500000Y-113000000D03*
X161000000Y-74500000D03*
X148000000Y-88500000D03*
X160000000Y-94500000D03*
X162000000Y-125500000D03*
X163000000Y-86500000D03*
X156000000Y-120500000D03*
X160000000Y-121500000D03*
X159800000Y-115000000D03*
X158000000Y-98500000D03*
X155000000Y-78500000D03*
X156000000Y-117500000D03*
X161000000Y-102500000D03*
X157000000Y-78500000D03*
X162000000Y-123500000D03*
X147000000Y-102400000D03*
X145800000Y-102400000D03*
X153000000Y-126500000D03*
X163000000Y-76500000D03*
X148000000Y-90500000D03*
X162400000Y-116400000D03*
X142600000Y-124000000D03*
X145800000Y-99600000D03*
X154000000Y-116500000D03*
X156000000Y-98500000D03*
X160000000Y-90500000D03*
X159800000Y-113500000D03*
X160000000Y-92500000D03*
X153000000Y-124500000D03*
X154000000Y-92500000D03*
X161600000Y-114200000D03*
X148000000Y-92500000D03*
X154000000Y-88500000D03*
X159000000Y-76500000D03*
X158000000Y-94500000D03*
X165000000Y-80500000D03*
X142600000Y-125600000D03*
X160000000Y-125500000D03*
X160000000Y-119500000D03*
X163200000Y-117400000D03*
X163000000Y-80500000D03*
X162000000Y-117800000D03*
X147000000Y-111000000D03*
X159000000Y-78500000D03*
X158000000Y-100500000D03*
X151000000Y-74500000D03*
X142600000Y-120600000D03*
X156000000Y-100500000D03*
X161000000Y-80500000D03*
X164000000Y-127500000D03*
X154000000Y-98500000D03*
X154000000Y-94500000D03*
X155000000Y-122500000D03*
X152000000Y-90500000D03*
X165000000Y-88500000D03*
X153000000Y-122500000D03*
X149000000Y-76500000D03*
X154000000Y-90500000D03*
X151000000Y-78500000D03*
X158000000Y-96500000D03*
X157000000Y-80500000D03*
X161000000Y-98500000D03*
X163000000Y-118800000D03*
X150000000Y-90500000D03*
X155000000Y-126500000D03*
X144800000Y-112600000D03*
X161000000Y-78500000D03*
X148000000Y-94500000D03*
X156000000Y-87500000D03*
X156000000Y-92500000D03*
X159000000Y-82500000D03*
X161000000Y-96500000D03*
X163000000Y-84500000D03*
X145000000Y-80800000D03*
X163000000Y-78500000D03*
X161000000Y-113000000D03*
X156000000Y-89000000D03*
D16*
X138490000Y-82490000D03*
X146692680Y-78707320D03*
X146800000Y-78140000D03*
X139900000Y-88020000D03*
X138875000Y-80675000D03*
D15*
X138800000Y-92200000D03*
X138862000Y-93600000D03*
D16*
X140182664Y-82650000D03*
X138800000Y-78000000D03*
X140365000Y-80765000D03*
X140020000Y-82020000D03*
X138860000Y-78660000D03*
X139880000Y-84000000D03*
X140060000Y-83250000D03*
X140385000Y-79215000D03*
X140400000Y-81420000D03*
X141860421Y-78850233D03*
X145203888Y-79369384D03*
X144651999Y-79537760D03*
X144188000Y-78848000D03*
X143047885Y-78804988D03*
X145300000Y-78800000D03*
X142471141Y-78822170D03*
X141280000Y-78847998D03*
X143588000Y-78600000D03*
X147000000Y-79760000D03*
X147400000Y-80400000D03*
X147600000Y-85090000D03*
X146895000Y-83705000D03*
X147859591Y-83040409D03*
X147600000Y-81550000D03*
X147200000Y-82060000D03*
X146520000Y-82180000D03*
X146590000Y-80790000D03*
X147580000Y-85820000D03*
X147470000Y-83500000D03*
X148767564Y-80232436D03*
D17*
X140466000Y-88394000D02*
X139369000Y-89491000D01*
X141060000Y-99240000D02*
X141870000Y-100050000D01*
X151415000Y-123360000D02*
X151500000Y-123445000D01*
X144700000Y-123760000D02*
X146160000Y-122300000D01*
X139369000Y-98706476D02*
X139902524Y-99240000D01*
X145680000Y-114740000D02*
X146160000Y-115220000D01*
X146160000Y-115220000D02*
X146160000Y-122280000D01*
X140037664Y-87380000D02*
X140466000Y-87808336D01*
X139902524Y-99240000D02*
X141060000Y-99240000D01*
X143470000Y-114740000D02*
X145680000Y-114740000D01*
X138390000Y-87380000D02*
X140037664Y-87380000D01*
X140466000Y-87808336D02*
X140466000Y-88394000D01*
X141870000Y-100050000D02*
X141870000Y-113140000D01*
X138218000Y-82762000D02*
X138218000Y-87208000D01*
X139369000Y-89491000D02*
X139369000Y-98706476D01*
X138440000Y-82540000D02*
X138218000Y-82762000D01*
X147240000Y-123360000D02*
X149000000Y-123360000D01*
X138218000Y-87208000D02*
X138390000Y-87380000D01*
X141870000Y-113140000D02*
X143470000Y-114740000D01*
X149000000Y-123360000D02*
X151415000Y-123360000D01*
X146160000Y-122280000D02*
X147240000Y-123360000D01*
X146160000Y-122300000D02*
X146160000Y-122280000D01*
X149311000Y-80904530D02*
X150790470Y-82384000D01*
X164000000Y-89290000D02*
X164000000Y-91450000D01*
X149311000Y-80048336D02*
X149311000Y-80904530D01*
X147870000Y-79230000D02*
X147870000Y-79361586D01*
X146631863Y-78646503D02*
X146692680Y-78707320D01*
X146915360Y-78930000D02*
X147570000Y-78930000D01*
X148973664Y-79711000D02*
X149311000Y-80048336D01*
X147870000Y-79361586D02*
X148219414Y-79711000D01*
X150790470Y-82384000D02*
X157094000Y-82384000D01*
X157094000Y-82384000D02*
X164000000Y-89290000D01*
X164000000Y-91450000D02*
X165430000Y-92880000D01*
X148219414Y-79711000D02*
X148973664Y-79711000D01*
X146692680Y-78707320D02*
X146915360Y-78930000D01*
X147570000Y-78930000D02*
X147870000Y-79230000D01*
D18*
X150170000Y-78660000D02*
X150810000Y-79300000D01*
X147768414Y-78660000D02*
X150170000Y-78660000D01*
X150810000Y-81570000D02*
X151341000Y-82101000D01*
X151341000Y-82101000D02*
X157211000Y-82101000D01*
X147390000Y-78281586D02*
X147768414Y-78660000D01*
X150810000Y-79300000D02*
X150810000Y-81570000D01*
X157216000Y-82096000D02*
X165430000Y-90310000D01*
X165430000Y-90310000D02*
X165430000Y-90340000D01*
X147380000Y-78140000D02*
X147390000Y-78150000D01*
X146800000Y-78140000D02*
X147380000Y-78140000D01*
D17*
X165072294Y-90867706D02*
X165620000Y-90320000D01*
X146770000Y-78140000D02*
X146800000Y-78140000D01*
D18*
X157211000Y-82101000D02*
X157216000Y-82096000D01*
X147390000Y-78150000D02*
X147390000Y-78281586D01*
D17*
X139900000Y-88020000D02*
X139955000Y-88020000D01*
X138970000Y-80580000D02*
X138875000Y-80675000D01*
D19*
X138862000Y-93600000D02*
X138862000Y-92262000D01*
X138862000Y-92262000D02*
X138800000Y-92200000D01*
D17*
X137930000Y-87610000D02*
X138340000Y-88020000D01*
X138970000Y-80580000D02*
X138970000Y-80610000D01*
X137930000Y-81620000D02*
X137930000Y-87610000D01*
X138340000Y-88020000D02*
X139900000Y-88020000D01*
X138875000Y-80675000D02*
X137930000Y-81620000D01*
D19*
X138752000Y-126308000D02*
X138752000Y-102248000D01*
X138752000Y-102248000D02*
X140500000Y-100500000D01*
X143480000Y-127520000D02*
X139964000Y-127520000D01*
X144700000Y-126300000D02*
X143480000Y-127520000D01*
X139964000Y-127520000D02*
X138752000Y-126308000D01*
D17*
X144700000Y-116140000D02*
X143440000Y-116140000D01*
X144700000Y-116140000D02*
X144690000Y-116130000D01*
X143440000Y-116140000D02*
X140500000Y-113200000D01*
D19*
X143470000Y-118660000D02*
X141830000Y-117020000D01*
X141830000Y-117020000D02*
X139750000Y-117020000D01*
X139750000Y-117020000D02*
X139080000Y-116350000D01*
X139080000Y-112080000D02*
X140500000Y-110660000D01*
X139080000Y-116350000D02*
X139080000Y-112080000D01*
D17*
X139960000Y-110660000D02*
X140500000Y-110660000D01*
D19*
X143470000Y-119990000D02*
X143470000Y-118660000D01*
X144700000Y-121220000D02*
X143470000Y-119990000D01*
D17*
X147670000Y-106790000D02*
X149000000Y-108120000D01*
X143610000Y-106250000D02*
X144150000Y-106790000D01*
X140571000Y-83038336D02*
X140571000Y-85461824D01*
X140180000Y-82650000D02*
X140182664Y-82650000D01*
X144150000Y-106790000D02*
X147670000Y-106790000D01*
X143610000Y-88500824D02*
X143610000Y-106250000D01*
X140182664Y-82650000D02*
X140571000Y-83038336D01*
X140571000Y-85461824D02*
X143610000Y-88500824D01*
D18*
X138800000Y-78000000D02*
X138432000Y-78368000D01*
X140156958Y-87092000D02*
X142158001Y-89093043D01*
X142158001Y-89093043D02*
X142158000Y-113020706D01*
X138951000Y-82328336D02*
X138951000Y-82775000D01*
X138432000Y-79252000D02*
X139550000Y-80370000D01*
X138432000Y-78368000D02*
X138432000Y-79252000D01*
D17*
X138880000Y-78000000D02*
X138800000Y-78000000D01*
D18*
X138968000Y-87092000D02*
X140156958Y-87092000D01*
X147270000Y-120820000D02*
X149000000Y-120820000D01*
X138951000Y-82775000D02*
X138506000Y-83220000D01*
X138950000Y-82327336D02*
X138951000Y-82328336D01*
X139550000Y-80750000D02*
X138950000Y-81350000D01*
X146450000Y-115102706D02*
X146450000Y-120000000D01*
X138506000Y-86630000D02*
X138968000Y-87092000D01*
X139550000Y-80370000D02*
X139550000Y-80750000D01*
X138950000Y-81350000D02*
X138950000Y-82327336D01*
X142158000Y-113020706D02*
X143589294Y-114452000D01*
X138506000Y-83220000D02*
X138506000Y-86630000D01*
X146450000Y-120000000D02*
X147270000Y-120820000D01*
X143589294Y-114452000D02*
X145799294Y-114452000D01*
X145799294Y-114452000D02*
X146450000Y-115102706D01*
D17*
X144190000Y-101630000D02*
X145600000Y-103040000D01*
X141147002Y-81437002D02*
X141147001Y-85223237D01*
X140420000Y-80710000D02*
X141147002Y-81437002D01*
X144190000Y-88266236D02*
X144190000Y-101630000D01*
X141147001Y-85223237D02*
X144190000Y-88266236D01*
X145600000Y-103040000D02*
X149000000Y-103040000D01*
X140403294Y-86516000D02*
X142740000Y-88852706D01*
X140020000Y-82020000D02*
X139527001Y-82512999D01*
X143827882Y-113876000D02*
X146046000Y-113876000D01*
X142740000Y-88852706D02*
X142740000Y-88980000D01*
X139527001Y-82512999D02*
X139527001Y-83020293D01*
X139082000Y-86391412D02*
X139206588Y-86516000D01*
X148080000Y-114820000D02*
X149000000Y-115740000D01*
X139527001Y-83020293D02*
X139082000Y-83465294D01*
X142738000Y-112786118D02*
X143827882Y-113876000D01*
X142740000Y-88980000D02*
X142738000Y-88982000D01*
X146046000Y-113876000D02*
X146990000Y-114820000D01*
X139206588Y-86516000D02*
X140403294Y-86516000D01*
X142738000Y-88982000D02*
X142738000Y-112786118D01*
X146990000Y-114820000D02*
X148080000Y-114820000D01*
X139082000Y-83465294D02*
X139082000Y-86391412D01*
X139838001Y-80841999D02*
X139838001Y-80869293D01*
X138794000Y-83346000D02*
X138794000Y-86510706D01*
X139239001Y-81468293D02*
X139239001Y-82900999D01*
X142446000Y-112901412D02*
X143708588Y-114164000D01*
X142450000Y-90790000D02*
X142446001Y-90793999D01*
X139840000Y-80252706D02*
X139840000Y-80840000D01*
X139840000Y-80840000D02*
X139838001Y-80841999D01*
X138850000Y-79262706D02*
X139840000Y-80252706D01*
X138850000Y-78670000D02*
X138850000Y-79262706D01*
X139087294Y-86804000D02*
X140284000Y-86804000D01*
X142450000Y-88970000D02*
X142450000Y-90790000D01*
X145918588Y-114164000D02*
X146738001Y-114983413D01*
X142446001Y-90793999D02*
X142446000Y-112901412D01*
X138794000Y-86510706D02*
X139087294Y-86804000D01*
X139239001Y-82900999D02*
X138794000Y-83346000D01*
X139838001Y-80869293D02*
X139239001Y-81468293D01*
X140284000Y-86804000D02*
X142450000Y-88970000D01*
X147520000Y-118280000D02*
X149000000Y-118280000D01*
X146738001Y-114983413D02*
X146738000Y-117498000D01*
X146738000Y-117498000D02*
X147520000Y-118280000D01*
X143708588Y-114164000D02*
X145918588Y-114164000D01*
X146360000Y-113300000D02*
X149000000Y-110660000D01*
X143320000Y-112553530D02*
X144066470Y-113300000D01*
X143320000Y-88618118D02*
X143320000Y-112553530D01*
X144066470Y-113300000D02*
X146360000Y-113300000D01*
X139658000Y-84222000D02*
X139658000Y-85630706D01*
X139967294Y-85940000D02*
X140641882Y-85940000D01*
X139880000Y-84000000D02*
X139658000Y-84222000D01*
X140641882Y-85940000D02*
X143320000Y-88618118D01*
X139658000Y-85630706D02*
X139967294Y-85940000D01*
X143947176Y-113588000D02*
X147632000Y-113588000D01*
X143028001Y-88733413D02*
X143028001Y-93837999D01*
X147632000Y-113588000D02*
X148020000Y-113200000D01*
X139704588Y-83250000D02*
X139370000Y-83584588D01*
X139370000Y-85750000D02*
X139848000Y-86228000D01*
X140060000Y-83250000D02*
X139704588Y-83250000D01*
X139848000Y-86228000D02*
X140522588Y-86228000D01*
X143026000Y-93840000D02*
X143026000Y-112666824D01*
X148020000Y-113200000D02*
X149000000Y-113200000D01*
X143026000Y-112666824D02*
X143947176Y-113588000D01*
X139370000Y-83584588D02*
X139370000Y-85750000D01*
X140522588Y-86228000D02*
X143028001Y-88733413D01*
X143028001Y-93837999D02*
X143026000Y-93840000D01*
D18*
X141440000Y-85108942D02*
X144482000Y-88150942D01*
X147507939Y-100500000D02*
X149000000Y-100500000D01*
X144482000Y-97474061D02*
X147507939Y-100500000D01*
X140420000Y-79250000D02*
X141440000Y-80270000D01*
X144482000Y-88150942D02*
X144482000Y-97474061D01*
X141440000Y-80270000D02*
X141440000Y-85108942D01*
D17*
X143900000Y-106132706D02*
X144269294Y-106502000D01*
X140859001Y-85342531D02*
X143900000Y-88383530D01*
X144269294Y-106502000D02*
X148078001Y-106501999D01*
X143900000Y-88383530D02*
X143900000Y-106132706D01*
X140400000Y-81420000D02*
X140430000Y-81420000D01*
X140390000Y-81420000D02*
X140400000Y-81420000D01*
X140859001Y-81889001D02*
X140859001Y-85342531D01*
X148078001Y-106501999D02*
X149000000Y-105580000D01*
X140390000Y-81420000D02*
X140859001Y-81889001D01*
D20*
X141860421Y-78850233D02*
X141860421Y-78851648D01*
D18*
X142018000Y-84872354D02*
X145058001Y-87912355D01*
X156478000Y-121642000D02*
X157300000Y-120820000D01*
X148015707Y-98846999D02*
X148020707Y-98851999D01*
X146641240Y-98846999D02*
X148015707Y-98846999D01*
X150838000Y-120820706D02*
X151659294Y-121642000D01*
X145058001Y-87912355D02*
X145058001Y-97263760D01*
X150838001Y-99860707D02*
X150838000Y-100720000D01*
X145058001Y-97263760D02*
X146641240Y-98846999D01*
X142018001Y-79618001D02*
X142018000Y-84872354D01*
X151659294Y-121642000D02*
X156478000Y-121642000D01*
X149829294Y-98852000D02*
X150838001Y-99860707D01*
X141860421Y-78850233D02*
X141860421Y-79460421D01*
X148020707Y-98851999D02*
X149829294Y-98852000D01*
X141860421Y-79460421D02*
X142018001Y-79618001D01*
X150838000Y-100720000D02*
X150838000Y-120820706D01*
D21*
X147332000Y-97122000D02*
X150471456Y-97122000D01*
X145203888Y-79591155D02*
X144829283Y-79965760D01*
X152540000Y-99190544D02*
X152540000Y-106716848D01*
X155038000Y-107842000D02*
X157300000Y-105580000D01*
X143679501Y-84167873D02*
X146750000Y-87238373D01*
X144234240Y-79965760D02*
X143679501Y-80520499D01*
X146750000Y-96540000D02*
X147332000Y-97122000D01*
X145203888Y-79369384D02*
X145203888Y-79591155D01*
X144829283Y-79965760D02*
X144234240Y-79965760D01*
X150471456Y-97122000D02*
X152540000Y-99190544D01*
X143679501Y-80520499D02*
X143679501Y-84167873D01*
X152540000Y-106716848D02*
X153665152Y-107842000D01*
X146750000Y-87238373D02*
X146750000Y-96540000D01*
X153665152Y-107842000D02*
X155038000Y-107842000D01*
D18*
X146470000Y-87351524D02*
X146470000Y-96710000D01*
X150356304Y-97400000D02*
X152240000Y-99283698D01*
X143413001Y-80016151D02*
X143413001Y-84294525D01*
X146470000Y-96710000D02*
X147160000Y-97400000D01*
X144614239Y-79500000D02*
X143929152Y-79500000D01*
X143929152Y-79500000D02*
X143413001Y-80016151D01*
X144651999Y-79537760D02*
X144614239Y-79500000D01*
X152240000Y-106810000D02*
X153550000Y-108120000D01*
X143413001Y-84294525D02*
X146470000Y-87351524D01*
X153550000Y-108120000D02*
X157300000Y-108120000D01*
X152240000Y-99283698D02*
X152240000Y-106810000D01*
X147160000Y-97400000D02*
X150356304Y-97400000D01*
X146188000Y-87462677D02*
X146188000Y-96821152D01*
X143135001Y-84409677D02*
X146188000Y-87462677D01*
X146188000Y-96821152D02*
X147101847Y-97734999D01*
X147101847Y-97734999D02*
X150298151Y-97734999D01*
X144188000Y-78848000D02*
X143135001Y-79900999D01*
X155698000Y-112922000D02*
X157300000Y-111320000D01*
X150298151Y-97734999D02*
X151956000Y-99392849D01*
X151956000Y-111062848D02*
X153815152Y-112922000D01*
X143135001Y-79900999D02*
X143135001Y-84409677D01*
X157300000Y-111320000D02*
X157300000Y-110660000D01*
X153815152Y-112922000D02*
X155698000Y-112922000D01*
X151956000Y-99392849D02*
X151956000Y-111062848D01*
D21*
X143047885Y-78952115D02*
X142579001Y-79420999D01*
D18*
X143024171Y-78897999D02*
X143024171Y-78921179D01*
D21*
X145630000Y-87690980D02*
X145630000Y-97049456D01*
X146871543Y-98290999D02*
X150061667Y-98290999D01*
X150061667Y-98290999D02*
X151400000Y-99629332D01*
X142579001Y-84639981D02*
X145630000Y-87690980D01*
X151400000Y-99629332D02*
X151400000Y-114630000D01*
X143047885Y-78804988D02*
X143047885Y-78952115D01*
X145630000Y-97049456D02*
X146871543Y-98290999D01*
X152510000Y-115740000D02*
X157300000Y-115740000D01*
X142579001Y-79420999D02*
X142579001Y-84639981D01*
X151400000Y-114630000D02*
X152510000Y-115740000D01*
D18*
X150586608Y-96844000D02*
X152818000Y-99075393D01*
X144941739Y-80246455D02*
X144453545Y-80246455D01*
X152818000Y-101668000D02*
X154190000Y-103040000D01*
X145300000Y-78760000D02*
X145300000Y-78800000D01*
X146687390Y-86782610D02*
X147028000Y-87123222D01*
X144453545Y-80246455D02*
X143969001Y-80730999D01*
X147028000Y-87123222D02*
X147028000Y-96424848D01*
X145631888Y-79131888D02*
X145631888Y-79556306D01*
X154190000Y-103040000D02*
X157300000Y-103040000D01*
X152818000Y-99075393D02*
X152818000Y-101668000D01*
X143969001Y-80730999D02*
X143969001Y-84064221D01*
X145300000Y-78800000D02*
X145631888Y-79131888D01*
X145631888Y-79556306D02*
X144941739Y-80246455D01*
X143969001Y-84064221D02*
X146687390Y-86782610D01*
X147028000Y-96424848D02*
X147447152Y-96844000D01*
X147447152Y-96844000D02*
X150586608Y-96844000D01*
X146756391Y-98568999D02*
X149810000Y-98569000D01*
X142532221Y-78878556D02*
X142532221Y-78892352D01*
X151121000Y-117431000D02*
X151970000Y-118280000D01*
D20*
X142471141Y-78822170D02*
X142471141Y-78953432D01*
D18*
X142301001Y-78992310D02*
X142301000Y-84755132D01*
X145341001Y-97153609D02*
X146756391Y-98568999D01*
X149810000Y-98569000D02*
X149946517Y-98569001D01*
X145341001Y-87795133D02*
X145341001Y-97153609D01*
X142471141Y-78822170D02*
X142301001Y-78992310D01*
X149946517Y-98569001D02*
X151121001Y-99743485D01*
X151970000Y-118280000D02*
X157300000Y-118280000D01*
X151121001Y-99743485D02*
X151121000Y-117431000D01*
X142301000Y-84755132D02*
X145341001Y-87795133D01*
X141280000Y-78847998D02*
X141280000Y-79339999D01*
X141730000Y-84991648D02*
X144770000Y-88031648D01*
X144770000Y-97368911D02*
X146541090Y-99140000D01*
X150550000Y-99980000D02*
X150550000Y-120940000D01*
X141330000Y-78820000D02*
X141280000Y-78870000D01*
X144770000Y-88031648D02*
X144770000Y-97368911D01*
X141280000Y-79339999D02*
X141730000Y-79789999D01*
X146541090Y-99140000D02*
X149710000Y-99140000D01*
X155870000Y-121930000D02*
X157300000Y-123360000D01*
X141430000Y-78820000D02*
X141330000Y-78820000D01*
X151540000Y-121930000D02*
X155870000Y-121930000D01*
X149710000Y-99140000D02*
X150550000Y-99980000D01*
X150550000Y-120940000D02*
X151540000Y-121930000D01*
X141730000Y-79789999D02*
X141730000Y-84991648D01*
D21*
X142857001Y-79601156D02*
X142857001Y-84524829D01*
X142857001Y-84524829D02*
X145910000Y-87577828D01*
X151678000Y-111178000D02*
X153700000Y-113200000D01*
X143588000Y-78600000D02*
X143588000Y-78870157D01*
X146986695Y-98012999D02*
X150182999Y-98012999D01*
X143588000Y-78870157D02*
X142857001Y-79601156D01*
X151678000Y-99508000D02*
X151678000Y-111178000D01*
X150182999Y-98012999D02*
X151678000Y-99508000D01*
X145910000Y-96936304D02*
X146986695Y-98012999D01*
X145910000Y-87577828D02*
X145910000Y-96936304D01*
X153700000Y-113200000D02*
X157300000Y-113200000D01*
D18*
X156844588Y-82960000D02*
X163424001Y-89539413D01*
D17*
X146960000Y-79760000D02*
X147000000Y-79760000D01*
D18*
X163423999Y-93821293D02*
X164200000Y-94597294D01*
X164200000Y-94597294D02*
X164200000Y-96730000D01*
X164200000Y-96730000D02*
X165430000Y-97960000D01*
X147000000Y-79760000D02*
X147680000Y-79760000D01*
X163424001Y-89539413D02*
X163424000Y-89555882D01*
X147680000Y-79760000D02*
X148300000Y-80380000D01*
X150551882Y-82960000D02*
X156844588Y-82960000D01*
X148300000Y-80708118D02*
X150551882Y-82960000D01*
X163424000Y-89555882D02*
X163423999Y-93821293D01*
X148300000Y-80380000D02*
X148300000Y-80708118D01*
X147430000Y-80400000D02*
X147584588Y-80400000D01*
X163847706Y-94652294D02*
X163847706Y-99347706D01*
X163136000Y-89658706D02*
X163136000Y-93940588D01*
X147584588Y-80400000D02*
X150432588Y-83248000D01*
X163847706Y-99347706D02*
X165000000Y-100500000D01*
D17*
X164679476Y-100480000D02*
X165620000Y-100480000D01*
D18*
X165000000Y-100500000D02*
X165430000Y-100500000D01*
X163136000Y-93940588D02*
X163847706Y-94652294D01*
X150432588Y-83248000D02*
X156725294Y-83248000D01*
X156725294Y-83248000D02*
X163136000Y-89658706D01*
D17*
X147600000Y-85090000D02*
X147648000Y-85090000D01*
X147648000Y-85090000D02*
X148110000Y-85552000D01*
X148110000Y-85552000D02*
X155754472Y-85552000D01*
X147550000Y-85090000D02*
X147600000Y-85090000D01*
X155754472Y-85552000D02*
X158928001Y-88725529D01*
X158928000Y-116280706D02*
X163467294Y-120820000D01*
X158928001Y-88725529D02*
X158928000Y-116280706D01*
X163467294Y-120820000D02*
X165600000Y-120820000D01*
X161120000Y-90510000D02*
X161119997Y-94989997D01*
X161831705Y-95701705D02*
X161831705Y-106381705D01*
X148454000Y-85264000D02*
X155874000Y-85264000D01*
X161119997Y-94989997D02*
X161831705Y-95701705D01*
X161831705Y-106381705D02*
X163126000Y-107676000D01*
X146800000Y-83610000D02*
X146895000Y-83705000D01*
X163126000Y-107676000D02*
X163126000Y-115976000D01*
X155874000Y-85264000D02*
X161120000Y-90510000D01*
X146895000Y-83705000D02*
X148454000Y-85264000D01*
X163126000Y-115976000D02*
X165430000Y-118280000D01*
X162407703Y-105944997D02*
X163702000Y-107239294D01*
X157322177Y-85897823D02*
X161696000Y-90271646D01*
D18*
X147859591Y-83040409D02*
X149507182Y-84688000D01*
D17*
X157322177Y-85892177D02*
X157322177Y-85897823D01*
X147804724Y-82985541D02*
X147859591Y-83040409D01*
D18*
X149507182Y-84688000D02*
X156118000Y-84688000D01*
D17*
X163702000Y-107239294D02*
X163701999Y-111471999D01*
X161695998Y-94545998D02*
X162407706Y-95257706D01*
X156118000Y-84688000D02*
X157322177Y-85892177D01*
X163701999Y-111471999D02*
X165430000Y-113200000D01*
X162407706Y-95257706D02*
X162407703Y-105944997D01*
X161696000Y-90271646D02*
X161695998Y-94545998D01*
D18*
X147920000Y-81550000D02*
X150194000Y-83824000D01*
X150194000Y-83824000D02*
X156475882Y-83824000D01*
X163271706Y-94890882D02*
X163271705Y-101288999D01*
X164141353Y-102158647D02*
X164141353Y-104291353D01*
X156475882Y-83824000D02*
X162560000Y-89908118D01*
X147600000Y-81550000D02*
X147920000Y-81550000D01*
X163271705Y-101288999D02*
X164141353Y-102158647D01*
X164141353Y-104291353D02*
X165430000Y-105580000D01*
X162559999Y-94179175D02*
X163271706Y-94890882D01*
D17*
X147550000Y-81550000D02*
X147600000Y-81550000D01*
D18*
X162560000Y-89908118D02*
X162559999Y-94179175D01*
X156356588Y-84112000D02*
X162272000Y-90027412D01*
X162272000Y-90027412D02*
X162271999Y-94298469D01*
D17*
X147130000Y-82060000D02*
X147200000Y-82060000D01*
D18*
X155770000Y-84111999D02*
X156356588Y-84112000D01*
X162983705Y-105673705D02*
X165430000Y-108120000D01*
X150061140Y-84111999D02*
X155770000Y-84111999D01*
X148009141Y-82060000D02*
X150061140Y-84111999D01*
X147200000Y-82060000D02*
X148009141Y-82060000D01*
X162271999Y-94298469D02*
X162983706Y-95010176D01*
X162983706Y-95010176D02*
X162983705Y-105673705D01*
X162695706Y-95135706D02*
X162695704Y-105825704D01*
X162695704Y-105825704D02*
X163990000Y-107120000D01*
X163990000Y-107120000D02*
X163990000Y-109220000D01*
X161983999Y-94423999D02*
X162695706Y-95135706D01*
X147593060Y-82474541D02*
X148016388Y-82474541D01*
X147494142Y-82573459D02*
X147593060Y-82474541D01*
X149941847Y-84400000D02*
X156237294Y-84400000D01*
X156237294Y-84400000D02*
X161984000Y-90146706D01*
X163990000Y-109220000D02*
X165430000Y-110660000D01*
X148016388Y-82474541D02*
X149941847Y-84400000D01*
X161984000Y-90146706D02*
X161983999Y-94423999D01*
D17*
X146480000Y-82140000D02*
X146520000Y-82180000D01*
D18*
X146520000Y-82180000D02*
X146913459Y-82573459D01*
X146913459Y-82573459D02*
X147494142Y-82573459D01*
X146751000Y-80911000D02*
X147688294Y-80911000D01*
X147688294Y-80911000D02*
X150313294Y-83536000D01*
X150313294Y-83536000D02*
X156606000Y-83536000D01*
X162848000Y-89778000D02*
X162847999Y-94059881D01*
X156606000Y-83536000D02*
X162848000Y-89778000D01*
X146610000Y-80770000D02*
X146751000Y-80911000D01*
X163559705Y-101169705D02*
X165430000Y-103040000D01*
X162847999Y-94059881D02*
X163559706Y-94771588D01*
X163559705Y-96500000D02*
X163559705Y-101169705D01*
X163559706Y-94771588D02*
X163559705Y-96500000D01*
D17*
X147580000Y-85820000D02*
X147600000Y-85840000D01*
X158640000Y-88844822D02*
X158640000Y-116400000D01*
X147550000Y-85790000D02*
X147580000Y-85820000D01*
X147600000Y-85840000D02*
X155635178Y-85840000D01*
X155635178Y-85840000D02*
X158640000Y-88844822D01*
X158640000Y-116400000D02*
X165600000Y-123360000D01*
D18*
X163413999Y-113723999D02*
X165430000Y-115740000D01*
X155996000Y-84976000D02*
X156670000Y-85650000D01*
X161407998Y-94667998D02*
X162119706Y-95379706D01*
X147470000Y-83500000D02*
X148946000Y-84976000D01*
X163414000Y-107358588D02*
X163413999Y-113723999D01*
D17*
X147470000Y-83390000D02*
X147470000Y-83500000D01*
D18*
X162119706Y-95379706D02*
X162119702Y-106064290D01*
X162119702Y-106064290D02*
X163414000Y-107358588D01*
X156670000Y-85650000D02*
X156670000Y-85652940D01*
X156670000Y-85652940D02*
X161408000Y-90390940D01*
X148946000Y-84976000D02*
X155996000Y-84976000D01*
X161408000Y-90390940D02*
X161407998Y-94667998D01*
D17*
X148800000Y-80264871D02*
X148800000Y-80800824D01*
X163712000Y-89412000D02*
X163712000Y-93702000D01*
X148767564Y-80232436D02*
X148800000Y-80264871D01*
X156972000Y-82672000D02*
X163712000Y-89412000D01*
X150671176Y-82672000D02*
X156972000Y-82672000D01*
X148628129Y-80093000D02*
X148767564Y-80232436D01*
X163712000Y-93702000D02*
X165430000Y-95420000D01*
X148800000Y-80800824D02*
X150671176Y-82672000D01*
G04 #@! TA.AperFunction,Conductor*
G36*
X167177826Y-73721674D02*
G01*
X167199500Y-73774000D01*
X167199500Y-127925500D01*
X167177826Y-127977826D01*
X167125500Y-127999500D01*
X137971761Y-127999500D01*
X137919435Y-127977826D01*
X137897762Y-127925788D01*
X137812567Y-106073407D01*
X137741819Y-87926732D01*
X137763288Y-87874324D01*
X137815530Y-87852447D01*
X137867939Y-87873915D01*
X138209432Y-88215409D01*
X138294151Y-88250501D01*
X138294152Y-88250501D01*
X138394462Y-88250501D01*
X138394470Y-88250500D01*
X139568811Y-88250500D01*
X139621137Y-88272174D01*
X139669438Y-88320475D01*
X139755062Y-88369910D01*
X139755063Y-88369910D01*
X139755065Y-88369911D01*
X139802813Y-88382705D01*
X139850562Y-88395499D01*
X139850563Y-88395500D01*
X139850565Y-88395500D01*
X139949433Y-88395500D01*
X139949435Y-88395500D01*
X139949436Y-88395499D01*
X139951058Y-88395286D01*
X139951857Y-88395500D01*
X139954285Y-88395500D01*
X139954285Y-88396150D01*
X140005766Y-88409944D01*
X140034085Y-88458993D01*
X140019427Y-88513701D01*
X140013044Y-88520979D01*
X139173590Y-89360433D01*
X139159054Y-89395525D01*
X139138499Y-89445148D01*
X139138499Y-89545461D01*
X139138500Y-89545470D01*
X139138500Y-91747069D01*
X139116826Y-91799395D01*
X139064500Y-91821069D01*
X139027500Y-91811155D01*
X138973887Y-91780201D01*
X138973882Y-91780199D01*
X138859311Y-91749500D01*
X138859309Y-91749500D01*
X138740691Y-91749500D01*
X138740689Y-91749500D01*
X138626117Y-91780199D01*
X138626112Y-91780201D01*
X138523390Y-91839508D01*
X138439508Y-91923390D01*
X138380201Y-92026112D01*
X138380199Y-92026117D01*
X138349500Y-92140688D01*
X138349500Y-92259311D01*
X138380199Y-92373882D01*
X138380201Y-92373887D01*
X138439508Y-92476609D01*
X138439509Y-92476610D01*
X138439511Y-92476613D01*
X138523387Y-92560489D01*
X138571315Y-92588160D01*
X138574500Y-92589999D01*
X138608979Y-92634932D01*
X138611500Y-92654085D01*
X138611500Y-93182981D01*
X138589826Y-93235307D01*
X138587917Y-93236980D01*
X138501508Y-93323390D01*
X138442201Y-93426112D01*
X138442199Y-93426117D01*
X138411500Y-93540688D01*
X138411500Y-93659311D01*
X138442199Y-93773882D01*
X138442201Y-93773887D01*
X138501508Y-93876609D01*
X138501509Y-93876610D01*
X138501511Y-93876613D01*
X138585387Y-93960489D01*
X138585389Y-93960490D01*
X138585390Y-93960491D01*
X138685940Y-94018544D01*
X138688114Y-94019799D01*
X138688115Y-94019799D01*
X138688117Y-94019800D01*
X138745402Y-94035149D01*
X138802688Y-94050499D01*
X138802689Y-94050500D01*
X138802691Y-94050500D01*
X138921311Y-94050500D01*
X138921311Y-94050499D01*
X139001845Y-94028920D01*
X139035883Y-94019800D01*
X139035884Y-94019799D01*
X139035886Y-94019799D01*
X139035887Y-94019798D01*
X139036173Y-94019680D01*
X139036331Y-94019679D01*
X139040571Y-94018544D01*
X139040875Y-94019679D01*
X139092810Y-94019672D01*
X139132863Y-94059716D01*
X139138500Y-94088043D01*
X139138500Y-98654654D01*
X139138499Y-98654668D01*
X139138499Y-98752326D01*
X139155969Y-98794501D01*
X139173589Y-98837041D01*
X139173592Y-98837045D01*
X139248839Y-98912292D01*
X139248841Y-98912293D01*
X139702894Y-99366346D01*
X139702897Y-99366350D01*
X139771956Y-99435409D01*
X139814313Y-99452953D01*
X139814314Y-99452954D01*
X139856675Y-99470501D01*
X139956986Y-99470501D01*
X139956994Y-99470500D01*
X139998977Y-99470500D01*
X140051303Y-99492174D01*
X140072977Y-99544500D01*
X140051303Y-99596826D01*
X140029242Y-99611566D01*
X140029290Y-99611655D01*
X140028387Y-99612137D01*
X140027295Y-99612867D01*
X140026086Y-99613368D01*
X140026084Y-99613369D01*
X139862218Y-99722860D01*
X139862217Y-99722862D01*
X139722862Y-99862217D01*
X139722860Y-99862218D01*
X139613367Y-100026086D01*
X139537950Y-100208160D01*
X139537947Y-100208170D01*
X139507078Y-100363363D01*
X139499500Y-100401459D01*
X139499500Y-100598541D01*
X139507078Y-100636636D01*
X139537947Y-100791829D01*
X139537950Y-100791839D01*
X139611567Y-100969567D01*
X139611567Y-101026204D01*
X139595526Y-101050211D01*
X138610103Y-102035636D01*
X138539634Y-102106105D01*
X138501500Y-102198170D01*
X138501500Y-126357829D01*
X138539634Y-126449894D01*
X138539636Y-126449897D01*
X139747415Y-127657675D01*
X139747418Y-127657679D01*
X139751636Y-127661897D01*
X139822103Y-127732364D01*
X139914172Y-127770500D01*
X139914173Y-127770500D01*
X143529827Y-127770500D01*
X143529828Y-127770500D01*
X143621897Y-127732364D01*
X144149787Y-127204472D01*
X144202113Y-127182799D01*
X144230431Y-127188432D01*
X144408160Y-127262049D01*
X144408165Y-127262051D01*
X144601459Y-127300500D01*
X144601461Y-127300500D01*
X144798539Y-127300500D01*
X144798541Y-127300500D01*
X144991835Y-127262051D01*
X145173914Y-127186632D01*
X145337782Y-127077139D01*
X145477139Y-126937782D01*
X145586632Y-126773914D01*
X145662051Y-126591835D01*
X145700500Y-126398541D01*
X145700500Y-126201459D01*
X145665400Y-126025000D01*
X145664164Y-126018785D01*
X145662051Y-126008167D01*
X145662051Y-126008165D01*
X145586632Y-125826086D01*
X145477139Y-125662218D01*
X145337782Y-125522861D01*
X145228713Y-125449983D01*
X145173913Y-125413367D01*
X144991839Y-125337950D01*
X144991829Y-125337947D01*
X144862388Y-125312200D01*
X144798541Y-125299500D01*
X144601459Y-125299500D01*
X144546662Y-125310399D01*
X144408170Y-125337947D01*
X144408160Y-125337950D01*
X144226086Y-125413367D01*
X144062218Y-125522860D01*
X144062217Y-125522862D01*
X143922862Y-125662217D01*
X143922860Y-125662218D01*
X143813367Y-125826086D01*
X143737950Y-126008160D01*
X143737947Y-126008170D01*
X143721075Y-126092993D01*
X143699500Y-126201459D01*
X143699500Y-126398541D01*
X143712200Y-126462388D01*
X143737947Y-126591829D01*
X143737950Y-126591839D01*
X143811567Y-126769567D01*
X143811567Y-126826204D01*
X143795526Y-126850211D01*
X143397913Y-127247826D01*
X143345587Y-127269500D01*
X140098412Y-127269500D01*
X140046086Y-127247826D01*
X139924586Y-127126326D01*
X139902912Y-127074000D01*
X139924586Y-127021674D01*
X139976912Y-127000000D01*
X140375000Y-127000000D01*
X140375000Y-126384144D01*
X140434174Y-126400000D01*
X140565826Y-126400000D01*
X140625000Y-126384144D01*
X140625000Y-127000000D01*
X141374622Y-127000000D01*
X141447545Y-126985494D01*
X141530239Y-126930240D01*
X141530240Y-126930239D01*
X141585494Y-126847545D01*
X141600000Y-126774622D01*
X141600000Y-126025000D01*
X140984144Y-126025000D01*
X141000000Y-125965826D01*
X141000000Y-125834174D01*
X140984144Y-125775000D01*
X141600000Y-125775000D01*
X141600000Y-125035377D01*
X147900000Y-125035377D01*
X147900000Y-125785000D01*
X148515856Y-125785000D01*
X148500000Y-125844174D01*
X148500000Y-125975826D01*
X148515856Y-126035000D01*
X147900000Y-126035000D01*
X147900000Y-126784622D01*
X147914505Y-126857545D01*
X147969759Y-126940239D01*
X147969760Y-126940240D01*
X148052454Y-126995494D01*
X148125378Y-127010000D01*
X148875000Y-127010000D01*
X148875000Y-126394144D01*
X148934174Y-126410000D01*
X149065826Y-126410000D01*
X149125000Y-126394144D01*
X149125000Y-127010000D01*
X149874622Y-127010000D01*
X149947545Y-126995494D01*
X150030239Y-126940240D01*
X150030240Y-126940239D01*
X150085494Y-126857545D01*
X150100000Y-126784622D01*
X150100000Y-126035000D01*
X149484144Y-126035000D01*
X149500000Y-125975826D01*
X149500000Y-125844174D01*
X149484144Y-125785000D01*
X150100000Y-125785000D01*
X150100000Y-125265438D01*
X150775001Y-125265438D01*
X150781082Y-125322009D01*
X150828813Y-125449982D01*
X150828814Y-125449983D01*
X150910670Y-125559329D01*
X151020016Y-125641185D01*
X151020017Y-125641186D01*
X151147988Y-125688916D01*
X151147993Y-125688917D01*
X151204562Y-125694999D01*
X151375000Y-125694999D01*
X151625000Y-125694999D01*
X151795438Y-125694999D01*
X151795438Y-125694998D01*
X151852009Y-125688917D01*
X151979982Y-125641186D01*
X151979983Y-125641185D01*
X152089329Y-125559329D01*
X152171185Y-125449983D01*
X152171186Y-125449982D01*
X152218916Y-125322011D01*
X152218917Y-125322006D01*
X152225000Y-125265437D01*
X152225000Y-125120000D01*
X151625000Y-125120000D01*
X151625000Y-125694999D01*
X151375000Y-125694999D01*
X151375000Y-125120000D01*
X150775001Y-125120000D01*
X150775001Y-125265438D01*
X150100000Y-125265438D01*
X150100000Y-125035377D01*
X156200000Y-125035377D01*
X156200000Y-125785000D01*
X156815856Y-125785000D01*
X156800000Y-125844174D01*
X156800000Y-125975826D01*
X156815856Y-126035000D01*
X156200000Y-126035000D01*
X156200000Y-126784622D01*
X156214505Y-126857545D01*
X156269759Y-126940239D01*
X156269760Y-126940240D01*
X156352454Y-126995494D01*
X156425378Y-127010000D01*
X157175000Y-127010000D01*
X157175000Y-126394144D01*
X157234174Y-126410000D01*
X157365826Y-126410000D01*
X157425000Y-126394144D01*
X157425000Y-127010000D01*
X158174622Y-127010000D01*
X158247545Y-126995494D01*
X158330239Y-126940240D01*
X158330240Y-126940239D01*
X158385494Y-126857545D01*
X158400000Y-126784622D01*
X158400000Y-126035000D01*
X157784144Y-126035000D01*
X157800000Y-125975826D01*
X157800000Y-125844174D01*
X157784144Y-125785000D01*
X158400000Y-125785000D01*
X158400000Y-125035377D01*
X158398011Y-125025377D01*
X164330000Y-125025377D01*
X164330000Y-125775000D01*
X164945856Y-125775000D01*
X164930000Y-125834174D01*
X164930000Y-125965826D01*
X164945856Y-126025000D01*
X164330000Y-126025000D01*
X164330000Y-126774622D01*
X164344505Y-126847545D01*
X164399759Y-126930239D01*
X164399760Y-126930240D01*
X164482454Y-126985494D01*
X164555378Y-127000000D01*
X165305000Y-127000000D01*
X165305000Y-126384144D01*
X165364174Y-126400000D01*
X165495826Y-126400000D01*
X165555000Y-126384144D01*
X165555000Y-127000000D01*
X166304622Y-127000000D01*
X166377545Y-126985494D01*
X166460239Y-126930240D01*
X166460240Y-126930239D01*
X166515494Y-126847545D01*
X166530000Y-126774622D01*
X166530000Y-126025000D01*
X165914144Y-126025000D01*
X165930000Y-125965826D01*
X165930000Y-125834174D01*
X165914144Y-125775000D01*
X166530000Y-125775000D01*
X166530000Y-125025377D01*
X166515494Y-124952454D01*
X166460240Y-124869760D01*
X166460239Y-124869759D01*
X166377545Y-124814505D01*
X166304622Y-124800000D01*
X165555000Y-124800000D01*
X165555000Y-125415855D01*
X165495826Y-125400000D01*
X165364174Y-125400000D01*
X165305000Y-125415855D01*
X165305000Y-124800000D01*
X164555378Y-124800000D01*
X164482454Y-124814505D01*
X164399760Y-124869759D01*
X164399759Y-124869760D01*
X164344505Y-124952454D01*
X164330000Y-125025377D01*
X158398011Y-125025377D01*
X158385495Y-124962455D01*
X158330240Y-124879760D01*
X158330239Y-124879759D01*
X158247545Y-124824505D01*
X158174622Y-124810000D01*
X157425000Y-124810000D01*
X157425000Y-125425855D01*
X157365826Y-125410000D01*
X157234174Y-125410000D01*
X157175000Y-125425855D01*
X157175000Y-124810000D01*
X156425378Y-124810000D01*
X156352454Y-124824505D01*
X156269760Y-124879759D01*
X156269759Y-124879760D01*
X156214505Y-124962454D01*
X156200000Y-125035377D01*
X150100000Y-125035377D01*
X150085494Y-124962454D01*
X150030240Y-124879760D01*
X150030239Y-124879759D01*
X149947545Y-124824505D01*
X149874622Y-124810000D01*
X149125000Y-124810000D01*
X149125000Y-125425855D01*
X149065826Y-125410000D01*
X148934174Y-125410000D01*
X148875000Y-125425855D01*
X148875000Y-124810000D01*
X148125378Y-124810000D01*
X148052454Y-124824505D01*
X147969760Y-124879759D01*
X147969759Y-124879760D01*
X147914505Y-124962454D01*
X147900000Y-125035377D01*
X141600000Y-125035377D01*
X141600000Y-125025377D01*
X141585494Y-124952454D01*
X141530240Y-124869760D01*
X141530239Y-124869759D01*
X141447545Y-124814505D01*
X141374622Y-124800000D01*
X140625000Y-124800000D01*
X140625000Y-125415855D01*
X140565826Y-125400000D01*
X140434174Y-125400000D01*
X140375000Y-125415855D01*
X140375000Y-124800000D01*
X139625378Y-124800000D01*
X139552454Y-124814505D01*
X139469760Y-124869759D01*
X139469759Y-124869760D01*
X139414505Y-124952454D01*
X139400000Y-125025377D01*
X139400000Y-125775000D01*
X140015856Y-125775000D01*
X140000000Y-125834174D01*
X140000000Y-125965826D01*
X140015856Y-126025000D01*
X139400000Y-126025000D01*
X139400000Y-126423087D01*
X139378326Y-126475413D01*
X139326000Y-126497087D01*
X139273674Y-126475413D01*
X139024174Y-126225913D01*
X139002500Y-126173587D01*
X139002500Y-123261459D01*
X139499500Y-123261459D01*
X139499500Y-123458541D01*
X139501489Y-123468539D01*
X139537947Y-123651829D01*
X139537950Y-123651839D01*
X139613367Y-123833913D01*
X139722860Y-123997781D01*
X139862218Y-124137139D01*
X140026086Y-124246632D01*
X140142857Y-124295000D01*
X140208165Y-124322051D01*
X140401459Y-124360500D01*
X140401461Y-124360500D01*
X140598539Y-124360500D01*
X140598541Y-124360500D01*
X140791835Y-124322051D01*
X140973914Y-124246632D01*
X141137782Y-124137139D01*
X141277139Y-123997782D01*
X141386632Y-123833914D01*
X141462051Y-123651835D01*
X141500500Y-123458541D01*
X141500500Y-123261459D01*
X141462051Y-123068165D01*
X141396609Y-122910174D01*
X141386632Y-122886086D01*
X141277139Y-122722218D01*
X141137781Y-122582860D01*
X140973913Y-122473367D01*
X140791839Y-122397950D01*
X140791829Y-122397947D01*
X140662388Y-122372200D01*
X140598541Y-122359500D01*
X140401459Y-122359500D01*
X140351186Y-122369500D01*
X140208170Y-122397947D01*
X140208160Y-122397950D01*
X140026086Y-122473367D01*
X139862218Y-122582860D01*
X139862217Y-122582862D01*
X139722862Y-122722217D01*
X139722860Y-122722218D01*
X139613367Y-122886086D01*
X139537950Y-123068160D01*
X139537947Y-123068170D01*
X139505950Y-123229035D01*
X139499500Y-123261459D01*
X139002500Y-123261459D01*
X139002500Y-120721459D01*
X139499500Y-120721459D01*
X139499500Y-120918541D01*
X139512200Y-120982388D01*
X139537947Y-121111829D01*
X139537950Y-121111839D01*
X139613367Y-121293913D01*
X139686948Y-121404034D01*
X139722861Y-121457782D01*
X139862218Y-121597139D01*
X140026086Y-121706632D01*
X140208165Y-121782051D01*
X140401459Y-121820500D01*
X140401461Y-121820500D01*
X140598539Y-121820500D01*
X140598541Y-121820500D01*
X140791835Y-121782051D01*
X140973914Y-121706632D01*
X141137782Y-121597139D01*
X141277139Y-121457782D01*
X141386632Y-121293914D01*
X141462051Y-121111835D01*
X141500500Y-120918541D01*
X141500500Y-120721459D01*
X141462051Y-120528165D01*
X141386632Y-120346086D01*
X141277139Y-120182218D01*
X141137782Y-120042861D01*
X141133245Y-120039829D01*
X140973913Y-119933367D01*
X140791839Y-119857950D01*
X140791829Y-119857947D01*
X140662388Y-119832200D01*
X140598541Y-119819500D01*
X140401459Y-119819500D01*
X140351186Y-119829500D01*
X140208170Y-119857947D01*
X140208160Y-119857950D01*
X140026086Y-119933367D01*
X139862218Y-120042860D01*
X139862217Y-120042862D01*
X139722862Y-120182217D01*
X139722860Y-120182218D01*
X139613367Y-120346086D01*
X139537950Y-120528160D01*
X139537947Y-120528170D01*
X139509778Y-120669787D01*
X139499500Y-120721459D01*
X139002500Y-120721459D01*
X139002500Y-116805413D01*
X139024174Y-116753087D01*
X139076500Y-116731413D01*
X139128826Y-116753087D01*
X139608103Y-117232364D01*
X139700172Y-117270500D01*
X139799828Y-117270500D01*
X139966025Y-117270500D01*
X140018351Y-117292174D01*
X140040025Y-117344500D01*
X140018351Y-117396826D01*
X140007137Y-117406029D01*
X139862218Y-117502860D01*
X139862217Y-117502862D01*
X139722862Y-117642217D01*
X139722860Y-117642218D01*
X139613367Y-117806086D01*
X139537950Y-117988160D01*
X139537947Y-117988170D01*
X139515011Y-118103479D01*
X139499500Y-118181459D01*
X139499500Y-118378541D01*
X139512200Y-118442388D01*
X139537947Y-118571829D01*
X139537950Y-118571839D01*
X139613367Y-118753913D01*
X139696028Y-118877623D01*
X139722861Y-118917782D01*
X139862218Y-119057139D01*
X140026086Y-119166632D01*
X140208165Y-119242051D01*
X140401459Y-119280500D01*
X140401461Y-119280500D01*
X140598539Y-119280500D01*
X140598541Y-119280500D01*
X140791835Y-119242051D01*
X140973914Y-119166632D01*
X141137782Y-119057139D01*
X141277139Y-118917782D01*
X141386632Y-118753914D01*
X141462051Y-118571835D01*
X141500500Y-118378541D01*
X141500500Y-118181459D01*
X141462051Y-117988165D01*
X141386632Y-117806086D01*
X141277139Y-117642218D01*
X141137782Y-117502861D01*
X141020054Y-117424198D01*
X140992863Y-117406029D01*
X140961397Y-117358937D01*
X140972446Y-117303388D01*
X141019538Y-117271922D01*
X141033975Y-117270500D01*
X141695587Y-117270500D01*
X141747913Y-117292174D01*
X143197826Y-118742087D01*
X143219500Y-118794413D01*
X143219500Y-120039829D01*
X143257634Y-120131894D01*
X143257637Y-120131898D01*
X143795526Y-120669787D01*
X143817200Y-120722113D01*
X143811567Y-120750431D01*
X143737950Y-120928160D01*
X143737947Y-120928170D01*
X143705850Y-121089535D01*
X143699500Y-121121459D01*
X143699500Y-121318541D01*
X143707139Y-121356945D01*
X143737947Y-121511829D01*
X143737950Y-121511839D01*
X143813367Y-121693913D01*
X143922860Y-121857781D01*
X144062218Y-121997139D01*
X144226086Y-122106632D01*
X144388416Y-122173871D01*
X144408165Y-122182051D01*
X144601459Y-122220500D01*
X144601461Y-122220500D01*
X144798539Y-122220500D01*
X144798541Y-122220500D01*
X144991835Y-122182051D01*
X145173914Y-122106632D01*
X145337782Y-121997139D01*
X145477139Y-121857782D01*
X145586632Y-121693914D01*
X145662051Y-121511835D01*
X145700500Y-121318541D01*
X145700500Y-121121459D01*
X145662051Y-120928165D01*
X145586632Y-120746086D01*
X145477139Y-120582218D01*
X145337782Y-120442861D01*
X145330593Y-120438057D01*
X145173913Y-120333367D01*
X144991839Y-120257950D01*
X144991829Y-120257947D01*
X144862388Y-120232200D01*
X144798541Y-120219500D01*
X144601459Y-120219500D01*
X144546662Y-120230399D01*
X144408170Y-120257947D01*
X144408160Y-120257950D01*
X144230431Y-120331567D01*
X144173794Y-120331567D01*
X144149787Y-120315526D01*
X143742174Y-119907913D01*
X143720500Y-119855587D01*
X143720500Y-119431013D01*
X143742174Y-119378687D01*
X143794500Y-119357013D01*
X143808449Y-119362791D01*
X143838098Y-119365124D01*
X144269269Y-118933952D01*
X144299901Y-118987007D01*
X144392993Y-119080099D01*
X144446046Y-119110729D01*
X144014874Y-119541901D01*
X144123472Y-119620802D01*
X144277750Y-119699411D01*
X144277749Y-119699411D01*
X144442405Y-119752911D01*
X144442418Y-119752914D01*
X144613426Y-119780000D01*
X144786574Y-119780000D01*
X144957581Y-119752914D01*
X144957594Y-119752911D01*
X145122249Y-119699411D01*
X145276526Y-119620802D01*
X145276527Y-119620802D01*
X145385124Y-119541901D01*
X144953953Y-119110729D01*
X145007007Y-119080099D01*
X145100099Y-118987007D01*
X145130729Y-118933952D01*
X145561901Y-119365124D01*
X145640802Y-119256527D01*
X145640802Y-119256526D01*
X145719411Y-119102249D01*
X145772911Y-118937594D01*
X145772914Y-118937581D01*
X145782411Y-118877623D01*
X145812004Y-118829332D01*
X145867076Y-118816110D01*
X145915367Y-118845703D01*
X145929500Y-118889199D01*
X145929500Y-122173871D01*
X145907826Y-122226197D01*
X145268854Y-122865168D01*
X145216528Y-122886842D01*
X145177210Y-122874916D01*
X145177122Y-122875082D01*
X145176291Y-122874637D01*
X145175421Y-122874374D01*
X145173915Y-122873368D01*
X145173916Y-122873368D01*
X144991839Y-122797950D01*
X144991829Y-122797947D01*
X144862388Y-122772200D01*
X144798541Y-122759500D01*
X144601459Y-122759500D01*
X144546662Y-122770399D01*
X144408170Y-122797947D01*
X144408160Y-122797950D01*
X144226086Y-122873367D01*
X144062218Y-122982860D01*
X144062217Y-122982862D01*
X143922862Y-123122217D01*
X143922860Y-123122218D01*
X143813367Y-123286086D01*
X143737950Y-123468160D01*
X143737947Y-123468170D01*
X143705850Y-123629535D01*
X143699500Y-123661459D01*
X143699500Y-123858541D01*
X143705999Y-123891211D01*
X143737947Y-124051829D01*
X143737950Y-124051839D01*
X143813367Y-124233913D01*
X143904632Y-124370500D01*
X143922861Y-124397782D01*
X144062218Y-124537139D01*
X144226086Y-124646632D01*
X144408165Y-124722051D01*
X144601459Y-124760500D01*
X144601461Y-124760500D01*
X144798539Y-124760500D01*
X144798541Y-124760500D01*
X144979211Y-124724562D01*
X150775000Y-124724562D01*
X150775000Y-124870000D01*
X151375000Y-124870000D01*
X151625000Y-124870000D01*
X152224999Y-124870000D01*
X152224999Y-124724562D01*
X152224998Y-124724561D01*
X152218917Y-124667990D01*
X152171186Y-124540017D01*
X152171185Y-124540016D01*
X152089329Y-124430670D01*
X151979983Y-124348814D01*
X151979982Y-124348813D01*
X151852011Y-124301083D01*
X151852006Y-124301082D01*
X151795438Y-124295000D01*
X151625000Y-124295000D01*
X151625000Y-124870000D01*
X151375000Y-124870000D01*
X151375000Y-124295000D01*
X151204562Y-124295000D01*
X151204561Y-124295001D01*
X151147990Y-124301082D01*
X151020017Y-124348813D01*
X151020016Y-124348814D01*
X150910670Y-124430670D01*
X150828814Y-124540016D01*
X150828813Y-124540017D01*
X150781083Y-124667988D01*
X150781082Y-124667993D01*
X150775000Y-124724562D01*
X144979211Y-124724562D01*
X144991835Y-124722051D01*
X145122356Y-124667988D01*
X145155610Y-124654214D01*
X145163214Y-124651064D01*
X145173914Y-124646632D01*
X145337782Y-124537139D01*
X145477139Y-124397782D01*
X145586632Y-124233914D01*
X145662051Y-124051835D01*
X145700500Y-123858541D01*
X145700500Y-123661459D01*
X145662051Y-123468165D01*
X145586632Y-123286086D01*
X145585627Y-123284583D01*
X145585508Y-123283982D01*
X145584918Y-123282878D01*
X145585253Y-123282698D01*
X145574578Y-123229035D01*
X145594828Y-123191146D01*
X146117673Y-122668302D01*
X146169999Y-122646628D01*
X146222325Y-122668302D01*
X147109432Y-123555409D01*
X147194151Y-123590501D01*
X147194152Y-123590501D01*
X147294462Y-123590501D01*
X147294470Y-123590500D01*
X147963029Y-123590500D01*
X148015355Y-123612174D01*
X148035607Y-123650063D01*
X148037947Y-123661830D01*
X148037949Y-123661837D01*
X148113367Y-123843913D01*
X148216179Y-123997781D01*
X148222861Y-124007782D01*
X148362218Y-124147139D01*
X148526086Y-124256632D01*
X148708165Y-124332051D01*
X148901459Y-124370500D01*
X148901461Y-124370500D01*
X149098539Y-124370500D01*
X149098541Y-124370500D01*
X149291835Y-124332051D01*
X149473914Y-124256632D01*
X149637782Y-124147139D01*
X149777139Y-124007782D01*
X149886632Y-123843914D01*
X149962051Y-123661835D01*
X149962126Y-123661459D01*
X149964393Y-123650063D01*
X149995859Y-123602971D01*
X150036971Y-123590500D01*
X150800500Y-123590500D01*
X150852826Y-123612174D01*
X150874500Y-123664500D01*
X150874500Y-123705640D01*
X150885134Y-123778625D01*
X150885134Y-123778626D01*
X150940173Y-123891210D01*
X150940174Y-123891211D01*
X151028789Y-123979826D01*
X151141375Y-124034866D01*
X151214364Y-124045500D01*
X151214370Y-124045500D01*
X151785630Y-124045500D01*
X151785636Y-124045500D01*
X151858625Y-124034866D01*
X151971211Y-123979826D01*
X152059826Y-123891211D01*
X152114866Y-123778625D01*
X152125500Y-123705636D01*
X152125500Y-123184364D01*
X152114866Y-123111375D01*
X152059826Y-122998789D01*
X151971211Y-122910174D01*
X151971210Y-122910173D01*
X151858626Y-122855134D01*
X151785640Y-122844500D01*
X151785636Y-122844500D01*
X151214364Y-122844500D01*
X151214359Y-122844500D01*
X151141374Y-122855134D01*
X151141373Y-122855134D01*
X151028789Y-122910173D01*
X150940174Y-122998788D01*
X150896561Y-123088001D01*
X150854108Y-123125491D01*
X150830080Y-123129500D01*
X150032505Y-123129500D01*
X149980179Y-123107826D01*
X149964221Y-123081200D01*
X149963442Y-123081523D01*
X149886632Y-122896086D01*
X149777139Y-122732218D01*
X149637781Y-122592860D01*
X149473913Y-122483367D01*
X149291839Y-122407950D01*
X149291829Y-122407947D01*
X149162388Y-122382200D01*
X149098541Y-122369500D01*
X148901459Y-122369500D01*
X148846662Y-122380399D01*
X148708170Y-122407947D01*
X148708160Y-122407950D01*
X148526086Y-122483367D01*
X148362218Y-122592860D01*
X148362217Y-122592862D01*
X148222862Y-122732217D01*
X148222860Y-122732218D01*
X148113367Y-122896086D01*
X148036558Y-123081523D01*
X148035080Y-123080911D01*
X148002383Y-123120760D01*
X147967495Y-123129500D01*
X147366129Y-123129500D01*
X147313803Y-123107826D01*
X146412174Y-122206197D01*
X146390500Y-122153871D01*
X146390500Y-120438057D01*
X146412174Y-120385731D01*
X146464500Y-120364057D01*
X146516826Y-120385731D01*
X147078829Y-120947734D01*
X147078830Y-120947736D01*
X147142264Y-121011170D01*
X147162964Y-121019744D01*
X147225145Y-121045501D01*
X147323467Y-121045501D01*
X147323475Y-121045500D01*
X147962035Y-121045500D01*
X148014361Y-121067174D01*
X148034613Y-121105064D01*
X148037947Y-121121828D01*
X148037950Y-121121839D01*
X148113367Y-121303913D01*
X148222860Y-121467781D01*
X148362218Y-121607139D01*
X148526086Y-121716632D01*
X148654286Y-121769734D01*
X148708165Y-121792051D01*
X148901459Y-121830500D01*
X148901461Y-121830500D01*
X149098539Y-121830500D01*
X149098541Y-121830500D01*
X149291835Y-121792051D01*
X149473914Y-121716632D01*
X149637782Y-121607139D01*
X149777139Y-121467782D01*
X149886632Y-121303914D01*
X149962051Y-121121835D01*
X150000500Y-120928541D01*
X150000500Y-120731459D01*
X149962051Y-120538165D01*
X149886632Y-120356086D01*
X149777139Y-120192218D01*
X149637782Y-120052861D01*
X149622818Y-120042862D01*
X149473913Y-119943367D01*
X149291839Y-119867950D01*
X149291829Y-119867947D01*
X149162388Y-119842200D01*
X149098541Y-119829500D01*
X148901459Y-119829500D01*
X148846662Y-119840399D01*
X148708170Y-119867947D01*
X148708160Y-119867950D01*
X148526086Y-119943367D01*
X148362218Y-120052860D01*
X148362217Y-120052862D01*
X148222862Y-120192217D01*
X148222860Y-120192218D01*
X148113367Y-120356086D01*
X148037950Y-120538160D01*
X148036893Y-120541647D01*
X148034574Y-120540943D01*
X148007131Y-120582025D01*
X147966013Y-120594500D01*
X147394057Y-120594500D01*
X147341731Y-120572826D01*
X146697174Y-119928269D01*
X146675500Y-119875943D01*
X146675500Y-117940128D01*
X146697174Y-117887802D01*
X146749500Y-117866128D01*
X146801826Y-117887802D01*
X147320370Y-118406346D01*
X147320373Y-118406350D01*
X147324591Y-118410568D01*
X147389432Y-118475409D01*
X147417432Y-118487007D01*
X147424521Y-118489943D01*
X147424522Y-118489944D01*
X147474150Y-118510501D01*
X147574462Y-118510501D01*
X147574470Y-118510500D01*
X147963029Y-118510500D01*
X148015355Y-118532174D01*
X148035607Y-118570063D01*
X148037947Y-118581830D01*
X148037949Y-118581837D01*
X148113367Y-118763913D01*
X148216179Y-118917781D01*
X148222861Y-118927782D01*
X148362218Y-119067139D01*
X148526086Y-119176632D01*
X148708165Y-119252051D01*
X148901459Y-119290500D01*
X148901461Y-119290500D01*
X149098539Y-119290500D01*
X149098541Y-119290500D01*
X149291835Y-119252051D01*
X149473914Y-119176632D01*
X149637782Y-119067139D01*
X149777139Y-118927782D01*
X149886632Y-118763914D01*
X149962051Y-118581835D01*
X150000500Y-118388541D01*
X150000500Y-118191459D01*
X149962051Y-117998165D01*
X149938011Y-117940128D01*
X149886632Y-117816086D01*
X149777139Y-117652218D01*
X149637781Y-117512860D01*
X149473913Y-117403367D01*
X149291839Y-117327950D01*
X149291829Y-117327947D01*
X149162388Y-117302200D01*
X149098541Y-117289500D01*
X148901459Y-117289500D01*
X148846662Y-117300399D01*
X148708170Y-117327947D01*
X148708160Y-117327950D01*
X148526086Y-117403367D01*
X148362218Y-117512860D01*
X148362217Y-117512862D01*
X148222862Y-117652217D01*
X148222860Y-117652218D01*
X148113367Y-117816086D01*
X148036558Y-118001523D01*
X148035080Y-118000911D01*
X148002383Y-118040760D01*
X147967495Y-118049500D01*
X147646128Y-118049500D01*
X147593802Y-118027826D01*
X146990174Y-117424198D01*
X146968500Y-117371872D01*
X146968501Y-115124501D01*
X146979652Y-115097579D01*
X146990149Y-115072202D01*
X146990166Y-115072194D01*
X146990175Y-115072175D01*
X147027514Y-115056697D01*
X147026518Y-115052710D01*
X147026522Y-115052709D01*
X147041618Y-115050850D01*
X147042463Y-115050501D01*
X147044432Y-115050500D01*
X147044434Y-115050501D01*
X147044462Y-115050501D01*
X147044470Y-115050500D01*
X147953872Y-115050500D01*
X148006198Y-115072174D01*
X148109174Y-115175150D01*
X148130848Y-115227476D01*
X148118379Y-115268585D01*
X148113367Y-115276085D01*
X148037950Y-115458160D01*
X148037947Y-115458170D01*
X148005850Y-115619535D01*
X147999500Y-115651459D01*
X147999500Y-115848541D01*
X148010173Y-115902198D01*
X148037947Y-116041829D01*
X148037950Y-116041839D01*
X148113367Y-116223913D01*
X148216179Y-116377781D01*
X148222861Y-116387782D01*
X148362218Y-116527139D01*
X148526086Y-116636632D01*
X148708165Y-116712051D01*
X148901459Y-116750500D01*
X148901461Y-116750500D01*
X149098539Y-116750500D01*
X149098541Y-116750500D01*
X149291835Y-116712051D01*
X149473914Y-116636632D01*
X149637782Y-116527139D01*
X149777139Y-116387782D01*
X149886632Y-116223914D01*
X149962051Y-116041835D01*
X150000500Y-115848541D01*
X150000500Y-115651459D01*
X149962051Y-115458165D01*
X149957884Y-115448106D01*
X149886632Y-115276086D01*
X149777139Y-115112218D01*
X149637781Y-114972860D01*
X149473913Y-114863367D01*
X149291839Y-114787950D01*
X149291829Y-114787947D01*
X149162388Y-114762200D01*
X149098541Y-114749500D01*
X148901459Y-114749500D01*
X148846662Y-114760399D01*
X148708170Y-114787947D01*
X148708160Y-114787950D01*
X148526083Y-114863368D01*
X148524464Y-114864234D01*
X148523848Y-114864294D01*
X148522727Y-114864759D01*
X148522585Y-114864418D01*
X148468098Y-114869774D01*
X148437267Y-114851291D01*
X148285817Y-114699841D01*
X148285817Y-114699840D01*
X148210569Y-114624592D01*
X148210565Y-114624589D01*
X148173971Y-114609432D01*
X148125850Y-114589499D01*
X148034150Y-114589499D01*
X148025538Y-114589499D01*
X148025530Y-114589500D01*
X147116129Y-114589500D01*
X147063803Y-114567826D01*
X146972567Y-114476590D01*
X146440801Y-113944825D01*
X146419128Y-113892500D01*
X146440802Y-113840174D01*
X146493128Y-113818500D01*
X147577530Y-113818500D01*
X147577538Y-113818501D01*
X147586150Y-113818501D01*
X147677850Y-113818501D01*
X147727476Y-113797944D01*
X147762568Y-113783409D01*
X147827409Y-113718568D01*
X147827409Y-113718567D01*
X147837814Y-113708162D01*
X147837816Y-113708159D01*
X147961451Y-113584523D01*
X148013776Y-113562850D01*
X148066102Y-113584524D01*
X148082143Y-113608531D01*
X148113366Y-113683910D01*
X148113368Y-113683914D01*
X148170123Y-113768854D01*
X148222860Y-113847781D01*
X148362218Y-113987139D01*
X148526086Y-114096632D01*
X148688865Y-114164057D01*
X148708165Y-114172051D01*
X148901459Y-114210500D01*
X148901461Y-114210500D01*
X149098539Y-114210500D01*
X149098541Y-114210500D01*
X149291835Y-114172051D01*
X149473914Y-114096632D01*
X149637782Y-113987139D01*
X149777139Y-113847782D01*
X149886632Y-113683914D01*
X149962051Y-113501835D01*
X150000500Y-113308541D01*
X150000500Y-113111459D01*
X149962051Y-112918165D01*
X149957884Y-112908106D01*
X149886632Y-112736086D01*
X149777139Y-112572218D01*
X149637781Y-112432860D01*
X149473913Y-112323367D01*
X149291839Y-112247950D01*
X149291829Y-112247947D01*
X149162388Y-112222200D01*
X149098541Y-112209500D01*
X148901459Y-112209500D01*
X148846662Y-112220399D01*
X148708170Y-112247947D01*
X148708160Y-112247950D01*
X148526086Y-112323367D01*
X148362218Y-112432860D01*
X148362217Y-112432862D01*
X148222862Y-112572217D01*
X148222860Y-112572218D01*
X148113367Y-112736086D01*
X148036558Y-112921523D01*
X148035083Y-112920912D01*
X148002375Y-112960763D01*
X147980914Y-112966138D01*
X147981300Y-112968077D01*
X147974149Y-112969499D01*
X147931790Y-112987044D01*
X147931791Y-112987045D01*
X147889433Y-113004590D01*
X147824590Y-113069433D01*
X147558198Y-113335826D01*
X147505872Y-113357500D01*
X146807128Y-113357500D01*
X146754802Y-113335826D01*
X146733128Y-113283500D01*
X146754802Y-113231174D01*
X147126302Y-112859674D01*
X148425151Y-111560823D01*
X148477476Y-111539150D01*
X148518588Y-111551622D01*
X148526086Y-111556632D01*
X148708165Y-111632051D01*
X148901459Y-111670500D01*
X148901461Y-111670500D01*
X149098539Y-111670500D01*
X149098541Y-111670500D01*
X149291835Y-111632051D01*
X149473914Y-111556632D01*
X149637782Y-111447139D01*
X149777139Y-111307782D01*
X149886632Y-111143914D01*
X149962051Y-110961835D01*
X150000500Y-110768541D01*
X150000500Y-110571459D01*
X149962051Y-110378165D01*
X149957884Y-110368106D01*
X149886632Y-110196086D01*
X149777139Y-110032218D01*
X149637781Y-109892860D01*
X149473913Y-109783367D01*
X149291839Y-109707950D01*
X149291829Y-109707947D01*
X149162388Y-109682200D01*
X149098541Y-109669500D01*
X148901459Y-109669500D01*
X148846662Y-109680399D01*
X148708170Y-109707947D01*
X148708160Y-109707950D01*
X148526086Y-109783367D01*
X148362218Y-109892860D01*
X148362217Y-109892862D01*
X148222862Y-110032217D01*
X148222860Y-110032218D01*
X148113367Y-110196086D01*
X148037950Y-110378160D01*
X148037947Y-110378170D01*
X148029541Y-110420432D01*
X147999500Y-110571459D01*
X147999500Y-110768541D01*
X148007960Y-110811073D01*
X148037947Y-110961829D01*
X148037950Y-110961839D01*
X148113366Y-111143911D01*
X148114228Y-111145523D01*
X148114288Y-111146136D01*
X148114759Y-111147273D01*
X148114414Y-111147415D01*
X148119778Y-111201888D01*
X148101291Y-111232731D01*
X146286198Y-113047826D01*
X146233872Y-113069500D01*
X144192598Y-113069500D01*
X144140272Y-113047826D01*
X143572174Y-112479728D01*
X143550500Y-112427402D01*
X143550500Y-106695128D01*
X143572174Y-106642802D01*
X143624500Y-106621128D01*
X143676826Y-106642802D01*
X143950370Y-106916346D01*
X143950373Y-106916350D01*
X143954591Y-106920568D01*
X144019432Y-106985409D01*
X144075890Y-107008794D01*
X144104150Y-107020500D01*
X144104151Y-107020500D01*
X147543872Y-107020500D01*
X147596198Y-107042174D01*
X148109174Y-107555150D01*
X148130848Y-107607476D01*
X148118379Y-107648585D01*
X148113367Y-107656085D01*
X148037950Y-107838160D01*
X148037947Y-107838170D01*
X148025230Y-107902106D01*
X147999500Y-108031459D01*
X147999500Y-108228541D01*
X148002479Y-108243518D01*
X148037947Y-108421829D01*
X148037950Y-108421839D01*
X148113367Y-108603913D01*
X148216179Y-108757781D01*
X148222861Y-108767782D01*
X148362218Y-108907139D01*
X148526086Y-109016632D01*
X148708165Y-109092051D01*
X148901459Y-109130500D01*
X148901461Y-109130500D01*
X149098539Y-109130500D01*
X149098541Y-109130500D01*
X149291835Y-109092051D01*
X149473914Y-109016632D01*
X149637782Y-108907139D01*
X149777139Y-108767782D01*
X149886632Y-108603914D01*
X149962051Y-108421835D01*
X150000500Y-108228541D01*
X150000500Y-108031459D01*
X149962051Y-107838165D01*
X149957884Y-107828106D01*
X149886632Y-107656086D01*
X149777139Y-107492218D01*
X149637781Y-107352860D01*
X149473913Y-107243367D01*
X149291839Y-107167950D01*
X149291829Y-107167947D01*
X149162388Y-107142200D01*
X149098541Y-107129500D01*
X148901459Y-107129500D01*
X148859602Y-107137826D01*
X148708170Y-107167947D01*
X148708160Y-107167950D01*
X148526083Y-107243368D01*
X148524464Y-107244234D01*
X148523848Y-107244294D01*
X148522727Y-107244759D01*
X148522585Y-107244418D01*
X148468098Y-107249774D01*
X148437267Y-107231291D01*
X148064802Y-106858826D01*
X148043128Y-106806500D01*
X148064802Y-106754174D01*
X148095260Y-106735805D01*
X148105944Y-106732500D01*
X148123851Y-106732500D01*
X148173477Y-106711943D01*
X148208569Y-106697408D01*
X148273410Y-106632567D01*
X148273410Y-106632566D01*
X148283815Y-106622161D01*
X148283817Y-106622158D01*
X148425151Y-106480823D01*
X148477476Y-106459150D01*
X148518588Y-106471622D01*
X148526086Y-106476632D01*
X148708165Y-106552051D01*
X148901459Y-106590500D01*
X148901461Y-106590500D01*
X149098539Y-106590500D01*
X149098541Y-106590500D01*
X149291835Y-106552051D01*
X149473914Y-106476632D01*
X149637782Y-106367139D01*
X149777139Y-106227782D01*
X149886632Y-106063914D01*
X149962051Y-105881835D01*
X150000500Y-105688541D01*
X150000500Y-105491459D01*
X149962051Y-105298165D01*
X149957884Y-105288106D01*
X149886632Y-105116086D01*
X149777139Y-104952218D01*
X149637781Y-104812860D01*
X149473913Y-104703367D01*
X149291839Y-104627950D01*
X149291829Y-104627947D01*
X149162388Y-104602200D01*
X149098541Y-104589500D01*
X148901459Y-104589500D01*
X148846662Y-104600399D01*
X148708170Y-104627947D01*
X148708160Y-104627950D01*
X148526086Y-104703367D01*
X148362218Y-104812860D01*
X148362217Y-104812862D01*
X148222862Y-104952217D01*
X148222860Y-104952218D01*
X148113367Y-105116086D01*
X148037950Y-105298160D01*
X148037947Y-105298170D01*
X148029541Y-105340432D01*
X147999500Y-105491459D01*
X147999500Y-105688541D01*
X148005089Y-105716636D01*
X148037947Y-105881829D01*
X148037950Y-105881839D01*
X148113366Y-106063911D01*
X148114228Y-106065523D01*
X148114288Y-106066136D01*
X148114759Y-106067273D01*
X148114414Y-106067415D01*
X148116009Y-106083611D01*
X148122965Y-106100405D01*
X148118681Y-106110747D01*
X148119778Y-106121888D01*
X148101291Y-106152731D01*
X148004198Y-106249825D01*
X147951872Y-106271499D01*
X144395422Y-106271499D01*
X144343096Y-106249825D01*
X144152174Y-106058903D01*
X144130500Y-106006577D01*
X144130500Y-102075128D01*
X144152174Y-102022802D01*
X144204500Y-102001128D01*
X144256826Y-102022802D01*
X145400370Y-103166346D01*
X145400373Y-103166350D01*
X145469432Y-103235409D01*
X145469431Y-103235409D01*
X145529337Y-103260221D01*
X145529339Y-103260221D01*
X145542080Y-103265500D01*
X145554149Y-103270500D01*
X145554150Y-103270500D01*
X145554151Y-103270500D01*
X147963029Y-103270500D01*
X148015355Y-103292174D01*
X148035607Y-103330063D01*
X148037947Y-103341830D01*
X148037949Y-103341837D01*
X148113367Y-103523913D01*
X148216179Y-103677781D01*
X148222861Y-103687782D01*
X148362218Y-103827139D01*
X148526086Y-103936632D01*
X148708165Y-104012051D01*
X148901459Y-104050500D01*
X148901461Y-104050500D01*
X149098539Y-104050500D01*
X149098541Y-104050500D01*
X149291835Y-104012051D01*
X149473914Y-103936632D01*
X149637782Y-103827139D01*
X149777139Y-103687782D01*
X149886632Y-103523914D01*
X149962051Y-103341835D01*
X150000500Y-103148541D01*
X150000500Y-102951459D01*
X149962051Y-102758165D01*
X149957884Y-102748106D01*
X149886632Y-102576086D01*
X149777139Y-102412218D01*
X149637781Y-102272860D01*
X149473913Y-102163367D01*
X149291839Y-102087950D01*
X149291829Y-102087947D01*
X149162388Y-102062200D01*
X149098541Y-102049500D01*
X148901459Y-102049500D01*
X148846662Y-102060399D01*
X148708170Y-102087947D01*
X148708160Y-102087950D01*
X148526086Y-102163367D01*
X148362218Y-102272860D01*
X148362217Y-102272862D01*
X148222862Y-102412217D01*
X148222860Y-102412218D01*
X148113367Y-102576086D01*
X148036558Y-102761523D01*
X148035080Y-102760911D01*
X148002383Y-102800760D01*
X147967495Y-102809500D01*
X145726128Y-102809500D01*
X145673802Y-102787826D01*
X144442174Y-101556198D01*
X144420500Y-101503872D01*
X144420500Y-97910118D01*
X144442174Y-97857792D01*
X144494500Y-97836118D01*
X144546826Y-97857792D01*
X147316768Y-100627734D01*
X147316769Y-100627736D01*
X147380203Y-100691170D01*
X147400903Y-100699744D01*
X147463084Y-100725501D01*
X147561406Y-100725501D01*
X147561414Y-100725500D01*
X147962035Y-100725500D01*
X148014361Y-100747174D01*
X148034613Y-100785064D01*
X148037947Y-100801828D01*
X148037950Y-100801839D01*
X148113367Y-100983913D01*
X148216179Y-101137781D01*
X148222861Y-101147782D01*
X148362218Y-101287139D01*
X148526086Y-101396632D01*
X148708165Y-101472051D01*
X148901459Y-101510500D01*
X148901461Y-101510500D01*
X149098539Y-101510500D01*
X149098541Y-101510500D01*
X149291835Y-101472051D01*
X149473914Y-101396632D01*
X149637782Y-101287139D01*
X149777139Y-101147782D01*
X149886632Y-100983914D01*
X149962051Y-100801835D01*
X150000500Y-100608541D01*
X150000500Y-100411459D01*
X149962051Y-100218165D01*
X149931942Y-100145476D01*
X149886632Y-100036086D01*
X149777139Y-99872218D01*
X149637781Y-99732860D01*
X149473913Y-99623367D01*
X149291839Y-99547950D01*
X149291829Y-99547947D01*
X149156175Y-99520964D01*
X149111499Y-99512077D01*
X149064408Y-99480612D01*
X149053359Y-99425063D01*
X149084825Y-99377971D01*
X149125937Y-99365500D01*
X149585943Y-99365500D01*
X149638269Y-99387174D01*
X150302826Y-100051731D01*
X150324500Y-100104057D01*
X150324500Y-120889173D01*
X150324499Y-120889187D01*
X150324499Y-120984855D01*
X150338951Y-121019744D01*
X150358829Y-121067735D01*
X150432671Y-121141577D01*
X150432672Y-121141577D01*
X151412264Y-122121170D01*
X151495145Y-122155500D01*
X151584854Y-122155500D01*
X155745943Y-122155500D01*
X155798269Y-122177174D01*
X156412006Y-122790911D01*
X156433680Y-122843237D01*
X156421211Y-122884345D01*
X156413369Y-122896082D01*
X156413368Y-122896083D01*
X156337950Y-123078160D01*
X156337947Y-123078170D01*
X156299500Y-123271460D01*
X156299500Y-123468539D01*
X156337947Y-123661829D01*
X156337950Y-123661839D01*
X156413367Y-123843913D01*
X156516179Y-123997781D01*
X156522861Y-124007782D01*
X156662218Y-124147139D01*
X156826086Y-124256632D01*
X157008165Y-124332051D01*
X157201459Y-124370500D01*
X157201461Y-124370500D01*
X157398539Y-124370500D01*
X157398541Y-124370500D01*
X157591835Y-124332051D01*
X157773914Y-124256632D01*
X157937782Y-124147139D01*
X158077139Y-124007782D01*
X158186632Y-123843914D01*
X158262051Y-123661835D01*
X158300500Y-123468541D01*
X158300500Y-123271459D01*
X158262051Y-123078165D01*
X158186632Y-122896086D01*
X158077139Y-122732218D01*
X157937782Y-122592861D01*
X157922818Y-122582862D01*
X157773913Y-122483367D01*
X157591839Y-122407950D01*
X157591829Y-122407947D01*
X157462388Y-122382200D01*
X157398541Y-122369500D01*
X157201459Y-122369500D01*
X157146662Y-122380399D01*
X157008170Y-122407947D01*
X157008160Y-122407950D01*
X156826083Y-122483368D01*
X156822878Y-122485082D01*
X156822303Y-122484006D01*
X156770775Y-122494244D01*
X156732901Y-122473995D01*
X156611083Y-122352177D01*
X156252730Y-121993825D01*
X156231057Y-121941500D01*
X156252731Y-121889174D01*
X156305057Y-121867500D01*
X156424525Y-121867500D01*
X156424533Y-121867501D01*
X156433145Y-121867501D01*
X156522854Y-121867501D01*
X156522855Y-121867501D01*
X156581460Y-121843225D01*
X156605736Y-121833170D01*
X156669170Y-121769736D01*
X156669170Y-121769735D01*
X156679575Y-121759330D01*
X156679577Y-121759327D01*
X156720912Y-121717991D01*
X156773237Y-121696318D01*
X156814351Y-121708791D01*
X156826084Y-121716631D01*
X156826085Y-121716631D01*
X156826086Y-121716632D01*
X157008165Y-121792051D01*
X157201459Y-121830500D01*
X157201461Y-121830500D01*
X157398539Y-121830500D01*
X157398541Y-121830500D01*
X157591835Y-121792051D01*
X157773914Y-121716632D01*
X157937782Y-121607139D01*
X158077139Y-121467782D01*
X158186632Y-121303914D01*
X158262051Y-121121835D01*
X158300500Y-120928541D01*
X158300500Y-120731459D01*
X158262051Y-120538165D01*
X158186632Y-120356086D01*
X158077139Y-120192218D01*
X157937782Y-120052861D01*
X157922818Y-120042862D01*
X157773913Y-119943367D01*
X157591839Y-119867950D01*
X157591829Y-119867947D01*
X157462388Y-119842200D01*
X157398541Y-119829500D01*
X157201459Y-119829500D01*
X157146662Y-119840399D01*
X157008170Y-119867947D01*
X157008160Y-119867950D01*
X156826086Y-119943367D01*
X156662218Y-120052860D01*
X156662217Y-120052862D01*
X156522862Y-120192217D01*
X156522860Y-120192218D01*
X156413367Y-120356086D01*
X156337950Y-120538160D01*
X156337947Y-120538170D01*
X156299500Y-120731460D01*
X156299500Y-120928539D01*
X156337947Y-121121829D01*
X156337950Y-121121839D01*
X156413368Y-121303916D01*
X156415082Y-121307122D01*
X156413040Y-121308213D01*
X156422727Y-121356945D01*
X156391256Y-121404034D01*
X156350151Y-121416500D01*
X151783351Y-121416500D01*
X151731025Y-121394826D01*
X151085174Y-120748975D01*
X151063500Y-120696649D01*
X151063500Y-117871057D01*
X151085174Y-117818731D01*
X151137500Y-117797057D01*
X151189825Y-117818730D01*
X151551094Y-118180000D01*
X151778829Y-118407735D01*
X151842263Y-118471169D01*
X151842266Y-118471171D01*
X151852498Y-118475409D01*
X151925145Y-118505500D01*
X156262035Y-118505500D01*
X156314361Y-118527174D01*
X156334613Y-118565064D01*
X156337947Y-118581828D01*
X156337950Y-118581839D01*
X156413367Y-118763913D01*
X156516179Y-118917781D01*
X156522861Y-118927782D01*
X156662218Y-119067139D01*
X156826086Y-119176632D01*
X157008165Y-119252051D01*
X157201459Y-119290500D01*
X157201461Y-119290500D01*
X157398539Y-119290500D01*
X157398541Y-119290500D01*
X157591835Y-119252051D01*
X157773914Y-119176632D01*
X157937782Y-119067139D01*
X158077139Y-118927782D01*
X158186632Y-118763914D01*
X158262051Y-118581835D01*
X158300500Y-118388541D01*
X158300500Y-118191459D01*
X158262051Y-117998165D01*
X158238011Y-117940128D01*
X158186632Y-117816086D01*
X158077139Y-117652218D01*
X157937781Y-117512860D01*
X157773913Y-117403367D01*
X157591839Y-117327950D01*
X157591829Y-117327947D01*
X157462388Y-117302200D01*
X157398541Y-117289500D01*
X157201459Y-117289500D01*
X157146662Y-117300399D01*
X157008170Y-117327947D01*
X157008160Y-117327950D01*
X156826086Y-117403367D01*
X156662218Y-117512860D01*
X156662217Y-117512862D01*
X156522862Y-117652217D01*
X156522860Y-117652218D01*
X156413367Y-117816086D01*
X156337950Y-117998160D01*
X156336893Y-118001647D01*
X156334574Y-118000943D01*
X156307131Y-118042025D01*
X156266013Y-118054500D01*
X152094058Y-118054500D01*
X152041732Y-118032826D01*
X151368174Y-117359268D01*
X151346500Y-117306942D01*
X151346500Y-115057793D01*
X151368174Y-115005467D01*
X151420500Y-114983793D01*
X151472826Y-115005467D01*
X152324355Y-115856996D01*
X152324368Y-115857011D01*
X152328579Y-115861222D01*
X152388778Y-115921421D01*
X152433013Y-115939743D01*
X152433014Y-115939744D01*
X152467433Y-115954001D01*
X152561179Y-115954001D01*
X152561187Y-115954000D01*
X156259747Y-115954000D01*
X156312073Y-115975674D01*
X156332325Y-116013563D01*
X156337947Y-116041829D01*
X156337950Y-116041839D01*
X156413367Y-116223913D01*
X156516179Y-116377781D01*
X156522861Y-116387782D01*
X156662218Y-116527139D01*
X156826086Y-116636632D01*
X157008165Y-116712051D01*
X157201459Y-116750500D01*
X157201461Y-116750500D01*
X157398539Y-116750500D01*
X157398541Y-116750500D01*
X157591835Y-116712051D01*
X157773914Y-116636632D01*
X157937782Y-116527139D01*
X158077139Y-116387782D01*
X158186632Y-116223914D01*
X158262051Y-116041835D01*
X158262922Y-116037458D01*
X158294387Y-115990365D01*
X158349935Y-115979315D01*
X158397028Y-116010780D01*
X158409500Y-116051893D01*
X158409500Y-116348178D01*
X158409499Y-116348192D01*
X158409499Y-116354150D01*
X158409499Y-116445850D01*
X158422036Y-116476115D01*
X158444589Y-116530565D01*
X158444592Y-116530569D01*
X158519839Y-116605816D01*
X158519841Y-116605817D01*
X164603261Y-122689237D01*
X164624935Y-122741563D01*
X164612464Y-122782675D01*
X164543367Y-122886086D01*
X164467950Y-123068160D01*
X164467947Y-123068170D01*
X164435950Y-123229035D01*
X164429500Y-123261459D01*
X164429500Y-123458541D01*
X164431489Y-123468539D01*
X164467947Y-123651829D01*
X164467950Y-123651839D01*
X164543367Y-123833913D01*
X164652860Y-123997781D01*
X164792218Y-124137139D01*
X164956086Y-124246632D01*
X165072857Y-124295000D01*
X165138165Y-124322051D01*
X165331459Y-124360500D01*
X165331461Y-124360500D01*
X165528539Y-124360500D01*
X165528541Y-124360500D01*
X165721835Y-124322051D01*
X165903914Y-124246632D01*
X166067782Y-124137139D01*
X166207139Y-123997782D01*
X166316632Y-123833914D01*
X166392051Y-123651835D01*
X166430500Y-123458541D01*
X166430500Y-123261459D01*
X166392051Y-123068165D01*
X166326609Y-122910174D01*
X166316632Y-122886086D01*
X166207139Y-122722218D01*
X166067781Y-122582860D01*
X165903913Y-122473367D01*
X165721839Y-122397950D01*
X165721829Y-122397947D01*
X165592388Y-122372200D01*
X165528541Y-122359500D01*
X165331459Y-122359500D01*
X165281186Y-122369500D01*
X165138170Y-122397947D01*
X165138160Y-122397950D01*
X165060639Y-122430060D01*
X165004002Y-122430060D01*
X164979995Y-122414019D01*
X163742802Y-121176826D01*
X163721128Y-121124500D01*
X163742802Y-121072174D01*
X163795128Y-121050500D01*
X164395018Y-121050500D01*
X164447344Y-121072174D01*
X164466712Y-121108407D01*
X164466893Y-121108353D01*
X164467167Y-121109258D01*
X164467595Y-121110058D01*
X164467947Y-121111827D01*
X164467950Y-121111839D01*
X164543367Y-121293913D01*
X164616948Y-121404034D01*
X164652861Y-121457782D01*
X164792218Y-121597139D01*
X164956086Y-121706632D01*
X165138165Y-121782051D01*
X165331459Y-121820500D01*
X165331461Y-121820500D01*
X165528539Y-121820500D01*
X165528541Y-121820500D01*
X165721835Y-121782051D01*
X165903914Y-121706632D01*
X166067782Y-121597139D01*
X166207139Y-121457782D01*
X166316632Y-121293914D01*
X166392051Y-121111835D01*
X166430500Y-120918541D01*
X166430500Y-120721459D01*
X166392051Y-120528165D01*
X166316632Y-120346086D01*
X166207139Y-120182218D01*
X166067782Y-120042861D01*
X166063245Y-120039829D01*
X165903913Y-119933367D01*
X165721839Y-119857950D01*
X165721829Y-119857947D01*
X165592388Y-119832200D01*
X165528541Y-119819500D01*
X165331459Y-119819500D01*
X165281186Y-119829500D01*
X165138170Y-119857947D01*
X165138160Y-119857950D01*
X164956086Y-119933367D01*
X164792218Y-120042860D01*
X164792217Y-120042862D01*
X164652862Y-120182217D01*
X164652860Y-120182218D01*
X164543367Y-120346086D01*
X164467950Y-120528160D01*
X164467947Y-120528172D01*
X164467595Y-120529942D01*
X164467256Y-120530448D01*
X164466893Y-120531647D01*
X164466529Y-120531536D01*
X164436126Y-120577032D01*
X164395018Y-120589500D01*
X163593422Y-120589500D01*
X163541096Y-120567826D01*
X159180174Y-116206904D01*
X159158500Y-116154578D01*
X159158500Y-110601460D01*
X160399500Y-110601460D01*
X160399500Y-110798539D01*
X160437947Y-110991829D01*
X160437950Y-110991839D01*
X160513367Y-111173913D01*
X160622860Y-111337781D01*
X160762218Y-111477139D01*
X160926086Y-111586632D01*
X161104420Y-111660500D01*
X161108165Y-111662051D01*
X161301459Y-111700500D01*
X161301461Y-111700500D01*
X161498539Y-111700500D01*
X161498541Y-111700500D01*
X161691835Y-111662051D01*
X161873914Y-111586632D01*
X162037782Y-111477139D01*
X162177139Y-111337782D01*
X162286632Y-111173914D01*
X162362051Y-110991835D01*
X162400500Y-110798541D01*
X162400500Y-110601459D01*
X162362051Y-110408165D01*
X162286632Y-110226086D01*
X162177139Y-110062218D01*
X162037782Y-109922861D01*
X161992886Y-109892862D01*
X161873913Y-109813367D01*
X161691839Y-109737950D01*
X161691829Y-109737947D01*
X161562388Y-109712200D01*
X161498541Y-109699500D01*
X161301459Y-109699500D01*
X161246662Y-109710399D01*
X161108170Y-109737947D01*
X161108160Y-109737950D01*
X160926086Y-109813367D01*
X160762218Y-109922860D01*
X160762217Y-109922862D01*
X160622862Y-110062217D01*
X160622860Y-110062218D01*
X160513367Y-110226086D01*
X160437950Y-110408160D01*
X160437947Y-110408170D01*
X160417906Y-110508926D01*
X160403187Y-110582926D01*
X160399500Y-110601460D01*
X159158500Y-110601460D01*
X159158500Y-89053128D01*
X159180174Y-89000802D01*
X159232500Y-88979128D01*
X159284826Y-89000802D01*
X160867824Y-90583800D01*
X160889498Y-90636126D01*
X160889497Y-94938175D01*
X160889496Y-94938189D01*
X160889496Y-94944147D01*
X160889496Y-95035847D01*
X160908636Y-95082052D01*
X160924587Y-95120564D01*
X160999836Y-95195813D01*
X160999838Y-95195814D01*
X161579531Y-95775507D01*
X161601205Y-95827833D01*
X161601205Y-106329883D01*
X161601204Y-106329897D01*
X161601204Y-106427555D01*
X161617389Y-106466630D01*
X161617391Y-106466632D01*
X161636295Y-106512272D01*
X161711544Y-106587521D01*
X161711546Y-106587522D01*
X162157197Y-107033174D01*
X162178871Y-107085500D01*
X162157197Y-107137826D01*
X162104871Y-107159500D01*
X160535180Y-107159500D01*
X160513229Y-107163866D01*
X160491277Y-107168233D01*
X160441496Y-107201495D01*
X160441495Y-107201496D01*
X160408233Y-107251277D01*
X160408233Y-107251278D01*
X160399500Y-107295180D01*
X160399500Y-109024820D01*
X160408233Y-109068722D01*
X160441496Y-109118504D01*
X160491278Y-109151767D01*
X160535180Y-109160500D01*
X160535181Y-109160500D01*
X162264819Y-109160500D01*
X162264820Y-109160500D01*
X162308722Y-109151767D01*
X162358504Y-109118504D01*
X162391767Y-109068722D01*
X162400500Y-109024820D01*
X162400500Y-107455128D01*
X162422174Y-107402802D01*
X162474500Y-107381128D01*
X162526824Y-107402801D01*
X162670930Y-107546906D01*
X162873826Y-107749802D01*
X162895500Y-107802128D01*
X162895500Y-115924178D01*
X162895499Y-115924192D01*
X162895499Y-115930150D01*
X162895499Y-116021850D01*
X162916055Y-116071476D01*
X162930591Y-116106568D01*
X162995432Y-116171409D01*
X163005839Y-116181816D01*
X163005841Y-116181817D01*
X164535169Y-117711145D01*
X164556843Y-117763471D01*
X164544916Y-117802795D01*
X164545080Y-117802883D01*
X164544641Y-117803703D01*
X164544377Y-117804575D01*
X164543368Y-117806084D01*
X164543367Y-117806087D01*
X164467950Y-117988160D01*
X164467947Y-117988170D01*
X164445011Y-118103479D01*
X164429500Y-118181459D01*
X164429500Y-118378541D01*
X164442200Y-118442388D01*
X164467947Y-118571829D01*
X164467950Y-118571839D01*
X164543367Y-118753913D01*
X164626028Y-118877623D01*
X164652861Y-118917782D01*
X164792218Y-119057139D01*
X164956086Y-119166632D01*
X165138165Y-119242051D01*
X165331459Y-119280500D01*
X165331461Y-119280500D01*
X165528539Y-119280500D01*
X165528541Y-119280500D01*
X165721835Y-119242051D01*
X165903914Y-119166632D01*
X166067782Y-119057139D01*
X166207139Y-118917782D01*
X166316632Y-118753914D01*
X166392051Y-118571835D01*
X166430500Y-118378541D01*
X166430500Y-118181459D01*
X166392051Y-117988165D01*
X166316632Y-117806086D01*
X166207139Y-117642218D01*
X166067782Y-117502861D01*
X165950055Y-117424198D01*
X165903913Y-117393367D01*
X165721839Y-117317950D01*
X165721829Y-117317947D01*
X165592257Y-117292174D01*
X165528541Y-117279500D01*
X165331459Y-117279500D01*
X165281186Y-117289500D01*
X165138170Y-117317947D01*
X165138160Y-117317950D01*
X164956087Y-117393367D01*
X164956084Y-117393368D01*
X164954575Y-117394377D01*
X164953975Y-117394496D01*
X164952883Y-117395080D01*
X164952705Y-117394748D01*
X164899025Y-117405419D01*
X164861145Y-117385169D01*
X163378174Y-115902198D01*
X163356500Y-115849872D01*
X163356500Y-114164057D01*
X163378174Y-114111731D01*
X163430500Y-114090057D01*
X163482826Y-114111731D01*
X164538001Y-115166906D01*
X164559675Y-115219232D01*
X164547206Y-115260341D01*
X164543367Y-115266086D01*
X164467950Y-115448160D01*
X164467947Y-115448170D01*
X164429500Y-115641460D01*
X164429500Y-115838539D01*
X164467947Y-116031829D01*
X164467950Y-116031839D01*
X164543367Y-116213913D01*
X164637071Y-116354150D01*
X164652861Y-116377782D01*
X164792218Y-116517139D01*
X164956086Y-116626632D01*
X165138165Y-116702051D01*
X165331459Y-116740500D01*
X165331461Y-116740500D01*
X165528539Y-116740500D01*
X165528541Y-116740500D01*
X165721835Y-116702051D01*
X165903914Y-116626632D01*
X166067782Y-116517139D01*
X166207139Y-116377782D01*
X166316632Y-116213914D01*
X166392051Y-116031835D01*
X166430500Y-115838541D01*
X166430500Y-115641459D01*
X166392051Y-115448165D01*
X166316632Y-115266086D01*
X166207139Y-115102218D01*
X166067782Y-114962861D01*
X166049385Y-114950568D01*
X165903913Y-114853367D01*
X165721839Y-114777950D01*
X165721829Y-114777947D01*
X165592388Y-114752200D01*
X165528541Y-114739500D01*
X165331459Y-114739500D01*
X165281186Y-114749500D01*
X165138170Y-114777947D01*
X165138160Y-114777950D01*
X164956086Y-114853367D01*
X164950341Y-114857206D01*
X164894792Y-114868252D01*
X164856906Y-114848001D01*
X163661173Y-113652268D01*
X163639499Y-113599942D01*
X163639499Y-111914127D01*
X163661173Y-111861801D01*
X163713499Y-111840127D01*
X163765825Y-111861801D01*
X164535169Y-112631145D01*
X164556843Y-112683471D01*
X164544916Y-112722795D01*
X164545080Y-112722883D01*
X164544641Y-112723703D01*
X164544377Y-112724575D01*
X164543368Y-112726084D01*
X164543367Y-112726087D01*
X164467950Y-112908160D01*
X164467947Y-112908170D01*
X164437078Y-113063363D01*
X164430955Y-113094147D01*
X164429500Y-113101460D01*
X164429500Y-113298539D01*
X164467947Y-113491829D01*
X164467950Y-113491839D01*
X164543367Y-113673913D01*
X164626243Y-113797945D01*
X164652861Y-113837782D01*
X164792218Y-113977139D01*
X164956086Y-114086632D01*
X165138165Y-114162051D01*
X165331459Y-114200500D01*
X165331461Y-114200500D01*
X165528539Y-114200500D01*
X165528541Y-114200500D01*
X165721835Y-114162051D01*
X165903914Y-114086632D01*
X166067782Y-113977139D01*
X166207139Y-113837782D01*
X166316632Y-113673914D01*
X166392051Y-113491835D01*
X166430500Y-113298541D01*
X166430500Y-113101459D01*
X166392051Y-112908165D01*
X166316632Y-112726086D01*
X166207139Y-112562218D01*
X166067782Y-112422861D01*
X165928694Y-112329925D01*
X165903913Y-112313367D01*
X165721839Y-112237950D01*
X165721829Y-112237947D01*
X165592388Y-112212200D01*
X165528541Y-112199500D01*
X165331459Y-112199500D01*
X165281186Y-112209500D01*
X165138170Y-112237947D01*
X165138160Y-112237950D01*
X164956087Y-112313367D01*
X164956084Y-112313368D01*
X164954575Y-112314377D01*
X164953975Y-112314496D01*
X164952883Y-112315080D01*
X164952705Y-112314748D01*
X164899025Y-112325419D01*
X164861145Y-112305169D01*
X163954173Y-111398197D01*
X163932499Y-111345871D01*
X163932499Y-109660056D01*
X163954173Y-109607730D01*
X164006499Y-109586056D01*
X164058825Y-109607730D01*
X164538001Y-110086906D01*
X164559675Y-110139232D01*
X164547206Y-110180341D01*
X164543367Y-110186086D01*
X164467950Y-110368160D01*
X164467947Y-110368170D01*
X164429500Y-110561460D01*
X164429500Y-110758539D01*
X164467947Y-110951829D01*
X164467950Y-110951839D01*
X164543367Y-111133913D01*
X164588787Y-111201888D01*
X164652861Y-111297782D01*
X164792218Y-111437139D01*
X164956086Y-111546632D01*
X165138165Y-111622051D01*
X165331459Y-111660500D01*
X165331461Y-111660500D01*
X165528539Y-111660500D01*
X165528541Y-111660500D01*
X165721835Y-111622051D01*
X165903914Y-111546632D01*
X166067782Y-111437139D01*
X166207139Y-111297782D01*
X166316632Y-111133914D01*
X166392051Y-110951835D01*
X166430500Y-110758541D01*
X166430500Y-110561459D01*
X166392051Y-110368165D01*
X166316632Y-110186086D01*
X166207139Y-110022218D01*
X166067782Y-109882861D01*
X165963779Y-109813368D01*
X165903913Y-109773367D01*
X165721839Y-109697950D01*
X165721829Y-109697947D01*
X165592388Y-109672200D01*
X165528541Y-109659500D01*
X165331459Y-109659500D01*
X165281186Y-109669500D01*
X165138170Y-109697947D01*
X165138160Y-109697950D01*
X164956086Y-109773367D01*
X164950341Y-109777206D01*
X164894792Y-109788252D01*
X164856906Y-109768001D01*
X164237174Y-109148269D01*
X164215500Y-109095943D01*
X164215500Y-107403057D01*
X164237174Y-107350731D01*
X164289500Y-107329057D01*
X164341826Y-107350731D01*
X164538001Y-107546906D01*
X164559675Y-107599232D01*
X164547206Y-107640341D01*
X164543367Y-107646086D01*
X164467950Y-107828160D01*
X164467947Y-107828170D01*
X164437078Y-107983363D01*
X164429500Y-108021459D01*
X164429500Y-108218541D01*
X164437078Y-108256636D01*
X164467947Y-108411829D01*
X164467950Y-108411839D01*
X164543367Y-108593913D01*
X164550050Y-108603914D01*
X164652861Y-108757782D01*
X164792218Y-108897139D01*
X164956086Y-109006632D01*
X165138165Y-109082051D01*
X165331459Y-109120500D01*
X165331461Y-109120500D01*
X165528539Y-109120500D01*
X165528541Y-109120500D01*
X165721835Y-109082051D01*
X165903914Y-109006632D01*
X166067782Y-108897139D01*
X166207139Y-108757782D01*
X166316632Y-108593914D01*
X166392051Y-108411835D01*
X166430500Y-108218541D01*
X166430500Y-108021459D01*
X166392051Y-107828165D01*
X166316632Y-107646086D01*
X166207139Y-107482218D01*
X166067782Y-107342861D01*
X165996423Y-107295180D01*
X165903913Y-107233367D01*
X165721839Y-107157950D01*
X165721829Y-107157947D01*
X165592388Y-107132200D01*
X165528541Y-107119500D01*
X165331459Y-107119500D01*
X165281186Y-107129500D01*
X165138170Y-107157947D01*
X165138160Y-107157950D01*
X164956086Y-107233367D01*
X164950341Y-107237206D01*
X164894792Y-107248252D01*
X164856906Y-107228001D01*
X163230879Y-105601974D01*
X163209205Y-105549648D01*
X163209205Y-101724056D01*
X163230879Y-101671730D01*
X163283205Y-101650056D01*
X163335531Y-101671730D01*
X163894179Y-102230378D01*
X163915853Y-102282704D01*
X163915853Y-104240526D01*
X163915852Y-104240540D01*
X163915852Y-104336209D01*
X163940126Y-104394811D01*
X163950182Y-104419087D01*
X163950185Y-104419091D01*
X164024024Y-104492930D01*
X164024026Y-104492931D01*
X164538001Y-105006906D01*
X164559675Y-105059232D01*
X164547206Y-105100341D01*
X164543367Y-105106086D01*
X164467950Y-105288160D01*
X164467947Y-105288170D01*
X164429500Y-105481460D01*
X164429500Y-105678539D01*
X164467947Y-105871829D01*
X164467950Y-105871839D01*
X164543367Y-106053913D01*
X164652860Y-106217781D01*
X164792218Y-106357139D01*
X164956086Y-106466632D01*
X165066271Y-106512272D01*
X165138165Y-106542051D01*
X165331459Y-106580500D01*
X165331461Y-106580500D01*
X165528539Y-106580500D01*
X165528541Y-106580500D01*
X165721835Y-106542051D01*
X165903914Y-106466632D01*
X166067782Y-106357139D01*
X166207139Y-106217782D01*
X166316632Y-106053914D01*
X166392051Y-105871835D01*
X166430500Y-105678541D01*
X166430500Y-105481459D01*
X166392051Y-105288165D01*
X166316632Y-105106086D01*
X166207139Y-104942218D01*
X166067782Y-104802861D01*
X165926190Y-104708252D01*
X165903913Y-104693367D01*
X165721839Y-104617950D01*
X165721829Y-104617947D01*
X165592388Y-104592200D01*
X165528541Y-104579500D01*
X165331459Y-104579500D01*
X165281186Y-104589500D01*
X165138170Y-104617947D01*
X165138160Y-104617950D01*
X164956086Y-104693367D01*
X164950341Y-104697206D01*
X164894792Y-104708252D01*
X164856906Y-104688001D01*
X164388527Y-104219622D01*
X164366853Y-104167296D01*
X164366853Y-103459791D01*
X164388527Y-103407465D01*
X164440853Y-103385791D01*
X164493179Y-103407465D01*
X164509220Y-103431473D01*
X164543367Y-103513913D01*
X164550050Y-103523914D01*
X164652861Y-103677782D01*
X164792218Y-103817139D01*
X164956086Y-103926632D01*
X165138165Y-104002051D01*
X165331459Y-104040500D01*
X165331461Y-104040500D01*
X165528539Y-104040500D01*
X165528541Y-104040500D01*
X165721835Y-104002051D01*
X165903914Y-103926632D01*
X166067782Y-103817139D01*
X166207139Y-103677782D01*
X166316632Y-103513914D01*
X166392051Y-103331835D01*
X166430500Y-103138541D01*
X166430500Y-102941459D01*
X166392051Y-102748165D01*
X166316632Y-102566086D01*
X166207139Y-102402218D01*
X166067782Y-102262861D01*
X166051606Y-102252052D01*
X165903913Y-102153367D01*
X165721839Y-102077950D01*
X165721829Y-102077947D01*
X165592388Y-102052200D01*
X165528541Y-102039500D01*
X165331459Y-102039500D01*
X165282539Y-102049231D01*
X165138170Y-102077947D01*
X165138160Y-102077950D01*
X164956086Y-102153367D01*
X164950341Y-102157206D01*
X164894792Y-102168252D01*
X164856906Y-102148001D01*
X163806879Y-101097974D01*
X163785205Y-101045648D01*
X163785205Y-99782762D01*
X163806879Y-99730436D01*
X163859205Y-99708762D01*
X163911531Y-99730436D01*
X164426924Y-100245829D01*
X164448598Y-100298155D01*
X164447176Y-100312591D01*
X164429541Y-100401252D01*
X164429500Y-100401459D01*
X164429500Y-100598541D01*
X164437078Y-100636636D01*
X164467947Y-100791829D01*
X164467950Y-100791839D01*
X164543367Y-100973913D01*
X164550050Y-100983914D01*
X164652861Y-101137782D01*
X164792218Y-101277139D01*
X164956086Y-101386632D01*
X165138165Y-101462051D01*
X165331459Y-101500500D01*
X165331461Y-101500500D01*
X165528539Y-101500500D01*
X165528541Y-101500500D01*
X165721835Y-101462051D01*
X165903914Y-101386632D01*
X166067782Y-101277139D01*
X166207139Y-101137782D01*
X166316632Y-100973914D01*
X166392051Y-100791835D01*
X166430500Y-100598541D01*
X166430500Y-100401459D01*
X166392051Y-100208165D01*
X166316632Y-100026086D01*
X166207139Y-99862218D01*
X166067782Y-99722861D01*
X166046682Y-99708762D01*
X165903913Y-99613367D01*
X165721839Y-99537950D01*
X165721829Y-99537947D01*
X165591774Y-99512078D01*
X165528541Y-99499500D01*
X165331459Y-99499500D01*
X165281186Y-99509500D01*
X165138170Y-99537947D01*
X165138160Y-99537950D01*
X164956086Y-99613367D01*
X164792218Y-99722860D01*
X164792217Y-99722862D01*
X164719318Y-99795761D01*
X164666992Y-99817435D01*
X164614666Y-99795761D01*
X164094880Y-99275975D01*
X164073206Y-99223649D01*
X164073206Y-97100763D01*
X164094880Y-97048437D01*
X164147206Y-97026763D01*
X164199532Y-97048437D01*
X164538001Y-97386906D01*
X164559675Y-97439232D01*
X164547206Y-97480341D01*
X164543367Y-97486086D01*
X164467950Y-97668160D01*
X164467947Y-97668170D01*
X164435850Y-97829535D01*
X164430230Y-97857792D01*
X164429500Y-97861460D01*
X164429500Y-98058539D01*
X164467947Y-98251829D01*
X164467950Y-98251839D01*
X164543367Y-98433913D01*
X164652860Y-98597781D01*
X164792218Y-98737139D01*
X164956086Y-98846632D01*
X165114604Y-98912292D01*
X165138165Y-98922051D01*
X165331459Y-98960500D01*
X165331461Y-98960500D01*
X165528539Y-98960500D01*
X165528541Y-98960500D01*
X165721835Y-98922051D01*
X165903914Y-98846632D01*
X166067782Y-98737139D01*
X166207139Y-98597782D01*
X166316632Y-98433914D01*
X166392051Y-98251835D01*
X166430500Y-98058541D01*
X166430500Y-97861459D01*
X166392051Y-97668165D01*
X166316632Y-97486086D01*
X166207139Y-97322218D01*
X166067782Y-97182861D01*
X165926190Y-97088252D01*
X165903913Y-97073367D01*
X165721839Y-96997950D01*
X165721829Y-96997947D01*
X165592388Y-96972200D01*
X165528541Y-96959500D01*
X165331459Y-96959500D01*
X165276662Y-96970399D01*
X165138170Y-96997947D01*
X165138160Y-96997950D01*
X164956086Y-97073367D01*
X164950341Y-97077206D01*
X164894792Y-97088252D01*
X164856906Y-97068001D01*
X164447174Y-96658269D01*
X164425500Y-96605943D01*
X164425500Y-95961457D01*
X164447174Y-95909131D01*
X164499500Y-95887457D01*
X164551826Y-95909131D01*
X164561026Y-95920342D01*
X164652861Y-96057782D01*
X164792218Y-96197139D01*
X164956086Y-96306632D01*
X165138165Y-96382051D01*
X165331459Y-96420500D01*
X165331461Y-96420500D01*
X165528539Y-96420500D01*
X165528541Y-96420500D01*
X165721835Y-96382051D01*
X165903914Y-96306632D01*
X166067782Y-96197139D01*
X166207139Y-96057782D01*
X166316632Y-95893914D01*
X166392051Y-95711835D01*
X166430500Y-95518541D01*
X166430500Y-95321459D01*
X166392051Y-95128165D01*
X166316632Y-94946086D01*
X166207139Y-94782218D01*
X166067782Y-94642861D01*
X165906477Y-94535080D01*
X165903913Y-94533367D01*
X165721839Y-94457950D01*
X165721829Y-94457947D01*
X165592388Y-94432200D01*
X165528541Y-94419500D01*
X165331459Y-94419500D01*
X165276662Y-94430399D01*
X165138170Y-94457947D01*
X165138160Y-94457950D01*
X164956087Y-94533367D01*
X164956084Y-94533368D01*
X164954575Y-94534377D01*
X164953975Y-94534496D01*
X164952883Y-94535080D01*
X164952705Y-94534748D01*
X164899025Y-94545419D01*
X164861145Y-94525169D01*
X163964174Y-93628198D01*
X163942500Y-93575872D01*
X163942500Y-91897128D01*
X163964174Y-91844802D01*
X164016500Y-91823128D01*
X164068826Y-91844802D01*
X164535169Y-92311145D01*
X164556843Y-92363471D01*
X164544916Y-92402795D01*
X164545080Y-92402883D01*
X164544641Y-92403703D01*
X164544377Y-92404575D01*
X164543368Y-92406084D01*
X164543367Y-92406087D01*
X164467950Y-92588160D01*
X164467947Y-92588170D01*
X164429500Y-92781460D01*
X164429500Y-92978539D01*
X164467947Y-93171829D01*
X164467950Y-93171839D01*
X164543367Y-93353913D01*
X164543368Y-93353914D01*
X164652861Y-93517782D01*
X164792218Y-93657139D01*
X164956086Y-93766632D01*
X165138165Y-93842051D01*
X165331459Y-93880500D01*
X165331461Y-93880500D01*
X165528539Y-93880500D01*
X165528541Y-93880500D01*
X165721835Y-93842051D01*
X165903914Y-93766632D01*
X166067782Y-93657139D01*
X166207139Y-93517782D01*
X166316632Y-93353914D01*
X166392051Y-93171835D01*
X166430500Y-92978541D01*
X166430500Y-92781459D01*
X166392051Y-92588165D01*
X166316632Y-92406086D01*
X166207139Y-92242218D01*
X166067782Y-92102861D01*
X165952927Y-92026117D01*
X165903913Y-91993367D01*
X165721839Y-91917950D01*
X165721829Y-91917947D01*
X165592388Y-91892200D01*
X165528541Y-91879500D01*
X165331459Y-91879500D01*
X165276662Y-91890399D01*
X165138170Y-91917947D01*
X165138160Y-91917950D01*
X164956087Y-91993367D01*
X164956084Y-91993368D01*
X164954575Y-91994377D01*
X164953975Y-91994496D01*
X164952883Y-91995080D01*
X164952705Y-91994748D01*
X164899025Y-92005419D01*
X164861145Y-91985169D01*
X164252174Y-91376198D01*
X164230500Y-91323872D01*
X164230500Y-89608057D01*
X164252174Y-89555731D01*
X164304500Y-89534057D01*
X164356826Y-89555731D01*
X164550017Y-89748922D01*
X164571691Y-89801248D01*
X164559221Y-89842358D01*
X164543368Y-89866085D01*
X164467950Y-90048160D01*
X164467947Y-90048170D01*
X164429500Y-90241460D01*
X164429500Y-90438539D01*
X164467947Y-90631829D01*
X164467950Y-90631839D01*
X164543367Y-90813913D01*
X164543368Y-90813914D01*
X164652861Y-90977782D01*
X164792218Y-91117139D01*
X164956086Y-91226632D01*
X165138165Y-91302051D01*
X165331459Y-91340500D01*
X165331461Y-91340500D01*
X165528539Y-91340500D01*
X165528541Y-91340500D01*
X165721835Y-91302051D01*
X165903914Y-91226632D01*
X166067782Y-91117139D01*
X166207139Y-90977782D01*
X166316632Y-90813914D01*
X166392051Y-90631835D01*
X166430500Y-90438541D01*
X166430500Y-90241459D01*
X166392051Y-90048165D01*
X166316632Y-89866086D01*
X166207139Y-89702218D01*
X166067782Y-89562861D01*
X166057112Y-89555731D01*
X165903913Y-89453367D01*
X165721839Y-89377950D01*
X165721829Y-89377947D01*
X165592388Y-89352200D01*
X165528541Y-89339500D01*
X165331459Y-89339500D01*
X165276662Y-89350399D01*
X165138170Y-89377947D01*
X165138160Y-89377950D01*
X164956644Y-89453136D01*
X164900007Y-89453136D01*
X164876000Y-89437095D01*
X161113965Y-85675060D01*
X157343735Y-81904830D01*
X157343733Y-81904829D01*
X157343731Y-81904828D01*
X157260855Y-81870499D01*
X157171145Y-81870499D01*
X157171144Y-81870499D01*
X157163996Y-81871921D01*
X157163933Y-81871605D01*
X157144351Y-81875500D01*
X151465058Y-81875500D01*
X151412732Y-81853826D01*
X151057174Y-81498268D01*
X151035500Y-81445942D01*
X151035500Y-79353475D01*
X151035501Y-79353466D01*
X151035501Y-79255145D01*
X151011693Y-79197670D01*
X151001170Y-79172264D01*
X150937736Y-79108830D01*
X150933521Y-79104615D01*
X150933514Y-79104609D01*
X150371578Y-78542673D01*
X150371578Y-78542672D01*
X150297738Y-78468832D01*
X150297736Y-78468830D01*
X150294398Y-78467447D01*
X150273458Y-78458773D01*
X150273458Y-78458772D01*
X150214855Y-78434499D01*
X150125145Y-78434499D01*
X150116533Y-78434499D01*
X150116525Y-78434500D01*
X148636435Y-78434500D01*
X148584109Y-78412826D01*
X148562435Y-78360500D01*
X148563208Y-78349830D01*
X148569999Y-78303221D01*
X148570000Y-78303212D01*
X148570000Y-78295000D01*
X148164000Y-78295000D01*
X148111674Y-78273326D01*
X148090000Y-78221000D01*
X148090000Y-78170000D01*
X148039000Y-78170000D01*
X147986674Y-78148326D01*
X147965000Y-78096000D01*
X147965000Y-78045000D01*
X148215000Y-78045000D01*
X148569999Y-78045000D01*
X148569999Y-78036789D01*
X148569998Y-78036775D01*
X148560087Y-77968749D01*
X148508786Y-77863811D01*
X148426189Y-77781214D01*
X148321249Y-77729912D01*
X148253223Y-77720000D01*
X148215000Y-77720000D01*
X148215000Y-78045000D01*
X147965000Y-78045000D01*
X147965000Y-77720000D01*
X147964999Y-77719999D01*
X147926783Y-77720000D01*
X147858749Y-77729912D01*
X147753811Y-77781213D01*
X147725100Y-77809924D01*
X147672774Y-77831597D01*
X147658341Y-77830175D01*
X147604674Y-77819500D01*
X147295326Y-77819500D01*
X147258793Y-77826767D01*
X147222258Y-77834034D01*
X147154547Y-77879276D01*
X147098998Y-77890325D01*
X147061110Y-77870073D01*
X147030562Y-77839525D01*
X146944939Y-77790090D01*
X146944934Y-77790088D01*
X146849437Y-77764500D01*
X146849435Y-77764500D01*
X146750565Y-77764500D01*
X146750563Y-77764500D01*
X146655065Y-77790088D01*
X146655060Y-77790090D01*
X146569437Y-77839525D01*
X146499525Y-77909437D01*
X146450090Y-77995060D01*
X146450088Y-77995065D01*
X146424500Y-78090562D01*
X146424500Y-78189437D01*
X146450088Y-78284934D01*
X146450092Y-78284943D01*
X146470722Y-78320676D01*
X146478114Y-78376828D01*
X146458962Y-78410001D01*
X146392205Y-78476757D01*
X146342770Y-78562380D01*
X146342768Y-78562385D01*
X146317180Y-78657882D01*
X146317180Y-78756757D01*
X146342768Y-78852254D01*
X146342770Y-78852259D01*
X146366303Y-78893019D01*
X146392205Y-78937882D01*
X146462118Y-79007795D01*
X146547742Y-79057230D01*
X146547743Y-79057230D01*
X146547745Y-79057231D01*
X146595493Y-79070025D01*
X146643242Y-79082819D01*
X146643243Y-79082820D01*
X146711551Y-79082820D01*
X146749459Y-79093267D01*
X146757366Y-79097983D01*
X146784792Y-79125409D01*
X146840535Y-79148498D01*
X146869510Y-79160500D01*
X146869511Y-79160500D01*
X147415500Y-79160500D01*
X147467826Y-79182174D01*
X147489500Y-79234500D01*
X147489500Y-79354674D01*
X147491200Y-79363221D01*
X147504033Y-79427738D01*
X147505874Y-79432181D01*
X147505874Y-79446900D01*
X147511507Y-79460500D01*
X147505874Y-79474099D01*
X147505874Y-79488818D01*
X147495466Y-79499225D01*
X147489833Y-79512826D01*
X147476233Y-79518458D01*
X147465826Y-79528867D01*
X147437507Y-79534500D01*
X147336189Y-79534500D01*
X147283863Y-79512826D01*
X147230562Y-79459525D01*
X147144939Y-79410090D01*
X147144934Y-79410088D01*
X147049437Y-79384500D01*
X147049435Y-79384500D01*
X146950565Y-79384500D01*
X146950563Y-79384500D01*
X146855065Y-79410088D01*
X146855060Y-79410090D01*
X146769437Y-79459525D01*
X146699525Y-79529437D01*
X146650090Y-79615060D01*
X146650088Y-79615065D01*
X146624500Y-79710562D01*
X146624500Y-79809437D01*
X146650088Y-79904934D01*
X146650090Y-79904939D01*
X146692084Y-79977674D01*
X146699525Y-79990562D01*
X146769438Y-80060475D01*
X146855062Y-80109910D01*
X146855063Y-80109910D01*
X146855065Y-80109911D01*
X146900690Y-80122136D01*
X146950562Y-80135499D01*
X146950563Y-80135500D01*
X146990947Y-80135500D01*
X147043273Y-80157174D01*
X147064947Y-80209500D01*
X147055033Y-80246499D01*
X147050092Y-80255056D01*
X147050088Y-80255065D01*
X147024500Y-80350562D01*
X147024500Y-80350565D01*
X147024500Y-80449435D01*
X147030923Y-80473405D01*
X147050092Y-80544947D01*
X147042699Y-80601099D01*
X146997765Y-80635578D01*
X146941613Y-80628185D01*
X146914527Y-80601098D01*
X146890475Y-80559438D01*
X146820562Y-80489525D01*
X146734939Y-80440090D01*
X146734934Y-80440088D01*
X146639437Y-80414500D01*
X146639435Y-80414500D01*
X146540565Y-80414500D01*
X146540563Y-80414500D01*
X146445065Y-80440088D01*
X146445060Y-80440090D01*
X146359437Y-80489525D01*
X146289525Y-80559437D01*
X146240090Y-80645060D01*
X146240088Y-80645065D01*
X146214500Y-80740562D01*
X146214500Y-80839437D01*
X146240088Y-80934934D01*
X146240090Y-80934939D01*
X146285046Y-81012805D01*
X146289525Y-81020562D01*
X146359438Y-81090475D01*
X146393255Y-81109999D01*
X146443525Y-81139023D01*
X146445062Y-81139910D01*
X146445063Y-81139910D01*
X146445065Y-81139911D01*
X146492813Y-81152705D01*
X146540562Y-81165499D01*
X146540563Y-81165500D01*
X146540565Y-81165500D01*
X146639437Y-81165500D01*
X146639437Y-81165499D01*
X146710475Y-81146464D01*
X146738249Y-81139023D01*
X146757400Y-81136501D01*
X146795855Y-81136501D01*
X146795856Y-81136500D01*
X146804473Y-81136500D01*
X147303811Y-81136500D01*
X147356137Y-81158174D01*
X147377811Y-81210500D01*
X147356137Y-81262826D01*
X147299525Y-81319437D01*
X147250090Y-81405060D01*
X147250088Y-81405065D01*
X147224500Y-81500562D01*
X147224500Y-81599438D01*
X147224685Y-81600844D01*
X147224500Y-81601534D01*
X147224500Y-81604285D01*
X147223763Y-81604285D01*
X147210025Y-81655550D01*
X147160974Y-81683867D01*
X147151318Y-81684500D01*
X147150563Y-81684500D01*
X147055065Y-81710088D01*
X147055060Y-81710090D01*
X146969437Y-81759525D01*
X146899525Y-81829437D01*
X146874887Y-81872112D01*
X146829953Y-81906591D01*
X146773801Y-81899198D01*
X146758475Y-81887438D01*
X146750562Y-81879525D01*
X146664939Y-81830090D01*
X146664934Y-81830088D01*
X146569437Y-81804500D01*
X146569435Y-81804500D01*
X146470565Y-81804500D01*
X146470563Y-81804500D01*
X146375065Y-81830088D01*
X146375060Y-81830090D01*
X146289437Y-81879525D01*
X146219525Y-81949437D01*
X146170090Y-82035060D01*
X146170088Y-82035065D01*
X146144500Y-82130562D01*
X146144500Y-82229437D01*
X146170088Y-82324934D01*
X146170090Y-82324939D01*
X146184285Y-82349525D01*
X146219525Y-82410562D01*
X146289438Y-82480475D01*
X146375062Y-82529910D01*
X146375063Y-82529910D01*
X146375065Y-82529911D01*
X146422813Y-82542705D01*
X146470562Y-82555499D01*
X146470563Y-82555500D01*
X146545943Y-82555500D01*
X146598269Y-82577174D01*
X146722288Y-82701193D01*
X146722289Y-82701195D01*
X146785723Y-82764629D01*
X146809998Y-82774684D01*
X146868604Y-82798960D01*
X146868605Y-82798960D01*
X146966926Y-82798960D01*
X146966934Y-82798959D01*
X147439103Y-82798959D01*
X147491429Y-82820633D01*
X147513103Y-82872959D01*
X147510581Y-82892112D01*
X147484091Y-82990971D01*
X147484091Y-83051240D01*
X147462417Y-83103566D01*
X147424930Y-83122052D01*
X147425250Y-83123244D01*
X147325065Y-83150088D01*
X147325060Y-83150090D01*
X147239437Y-83199525D01*
X147169524Y-83269438D01*
X147137038Y-83325704D01*
X147092104Y-83360182D01*
X147045611Y-83354071D01*
X147044421Y-83356947D01*
X147039934Y-83355088D01*
X146944437Y-83329500D01*
X146944435Y-83329500D01*
X146845565Y-83329500D01*
X146845563Y-83329500D01*
X146750065Y-83355088D01*
X146750060Y-83355090D01*
X146664437Y-83404525D01*
X146594525Y-83474437D01*
X146545090Y-83560060D01*
X146545088Y-83560065D01*
X146519500Y-83655562D01*
X146519500Y-83754437D01*
X146545088Y-83849934D01*
X146545090Y-83849939D01*
X146558974Y-83873986D01*
X146594525Y-83935562D01*
X146664438Y-84005475D01*
X146750062Y-84054910D01*
X146750063Y-84054910D01*
X146750065Y-84054911D01*
X146797813Y-84067705D01*
X146845562Y-84080499D01*
X146845563Y-84080500D01*
X146913872Y-84080500D01*
X146966198Y-84102174D01*
X147482146Y-84618122D01*
X147503820Y-84670448D01*
X147482146Y-84722774D01*
X147458141Y-84738814D01*
X147455064Y-84740088D01*
X147369437Y-84789525D01*
X147299525Y-84859437D01*
X147250090Y-84945060D01*
X147250088Y-84945065D01*
X147224500Y-85040562D01*
X147224500Y-85139437D01*
X147250088Y-85234934D01*
X147250090Y-85234939D01*
X147299525Y-85320562D01*
X147372868Y-85393905D01*
X147371778Y-85394994D01*
X147397276Y-85439151D01*
X147382621Y-85493859D01*
X147360912Y-85512900D01*
X147349437Y-85519525D01*
X147279525Y-85589437D01*
X147230090Y-85675060D01*
X147230088Y-85675065D01*
X147204500Y-85770562D01*
X147204500Y-85869437D01*
X147230088Y-85964934D01*
X147230090Y-85964939D01*
X147261000Y-86018476D01*
X147279525Y-86050562D01*
X147349438Y-86120475D01*
X147435062Y-86169910D01*
X147435063Y-86169910D01*
X147435065Y-86169911D01*
X147482813Y-86182705D01*
X147530562Y-86195499D01*
X147530563Y-86195500D01*
X147530565Y-86195500D01*
X147629437Y-86195500D01*
X147629437Y-86195499D01*
X147724938Y-86169910D01*
X147810562Y-86120475D01*
X147838863Y-86092174D01*
X147891189Y-86070500D01*
X155509050Y-86070500D01*
X155561376Y-86092174D01*
X158387826Y-88918624D01*
X158409500Y-88970950D01*
X158409500Y-102748106D01*
X158387826Y-102800432D01*
X158335500Y-102822106D01*
X158283174Y-102800432D01*
X158262922Y-102762543D01*
X158262052Y-102758170D01*
X158262051Y-102758169D01*
X158262051Y-102758165D01*
X158257884Y-102748106D01*
X158186632Y-102576086D01*
X158077139Y-102412218D01*
X157937781Y-102272860D01*
X157773913Y-102163367D01*
X157591839Y-102087950D01*
X157591829Y-102087947D01*
X157462388Y-102062200D01*
X157398541Y-102049500D01*
X157201459Y-102049500D01*
X157146662Y-102060399D01*
X157008170Y-102087947D01*
X157008160Y-102087950D01*
X156826086Y-102163367D01*
X156662218Y-102272860D01*
X156662217Y-102272862D01*
X156522862Y-102412217D01*
X156522860Y-102412218D01*
X156413367Y-102576086D01*
X156337950Y-102758160D01*
X156336893Y-102761647D01*
X156334574Y-102760943D01*
X156307131Y-102802025D01*
X156266013Y-102814500D01*
X154314057Y-102814500D01*
X154261731Y-102792826D01*
X153065174Y-101596269D01*
X153043500Y-101543943D01*
X153043500Y-99128868D01*
X153043501Y-99128859D01*
X153043501Y-99030539D01*
X153020386Y-98974735D01*
X153009170Y-98947657D01*
X152945736Y-98884223D01*
X152941521Y-98880008D01*
X152941514Y-98880002D01*
X150788186Y-96726673D01*
X150788186Y-96726672D01*
X150714346Y-96652832D01*
X150714344Y-96652830D01*
X150690068Y-96642774D01*
X150690066Y-96642773D01*
X150690066Y-96642772D01*
X150631463Y-96618499D01*
X150541753Y-96618499D01*
X150533141Y-96618499D01*
X150533133Y-96618500D01*
X147571210Y-96618500D01*
X147518884Y-96596826D01*
X147275174Y-96353116D01*
X147253500Y-96300790D01*
X147253500Y-87176697D01*
X147253501Y-87176688D01*
X147253501Y-87078368D01*
X147253500Y-87078366D01*
X147225598Y-87011005D01*
X147220795Y-86999409D01*
X147219170Y-86995486D01*
X147155736Y-86932052D01*
X147155734Y-86932051D01*
X146815126Y-86591441D01*
X144216175Y-83992490D01*
X144194501Y-83940164D01*
X144194501Y-80855056D01*
X144216175Y-80802730D01*
X144525276Y-80493629D01*
X144577602Y-80471955D01*
X144888264Y-80471955D01*
X144888272Y-80471956D01*
X144896884Y-80471956D01*
X144986594Y-80471956D01*
X145052879Y-80444499D01*
X145069475Y-80437625D01*
X145132909Y-80374191D01*
X145132909Y-80374189D01*
X145749215Y-79757883D01*
X145749218Y-79757881D01*
X145759623Y-79747476D01*
X145759624Y-79747476D01*
X145823058Y-79684042D01*
X145835606Y-79653749D01*
X145857389Y-79601161D01*
X145857389Y-79511451D01*
X145857389Y-79505493D01*
X145857388Y-79505479D01*
X145857388Y-79185363D01*
X145857389Y-79185354D01*
X145857389Y-79087034D01*
X145835666Y-79034591D01*
X145835666Y-79034590D01*
X145823059Y-79004154D01*
X145823057Y-79004151D01*
X145755409Y-78936503D01*
X145755402Y-78936497D01*
X145697174Y-78878269D01*
X145675500Y-78825943D01*
X145675500Y-78750563D01*
X145675499Y-78750562D01*
X145649911Y-78655065D01*
X145649909Y-78655060D01*
X145628186Y-78617435D01*
X145600475Y-78569438D01*
X145530562Y-78499525D01*
X145492776Y-78477709D01*
X145444939Y-78450090D01*
X145444934Y-78450088D01*
X145349437Y-78424500D01*
X145349435Y-78424500D01*
X145250565Y-78424500D01*
X145250563Y-78424500D01*
X145155065Y-78450088D01*
X145155060Y-78450090D01*
X145069437Y-78499525D01*
X144999525Y-78569437D01*
X144950090Y-78655060D01*
X144950088Y-78655065D01*
X144924500Y-78750562D01*
X144924500Y-78849437D01*
X144950088Y-78944934D01*
X144950091Y-78944940D01*
X144975580Y-78989089D01*
X144977804Y-79005989D01*
X144985338Y-79021281D01*
X144981247Y-79032141D01*
X144982972Y-79045242D01*
X144967109Y-79074904D01*
X144965515Y-79076719D01*
X144903413Y-79138822D01*
X144888818Y-79164099D01*
X144883997Y-79169593D01*
X144864649Y-79179123D01*
X144847534Y-79192257D01*
X144839111Y-79191704D01*
X144833190Y-79194622D01*
X144821143Y-79190526D01*
X144800063Y-79189145D01*
X144796933Y-79187848D01*
X144701436Y-79162260D01*
X144701434Y-79162260D01*
X144602564Y-79162260D01*
X144582992Y-79167504D01*
X144526839Y-79160110D01*
X144492361Y-79115177D01*
X144499753Y-79059026D01*
X144537910Y-78992938D01*
X144563499Y-78897437D01*
X144563500Y-78897437D01*
X144563500Y-78798563D01*
X144563499Y-78798562D01*
X144563498Y-78798560D01*
X144537910Y-78703062D01*
X144535853Y-78699500D01*
X144510196Y-78655060D01*
X144488475Y-78617438D01*
X144418562Y-78547525D01*
X144405982Y-78540262D01*
X144332939Y-78498090D01*
X144332934Y-78498088D01*
X144237437Y-78472500D01*
X144237435Y-78472500D01*
X144138565Y-78472500D01*
X144138563Y-78472500D01*
X144043066Y-78498088D01*
X144038580Y-78499947D01*
X144037658Y-78497722D01*
X143989321Y-78504067D01*
X143944400Y-78469572D01*
X143940177Y-78459368D01*
X143939764Y-78459540D01*
X143937911Y-78455068D01*
X143937910Y-78455062D01*
X143888475Y-78369438D01*
X143818562Y-78299525D01*
X143732939Y-78250090D01*
X143732934Y-78250088D01*
X143637437Y-78224500D01*
X143637435Y-78224500D01*
X143538565Y-78224500D01*
X143538563Y-78224500D01*
X143443065Y-78250088D01*
X143443060Y-78250090D01*
X143357437Y-78299525D01*
X143287524Y-78369438D01*
X143260407Y-78416406D01*
X143215474Y-78450884D01*
X143177169Y-78450883D01*
X143097322Y-78429488D01*
X143097320Y-78429488D01*
X142998450Y-78429488D01*
X142998448Y-78429488D01*
X142902950Y-78455076D01*
X142902945Y-78455078D01*
X142817322Y-78504513D01*
X142803248Y-78518588D01*
X142750922Y-78540262D01*
X142707402Y-78522235D01*
X142705552Y-78524648D01*
X142701705Y-78521696D01*
X142616080Y-78472260D01*
X142616075Y-78472258D01*
X142520578Y-78446670D01*
X142520576Y-78446670D01*
X142421706Y-78446670D01*
X142421704Y-78446670D01*
X142326206Y-78472258D01*
X142326201Y-78472260D01*
X142240578Y-78521695D01*
X142204074Y-78558199D01*
X142151748Y-78579872D01*
X142099423Y-78558198D01*
X142090983Y-78549758D01*
X142005360Y-78500323D01*
X142005355Y-78500321D01*
X141909858Y-78474733D01*
X141909856Y-78474733D01*
X141810986Y-78474733D01*
X141810984Y-78474733D01*
X141715486Y-78500321D01*
X141715481Y-78500323D01*
X141629858Y-78549758D01*
X141623654Y-78555963D01*
X141571328Y-78577637D01*
X141519002Y-78555963D01*
X141510562Y-78547523D01*
X141424939Y-78498088D01*
X141424934Y-78498086D01*
X141329437Y-78472498D01*
X141329435Y-78472498D01*
X141230565Y-78472498D01*
X141230563Y-78472498D01*
X141135065Y-78498086D01*
X141135060Y-78498088D01*
X141049437Y-78547523D01*
X140979525Y-78617435D01*
X140930090Y-78703058D01*
X140930088Y-78703063D01*
X140904500Y-78798560D01*
X140904500Y-78897435D01*
X140930088Y-78992932D01*
X140930090Y-78992937D01*
X140979525Y-79078560D01*
X141032826Y-79131861D01*
X141054500Y-79184187D01*
X141054500Y-79289172D01*
X141054499Y-79289186D01*
X141054499Y-79386942D01*
X141032825Y-79439268D01*
X140980499Y-79460942D01*
X140928173Y-79439268D01*
X140782174Y-79293269D01*
X140760500Y-79240943D01*
X140760500Y-79165563D01*
X140760499Y-79165562D01*
X140759142Y-79160499D01*
X140744272Y-79105000D01*
X140734911Y-79070065D01*
X140734909Y-79070060D01*
X140698960Y-79007795D01*
X140685475Y-78984438D01*
X140615562Y-78914525D01*
X140585965Y-78897437D01*
X140529939Y-78865090D01*
X140529934Y-78865088D01*
X140434437Y-78839500D01*
X140434435Y-78839500D01*
X140335565Y-78839500D01*
X140335563Y-78839500D01*
X140240065Y-78865088D01*
X140240060Y-78865090D01*
X140154437Y-78914525D01*
X140084525Y-78984437D01*
X140035090Y-79070060D01*
X140035088Y-79070065D01*
X140009500Y-79165562D01*
X140009500Y-79264437D01*
X140035088Y-79359934D01*
X140035090Y-79359939D01*
X140061635Y-79405916D01*
X140084525Y-79445562D01*
X140154438Y-79515475D01*
X140240062Y-79564910D01*
X140240063Y-79564910D01*
X140240065Y-79564911D01*
X140287813Y-79577705D01*
X140335562Y-79590499D01*
X140335563Y-79590500D01*
X140410943Y-79590500D01*
X140463269Y-79612174D01*
X141192826Y-80341731D01*
X141214500Y-80394057D01*
X141214500Y-80999872D01*
X141192826Y-81052198D01*
X141140500Y-81073872D01*
X141088174Y-81052198D01*
X140750478Y-80714502D01*
X140731326Y-80681330D01*
X140714910Y-80620062D01*
X140665475Y-80534438D01*
X140595562Y-80464525D01*
X140592917Y-80462998D01*
X140509939Y-80415090D01*
X140509934Y-80415088D01*
X140414437Y-80389500D01*
X140414435Y-80389500D01*
X140315565Y-80389500D01*
X140315563Y-80389500D01*
X140220065Y-80415088D01*
X140220056Y-80415092D01*
X140181499Y-80437353D01*
X140125347Y-80444745D01*
X140080414Y-80410266D01*
X140070500Y-80373267D01*
X140070500Y-80206857D01*
X140062104Y-80186588D01*
X140062102Y-80186583D01*
X140058890Y-80178827D01*
X140058890Y-80178826D01*
X140035410Y-80122140D01*
X140035409Y-80122139D01*
X140035409Y-80122138D01*
X139970568Y-80057297D01*
X139966353Y-80053082D01*
X139966346Y-80053076D01*
X139102174Y-79188904D01*
X139080500Y-79136578D01*
X139080500Y-79001189D01*
X139102174Y-78948863D01*
X139115565Y-78935472D01*
X139160475Y-78890562D01*
X139209910Y-78804938D01*
X139235499Y-78709437D01*
X139235500Y-78709437D01*
X139235500Y-78610563D01*
X139235499Y-78610562D01*
X139224875Y-78570914D01*
X139219207Y-78549758D01*
X139209911Y-78515065D01*
X139209909Y-78515060D01*
X139177412Y-78458774D01*
X139160475Y-78429438D01*
X139090562Y-78359525D01*
X139090559Y-78359523D01*
X139090556Y-78359520D01*
X139090139Y-78359200D01*
X139090006Y-78358970D01*
X139087132Y-78356096D01*
X139087902Y-78355325D01*
X139061824Y-78310149D01*
X139076488Y-78255443D01*
X139082859Y-78248177D01*
X139100475Y-78230562D01*
X139149910Y-78144938D01*
X139175499Y-78049437D01*
X139175500Y-78049437D01*
X139175500Y-77950563D01*
X139175499Y-77950562D01*
X139149911Y-77855065D01*
X139149909Y-77855060D01*
X139129378Y-77819500D01*
X139100475Y-77769438D01*
X139030562Y-77699525D01*
X138944939Y-77650090D01*
X138944934Y-77650088D01*
X138849437Y-77624500D01*
X138849435Y-77624500D01*
X138750565Y-77624500D01*
X138750563Y-77624500D01*
X138655065Y-77650088D01*
X138655060Y-77650090D01*
X138569437Y-77699525D01*
X138499525Y-77769437D01*
X138450090Y-77855060D01*
X138450088Y-77855065D01*
X138424500Y-77950562D01*
X138424500Y-78025942D01*
X138402826Y-78078268D01*
X138240830Y-78240264D01*
X138235197Y-78253863D01*
X138206499Y-78323144D01*
X138206499Y-78421466D01*
X138206500Y-78421475D01*
X138206500Y-79201173D01*
X138206499Y-79201187D01*
X138206499Y-79207145D01*
X138206499Y-79296855D01*
X138221341Y-79332686D01*
X138240830Y-79379736D01*
X138304264Y-79443170D01*
X138314671Y-79453577D01*
X138314673Y-79453578D01*
X139051752Y-80190657D01*
X139073426Y-80242983D01*
X139051752Y-80295309D01*
X138999426Y-80316983D01*
X138980274Y-80314462D01*
X138924435Y-80299500D01*
X138825565Y-80299500D01*
X138825563Y-80299500D01*
X138730065Y-80325088D01*
X138730060Y-80325090D01*
X138644437Y-80374525D01*
X138574525Y-80444437D01*
X138525090Y-80530060D01*
X138525088Y-80530065D01*
X138499500Y-80625562D01*
X138499500Y-80693871D01*
X138477826Y-80746197D01*
X137842424Y-81381598D01*
X137790098Y-81403272D01*
X137737772Y-81381598D01*
X137716099Y-81329561D01*
X137700500Y-77328250D01*
X137700500Y-77274000D01*
X137722174Y-77221674D01*
X137774500Y-77200000D01*
X145300000Y-77200000D01*
X145300000Y-73774000D01*
X145321674Y-73721674D01*
X145374000Y-73700000D01*
X167125500Y-73700000D01*
X167177826Y-73721674D01*
G37*
G04 #@! TD.AperFunction*
G04 #@! TA.AperFunction,Conductor*
G36*
X141627029Y-110769961D02*
G01*
X141639500Y-110811073D01*
X141639500Y-113048926D01*
X141617826Y-113101252D01*
X141565500Y-113122926D01*
X141513174Y-113101252D01*
X141492922Y-113063363D01*
X141489831Y-113047826D01*
X141462051Y-112908165D01*
X141386632Y-112726086D01*
X141277139Y-112562218D01*
X141137782Y-112422861D01*
X140998694Y-112329925D01*
X140973913Y-112313367D01*
X140791839Y-112237950D01*
X140791829Y-112237947D01*
X140662388Y-112212200D01*
X140598541Y-112199500D01*
X140401459Y-112199500D01*
X140351186Y-112209500D01*
X140208170Y-112237947D01*
X140208160Y-112237950D01*
X140026086Y-112313367D01*
X139862218Y-112422860D01*
X139862217Y-112422862D01*
X139722862Y-112562217D01*
X139722860Y-112562218D01*
X139613367Y-112726086D01*
X139537950Y-112908160D01*
X139537947Y-112908170D01*
X139507078Y-113063363D01*
X139500955Y-113094147D01*
X139499500Y-113101460D01*
X139499500Y-113298539D01*
X139537947Y-113491829D01*
X139537950Y-113491839D01*
X139613367Y-113673913D01*
X139696243Y-113797945D01*
X139722861Y-113837782D01*
X139862218Y-113977139D01*
X140026086Y-114086632D01*
X140208165Y-114162051D01*
X140401459Y-114200500D01*
X140401461Y-114200500D01*
X140598539Y-114200500D01*
X140598541Y-114200500D01*
X140791835Y-114162051D01*
X140973914Y-114086632D01*
X140975414Y-114085629D01*
X140976011Y-114085510D01*
X140977114Y-114084921D01*
X140977292Y-114085255D01*
X141030959Y-114074577D01*
X141068854Y-114094830D01*
X143240370Y-116266346D01*
X143240373Y-116266350D01*
X143244591Y-116270568D01*
X143309432Y-116335409D01*
X143340260Y-116348178D01*
X143351789Y-116352953D01*
X143351790Y-116352954D01*
X143394151Y-116370501D01*
X143494462Y-116370501D01*
X143494470Y-116370500D01*
X143625500Y-116370500D01*
X143677826Y-116392174D01*
X143699500Y-116444500D01*
X143699500Y-117004820D01*
X143708233Y-117048722D01*
X143741496Y-117098504D01*
X143791278Y-117131767D01*
X143835180Y-117140500D01*
X143835181Y-117140500D01*
X145564819Y-117140500D01*
X145564820Y-117140500D01*
X145608722Y-117131767D01*
X145658504Y-117098504D01*
X145691767Y-117048722D01*
X145700500Y-117004820D01*
X145700500Y-115275180D01*
X145700498Y-115275173D01*
X145700155Y-115271689D01*
X145716589Y-115217488D01*
X145766535Y-115190783D01*
X145820736Y-115207217D01*
X145826124Y-115212100D01*
X145907826Y-115293802D01*
X145929500Y-115346128D01*
X145929500Y-118470800D01*
X145907826Y-118523126D01*
X145855500Y-118544800D01*
X145803174Y-118523126D01*
X145782411Y-118482377D01*
X145772913Y-118422416D01*
X145772911Y-118422405D01*
X145719411Y-118257750D01*
X145640802Y-118103473D01*
X145640802Y-118103472D01*
X145561901Y-117994874D01*
X145130729Y-118426045D01*
X145100099Y-118372993D01*
X145007007Y-118279901D01*
X144953952Y-118249269D01*
X145385124Y-117818098D01*
X145276527Y-117739197D01*
X145122249Y-117660588D01*
X145122250Y-117660588D01*
X144957594Y-117607088D01*
X144957581Y-117607085D01*
X144786574Y-117580000D01*
X144613426Y-117580000D01*
X144442418Y-117607085D01*
X144442405Y-117607088D01*
X144277752Y-117660587D01*
X144123479Y-117739193D01*
X144014874Y-117818098D01*
X144446046Y-118249270D01*
X144392993Y-118279901D01*
X144299901Y-118372993D01*
X144269270Y-118426046D01*
X143838098Y-117994874D01*
X143759193Y-118103479D01*
X143680587Y-118257752D01*
X143654492Y-118338068D01*
X143617709Y-118381135D01*
X143561247Y-118385579D01*
X143531788Y-118367527D01*
X141971898Y-116807637D01*
X141971894Y-116807634D01*
X141879828Y-116769500D01*
X141001023Y-116769500D01*
X140948697Y-116747826D01*
X140927023Y-116695500D01*
X140948697Y-116643174D01*
X140970757Y-116628433D01*
X140970710Y-116628345D01*
X140971612Y-116627862D01*
X140972704Y-116627132D01*
X140973914Y-116626632D01*
X141137782Y-116517139D01*
X141277139Y-116377782D01*
X141386632Y-116213914D01*
X141462051Y-116031835D01*
X141500500Y-115838541D01*
X141500500Y-115641459D01*
X141462051Y-115448165D01*
X141386632Y-115266086D01*
X141277139Y-115102218D01*
X141137782Y-114962861D01*
X141119385Y-114950568D01*
X140973913Y-114853367D01*
X140791839Y-114777950D01*
X140791829Y-114777947D01*
X140662388Y-114752200D01*
X140598541Y-114739500D01*
X140401459Y-114739500D01*
X140351186Y-114749500D01*
X140208170Y-114777947D01*
X140208160Y-114777950D01*
X140026086Y-114853367D01*
X139862218Y-114962860D01*
X139862217Y-114962862D01*
X139722862Y-115102217D01*
X139722860Y-115102218D01*
X139613367Y-115266086D01*
X139537950Y-115448160D01*
X139537947Y-115448170D01*
X139499500Y-115641460D01*
X139499500Y-115838539D01*
X139537947Y-116031829D01*
X139537950Y-116031839D01*
X139613367Y-116213913D01*
X139707071Y-116354150D01*
X139722861Y-116377782D01*
X139862218Y-116517139D01*
X140026086Y-116626632D01*
X140027294Y-116627132D01*
X140027608Y-116627446D01*
X140029290Y-116628345D01*
X140029017Y-116628855D01*
X140067343Y-116667180D01*
X140067345Y-116723817D01*
X140027297Y-116763866D01*
X139998977Y-116769500D01*
X139884413Y-116769500D01*
X139832087Y-116747826D01*
X139352174Y-116267913D01*
X139330500Y-116215587D01*
X139330500Y-112214412D01*
X139352173Y-112162087D01*
X139949787Y-111564472D01*
X140002112Y-111542799D01*
X140030430Y-111548432D01*
X140208160Y-111622049D01*
X140208165Y-111622051D01*
X140401459Y-111660500D01*
X140401461Y-111660500D01*
X140598539Y-111660500D01*
X140598541Y-111660500D01*
X140791835Y-111622051D01*
X140973914Y-111546632D01*
X141137782Y-111437139D01*
X141277139Y-111297782D01*
X141386632Y-111133914D01*
X141462051Y-110951835D01*
X141492922Y-110796635D01*
X141524388Y-110749544D01*
X141579937Y-110738495D01*
X141627029Y-110769961D01*
G37*
G04 #@! TD.AperFunction*
G04 #@! TA.AperFunction,Conductor*
G36*
X150098269Y-78907174D02*
G01*
X150562826Y-79371731D01*
X150584500Y-79424057D01*
X150584500Y-81519173D01*
X150584499Y-81519187D01*
X150584499Y-81614855D01*
X150605680Y-81665989D01*
X150605680Y-81665990D01*
X150609856Y-81676072D01*
X150609856Y-81732709D01*
X150569807Y-81772757D01*
X150513170Y-81772757D01*
X150489163Y-81756716D01*
X149563174Y-80830727D01*
X149541500Y-80778401D01*
X149541500Y-80002488D01*
X149541499Y-80002483D01*
X149541270Y-80001931D01*
X149541257Y-80001899D01*
X149531222Y-79977674D01*
X149531220Y-79977671D01*
X149516238Y-79941500D01*
X149506409Y-79917768D01*
X149441568Y-79852927D01*
X149437353Y-79848712D01*
X149437346Y-79848706D01*
X149179481Y-79590841D01*
X149179481Y-79590840D01*
X149104233Y-79515592D01*
X149104229Y-79515589D01*
X149062242Y-79498198D01*
X149062239Y-79498197D01*
X149028774Y-79484334D01*
X148998020Y-79453578D01*
X148988727Y-79444285D01*
X148983868Y-79405298D01*
X148989999Y-79363221D01*
X148990000Y-79363212D01*
X148990000Y-79355000D01*
X148584000Y-79355000D01*
X148531674Y-79333326D01*
X148510000Y-79281000D01*
X148510000Y-79179000D01*
X148531674Y-79126674D01*
X148584000Y-79105000D01*
X148989999Y-79105000D01*
X148989999Y-79096789D01*
X148989998Y-79096775D01*
X148980087Y-79028749D01*
X148962122Y-78992000D01*
X148958613Y-78935472D01*
X148996103Y-78893019D01*
X149028603Y-78885500D01*
X150045943Y-78885500D01*
X150098269Y-78907174D01*
G37*
G04 #@! TD.AperFunction*
M02*
