G04 #@! TF.GenerationSoftware,KiCad,Pcbnew,9.0.2*
G04 #@! TF.CreationDate,2025-08-01T14:32:08+08:00*
G04 #@! TF.ProjectId,STM32WB5MMG_Breakout_Board,53544d33-3257-4423-954d-4d475f427265,rev?*
G04 #@! TF.SameCoordinates,Original*
G04 #@! TF.FileFunction,Legend,Bot*
G04 #@! TF.FilePolarity,Positive*
%FSLAX46Y46*%
G04 Gerber Fmt 4.6, Leading zero omitted, Abs format (unit mm)*
G04 Created by KiCad (PCBNEW 9.0.2) date 2025-08-01 14:32:08*
%MOMM*%
%LPD*%
G01*
G04 APERTURE LIST*
%ADD10C,0.153000*%
%ADD11C,0.120000*%
G04 APERTURE END LIST*
D10*
X153179424Y-124063333D02*
X153227044Y-124015714D01*
X153227044Y-124015714D02*
X153274663Y-123872857D01*
X153274663Y-123872857D02*
X153274663Y-123777619D01*
X153274663Y-123777619D02*
X153227044Y-123634762D01*
X153227044Y-123634762D02*
X153131805Y-123539524D01*
X153131805Y-123539524D02*
X153036567Y-123491905D01*
X153036567Y-123491905D02*
X152846091Y-123444286D01*
X152846091Y-123444286D02*
X152703234Y-123444286D01*
X152703234Y-123444286D02*
X152512758Y-123491905D01*
X152512758Y-123491905D02*
X152417520Y-123539524D01*
X152417520Y-123539524D02*
X152322282Y-123634762D01*
X152322282Y-123634762D02*
X152274663Y-123777619D01*
X152274663Y-123777619D02*
X152274663Y-123872857D01*
X152274663Y-123872857D02*
X152322282Y-124015714D01*
X152322282Y-124015714D02*
X152369901Y-124063333D01*
X153274663Y-125015714D02*
X153274663Y-124444286D01*
X153274663Y-124730000D02*
X152274663Y-124730000D01*
X152274663Y-124730000D02*
X152417520Y-124634762D01*
X152417520Y-124634762D02*
X152512758Y-124539524D01*
X152512758Y-124539524D02*
X152560377Y-124444286D01*
D11*
X139120000Y-88960000D02*
X141880000Y-88960000D01*
X139120000Y-124630000D02*
X139120000Y-88960000D01*
X139120000Y-124630000D02*
X141880000Y-124630000D01*
X139120000Y-125900000D02*
X139120000Y-127280000D01*
X139120000Y-127280000D02*
X140500000Y-127280000D01*
X141880000Y-124630000D02*
X141880000Y-88960000D01*
X164050000Y-88960000D02*
X166810000Y-88960000D01*
X164050000Y-124630000D02*
X164050000Y-88960000D01*
X164050000Y-124630000D02*
X166810000Y-124630000D01*
X164050000Y-125900000D02*
X164050000Y-127280000D01*
X164050000Y-127280000D02*
X165430000Y-127280000D01*
X166810000Y-124630000D02*
X166810000Y-88960000D01*
X155920000Y-101670000D02*
X158680000Y-101670000D01*
X155920000Y-124640000D02*
X155920000Y-101670000D01*
X155920000Y-124640000D02*
X158680000Y-124640000D01*
X155920000Y-125910000D02*
X155920000Y-127290000D01*
X155920000Y-127290000D02*
X157300000Y-127290000D01*
X158680000Y-124640000D02*
X158680000Y-101670000D01*
X150990000Y-124079420D02*
X150990000Y-124360580D01*
X152010000Y-124079420D02*
X152010000Y-124360580D01*
X147620000Y-99130000D02*
X150380000Y-99130000D01*
X147620000Y-124640000D02*
X147620000Y-99130000D01*
X147620000Y-124640000D02*
X150380000Y-124640000D01*
X147620000Y-125910000D02*
X147620000Y-127290000D01*
X147620000Y-127290000D02*
X149000000Y-127290000D01*
X150380000Y-124640000D02*
X150380000Y-99130000D01*
M02*
