M48
; DRILL file {KiCad 9.0.2} date 2025-08-01T14:32:07+0800
; FORMAT={-:-/ absolute / metric / decimal}
; #@! TF.CreationDate,2025-08-01T14:32:07+08:00
; #@! TF.GenerationSoftware,Kicad,Pcbnew,9.0.2
; #@! TF.FileFunction,Plated,1,2,PTH
FMAT,2
METRIC
; #@! TA.AperFunction,Plated,PTH,ViaDrill
T1C0.300
; #@! TA.AperFunction,Plated,PTH,ComponentDrill
T2C1.000
%
G90
G05
T1
X138.49Y-82.49
X138.8Y-78.0
X138.8Y-92.2
X138.86Y-78.66
X138.862Y-93.6
X138.875Y-80.675
X139.88Y-84.0
X139.9Y-88.02
X140.02Y-82.02
X140.06Y-83.25
X140.183Y-82.65
X140.365Y-80.765
X140.385Y-79.215
X140.4Y-81.42
X141.28Y-78.848
X141.86Y-78.85
X142.471Y-78.822
X142.6Y-118.8
X142.6Y-120.6
X142.6Y-122.4
X142.6Y-124.0
X142.6Y-125.6
X142.6Y-126.8
X143.048Y-78.805
X143.588Y-78.6
X144.188Y-78.848
X144.652Y-79.538
X144.8Y-111.6
X144.8Y-112.6
X145.0Y-80.8
X145.0Y-82.3
X145.0Y-83.8
X145.204Y-79.369
X145.3Y-78.8
X145.8Y-99.6
X145.8Y-101.0
X145.8Y-102.4
X146.0Y-104.0
X146.0Y-105.6
X146.0Y-108.0
X146.0Y-110.0
X146.0Y-112.0
X146.52Y-82.18
X146.59Y-80.79
X146.693Y-78.707
X146.8Y-78.14
X146.895Y-83.705
X147.0Y-79.76
X147.0Y-101.0
X147.0Y-102.4
X147.0Y-104.8
X147.0Y-109.0
X147.0Y-111.0
X147.2Y-82.06
X147.4Y-80.4
X147.47Y-83.5
X147.58Y-85.82
X147.6Y-81.55
X147.6Y-85.09
X147.86Y-83.04
X148.0Y-86.5
X148.0Y-88.5
X148.0Y-90.5
X148.0Y-92.5
X148.0Y-94.5
X148.0Y-101.8
X148.768Y-80.232
X149.0Y-74.5
X149.0Y-76.5
X150.0Y-86.5
X150.0Y-88.5
X150.0Y-90.5
X150.0Y-92.5
X150.0Y-94.5
X150.05Y-80.45
X151.0Y-74.5
X151.0Y-76.5
X151.0Y-78.5
X152.0Y-86.5
X152.0Y-88.5
X152.0Y-90.5
X152.0Y-92.5
X152.0Y-94.5
X152.0Y-96.5
X152.0Y-117.5
X152.0Y-120.5
X153.0Y-74.5
X153.0Y-76.5
X153.0Y-78.5
X153.0Y-80.5
X153.0Y-122.5
X153.0Y-124.5
X153.0Y-126.5
X154.0Y-86.5
X154.0Y-88.5
X154.0Y-90.5
X154.0Y-92.5
X154.0Y-94.5
X154.0Y-96.5
X154.0Y-98.5
X154.0Y-100.5
X154.0Y-116.5
X154.0Y-119.5
X155.0Y-74.5
X155.0Y-76.5
X155.0Y-78.5
X155.0Y-80.5
X155.0Y-122.5
X155.0Y-124.5
X155.0Y-126.5
X156.0Y-87.5
X156.0Y-89.0
X156.0Y-90.5
X156.0Y-92.5
X156.0Y-94.5
X156.0Y-96.5
X156.0Y-98.5
X156.0Y-100.5
X156.0Y-117.5
X156.0Y-120.5
X157.0Y-74.5
X157.0Y-76.5
X157.0Y-78.5
X157.0Y-80.5
X157.5Y-89.0
X158.0Y-90.5
X158.0Y-92.5
X158.0Y-94.5
X158.0Y-96.5
X158.0Y-98.5
X158.0Y-100.5
X159.0Y-74.5
X159.0Y-76.5
X159.0Y-78.5
X159.0Y-80.5
X159.0Y-82.5
X159.8Y-113.5
X159.8Y-115.0
X160.0Y-90.5
X160.0Y-92.5
X160.0Y-94.5
X160.0Y-96.5
X160.0Y-98.5
X160.0Y-100.5
X160.0Y-102.5
X160.0Y-104.5
X160.0Y-119.5
X160.0Y-121.5
X160.0Y-123.5
X160.0Y-125.5
X160.0Y-127.5
X160.8Y-117.2
X161.0Y-74.5
X161.0Y-76.5
X161.0Y-78.5
X161.0Y-80.5
X161.0Y-82.5
X161.0Y-84.5
X161.0Y-96.5
X161.0Y-98.5
X161.0Y-100.5
X161.0Y-102.5
X161.0Y-104.5
X161.0Y-113.0
X161.0Y-115.6
X161.6Y-114.2
X162.0Y-117.8
X162.0Y-121.5
X162.0Y-123.5
X162.0Y-125.5
X162.0Y-127.5
X162.4Y-115.0
X162.4Y-116.4
X162.5Y-113.0
X163.0Y-74.5
X163.0Y-76.5
X163.0Y-78.5
X163.0Y-80.5
X163.0Y-82.5
X163.0Y-84.5
X163.0Y-86.5
X163.0Y-118.8
X163.2Y-117.4
X164.0Y-123.5
X164.0Y-125.5
X164.0Y-127.5
X165.0Y-74.5
X165.0Y-76.5
X165.0Y-78.5
X165.0Y-80.5
X165.0Y-82.5
X165.0Y-84.5
X165.0Y-86.5
X165.0Y-88.5
T2
X140.5Y-90.34
X140.5Y-92.88
X140.5Y-95.42
X140.5Y-97.96
X140.5Y-100.5
X140.5Y-103.04
X140.5Y-105.58
X140.5Y-108.12
X140.5Y-110.66
X140.5Y-113.2
X140.5Y-115.74
X140.5Y-118.28
X140.5Y-120.82
X140.5Y-123.36
X140.5Y-125.9
X144.7Y-116.14
X144.7Y-118.68
X144.7Y-121.22
X144.7Y-123.76
X144.7Y-126.3
X149.0Y-100.51
X149.0Y-103.05
X149.0Y-105.59
X149.0Y-108.13
X149.0Y-110.67
X149.0Y-113.21
X149.0Y-115.75
X149.0Y-118.29
X149.0Y-120.83
X149.0Y-123.37
X149.0Y-125.91
X153.2Y-110.2
X157.3Y-103.05
X157.3Y-105.59
X157.3Y-108.13
X157.3Y-110.67
X157.3Y-113.21
X157.3Y-115.75
X157.3Y-118.29
X157.3Y-120.83
X157.3Y-123.37
X157.3Y-125.91
X161.4Y-108.16
X161.4Y-110.7
X165.43Y-90.34
X165.43Y-92.88
X165.43Y-95.42
X165.43Y-97.96
X165.43Y-100.5
X165.43Y-103.04
X165.43Y-105.58
X165.43Y-108.12
X165.43Y-110.66
X165.43Y-113.2
X165.43Y-115.74
X165.43Y-118.28
X165.43Y-120.82
X165.43Y-123.36
X165.43Y-125.9
M30
